<svg width="32" height="32" viewBox="0 0 32 32" fill="none" xmlns="http://www.w3.org/2000/svg">
<path d="M14.1691 30.0897C11.7403 30.0897 9.99968 29.2654 7.79894 28.2211C7.79894 28.2211 7.38281 28.025 7.19074 27.937C6.60255 27.6649 5.99434 27.3808 5.44216 27.0807C4.49784 26.5645 4.01368 25.7562 4.00168 24.6719C3.97367 21.911 4.29778 19.022 4.60988 16.2291L4.73392 15.1207C4.76593 14.8166 4.78994 14.4805 4.81795 14.1364C4.87397 13.3681 4.93399 12.5719 5.09004 11.9076C5.43816 10.4511 6.69458 10.1911 7.63089 10.107C7.10671 8.95865 7.16673 7.47816 8.29911 6.55385C8.67924 6.24175 9.08337 6.08569 9.49551 6.08569C10.3478 6.08569 10.92 6.72991 11.3801 7.24608C11.5122 7.39413 11.6442 7.54618 11.7643 7.65422C12.2684 6.58986 12.7686 5.4975 13.1407 4.40914L13.1567 4.35712C13.2328 4.13304 13.3048 3.92097 13.3488 3.72091C13.3808 3.56085 13.3968 3.3928 13.4168 3.21274C13.4768 2.56452 13.5769 1.48016 14.9813 1.15205C15.4095 1.05202 15.8736 1 16.3658 1C19.0227 1 22.0037 2.41647 23.7483 3.63288C24.1884 3.93698 25.6529 5.01734 26.105 6.07369C26.4812 6.94998 26.057 7.53017 25.8009 7.87829C25.7649 7.92631 25.7289 7.97832 25.6929 8.03034C25.6289 8.12237 25.5609 8.2184 25.4928 8.31844C25.3368 8.53851 25.1767 8.76659 25.0727 8.95865C25.0247 9.05468 24.9567 9.18673 24.8966 9.31077C24.9006 9.31077 24.9086 9.31877 24.9126 9.32277C25.0647 9.4188 25.2167 9.51484 25.3288 9.59886C27.3174 11.1394 27.4135 12.7199 27.1254 13.7963C27.3855 14.0083 27.6616 14.2804 27.8336 14.7006C28.0737 15.2968 28.0017 16.005 27.9376 16.6332C27.9216 16.8093 27.9016 16.9773 27.8976 17.1294C27.8616 17.9857 27.8376 18.8499 27.8136 19.7182C27.7536 21.7789 27.6936 23.9076 27.4975 25.9723L27.4735 26.2244C27.3895 27.1887 27.2534 28.8053 25.3288 28.9653C24.4205 29.0413 23.4682 29.0453 22.5479 29.0493C21.9637 29.0493 21.3555 29.0533 20.7833 29.0773C20.5872 29.0854 20.3831 29.0894 20.1751 29.0934C19.4628 29.1094 18.6586 29.1254 18.0744 29.2854C17.7903 29.3654 17.5302 29.4535 17.2581 29.5495C16.7139 29.7376 16.1537 29.9336 15.4175 30.0137C14.9933 30.0617 14.5732 30.0857 14.1691 30.0857V30.0897ZM20.7673 24.8399C21.0193 24.94 21.2874 25.024 21.5755 25.112C21.8196 25.1881 22.0637 25.2641 22.2998 25.3481C22.7279 25.5042 23.1521 25.6762 23.5802 25.8443C24.0884 26.0483 24.6125 26.2604 25.1207 26.4325C25.1447 26.4405 25.1647 26.4485 25.1887 26.4565C25.2848 25.8523 25.3488 24.7479 25.3728 24.3278L25.3928 23.9917C25.5569 21.3748 25.6329 18.6619 25.6849 16.3531C25.6849 16.2411 25.6849 16.125 25.6849 16.013C25.6849 15.8609 25.6849 15.7049 25.6889 15.5448C25.4288 15.3008 25.0207 15.0087 24.6886 14.7686C24.5565 14.6766 24.4365 14.5845 24.3244 14.5045L23.7963 14.1084C23.1 13.5882 22.3398 13.016 21.6115 12.5118C21.5835 12.8239 21.5555 13.148 21.5355 13.4762C21.4675 14.5005 21.4235 15.5488 21.3795 16.5652C21.3314 17.6495 21.2834 18.7739 21.2074 19.8783C21.1554 20.6345 21.0714 21.4108 20.9873 22.163C20.8913 23.0473 20.7913 23.9596 20.7473 24.8239C20.7553 24.8239 20.7633 24.8319 20.7713 24.8319L20.7673 24.8399ZM9.07537 24.5678C9.1594 24.5678 9.28344 24.5879 9.36346 24.6119C9.60755 24.6879 9.71558 24.8279 9.98367 25.164C10.0517 25.2481 10.1157 25.3321 10.1517 25.3761C10.7679 26.0043 11.7202 26.3684 12.7526 26.3684C13.5449 26.3684 14.3051 26.1484 14.8933 25.7442C14.9533 25.7042 15.0414 25.6202 15.1294 25.5362C15.4015 25.2761 15.7776 24.924 16.3018 24.8679C16.5699 24.8399 16.854 24.8359 17.126 24.8359C18.3184 24.8239 18.5185 24.7159 18.5865 24.3558C18.7306 23.6275 18.7746 22.7032 18.8146 21.8069C18.8306 21.4268 18.8506 21.0587 18.8746 20.7186C18.9627 19.4782 19.0387 18.2337 19.1107 16.9893C19.1747 15.905 19.2388 14.8246 19.3108 13.7402C19.3348 13.3961 19.3748 13.036 19.4108 12.6759C19.4588 12.2357 19.5108 11.7756 19.5228 11.3675C19.3508 11.3354 19.1387 11.3194 18.8906 11.3194C18.3505 11.3194 17.7182 11.3955 17.1581 11.4595C16.834 11.4955 16.5258 11.5315 16.2538 11.5555C14.4692 11.6956 12.7846 11.8796 11.004 12.0757L10.7879 12.0997C10.3358 12.1477 9.85563 12.1837 9.39147 12.2157C8.67924 12.2638 7.94299 12.3158 7.31478 12.4238C7.25476 12.6799 7.19874 13.136 7.17874 13.3041L7.15073 13.5082C6.81462 15.937 6.56253 18.4298 6.42649 20.7106L6.39047 21.2667C6.32245 22.3431 6.24243 23.5595 6.31445 24.5718C6.32645 24.7119 6.36247 25.032 6.48251 25.08H8.2671C8.39114 24.7759 8.69524 24.5638 9.05936 24.5638L9.07537 24.5678ZM14.061 8.26242C14.4772 8.24241 14.8853 8.17839 15.3014 8.10237C15.2854 8.10237 15.2694 8.10237 15.2534 8.10237C15.0253 8.09036 14.6612 8.07436 14.3331 8.07436C14.2651 8.07436 14.2051 8.07436 14.1531 8.07436L14.061 8.26242Z" fill="white"/>
<path d="M20.7194 10.6112L26.5614 15.0207L26.6774 15.3088L26.2053 25.7763L25.9372 27.2768L25.7011 27.5288H25.433L19.6431 25.4922V25.1881L20.1472 20.0543L20.4833 13.104L20.7194 10.6112Z" fill="#F8F8F8"/>
<path d="M18.6626 9.81506C18.8107 9.85508 20.3752 9.77905 20.4792 9.88309C20.6393 10.0391 21.7796 10.8434 21.9957 11.0115C23.0761 11.8477 24.3085 12.552 25.4569 13.5163C25.5529 13.5963 26.1531 13.9484 26.1891 14.0765C26.5172 14.3646 26.9134 14.5726 27.0854 15.0008C27.3095 15.565 27.1174 16.4813 27.0934 17.1015C26.9774 20.0105 26.9694 23.0075 26.6933 25.9004C26.5932 26.9688 26.6173 28.0611 25.2568 28.1732C23.8043 28.2932 22.2198 28.2252 20.7473 28.2812C19.843 28.3172 18.7186 28.2812 17.8543 28.5173C16.99 28.7534 16.3098 29.1135 15.3215 29.2215C12.4285 29.5416 10.5879 28.6573 8.09509 27.4769C7.35484 27.1248 6.52656 26.7607 5.81833 26.3726C5.11009 25.9844 4.80599 25.4643 4.79799 24.66C4.76598 21.583 5.19012 18.2739 5.52623 15.2089C5.63027 14.2605 5.65027 12.9881 5.86634 12.0918C6.20246 10.6834 7.75897 10.9915 8.85534 10.7914C8.93537 10.7754 8.99139 10.6994 8.95537 10.6193M6.42253 25.8804H9.13143C9.19945 25.6924 9.07541 25.5643 9.0234 25.3882C9.0234 25.3562 9.09942 25.3642 9.11543 25.3682C9.15144 25.3802 9.48755 25.8364 9.57158 25.9204C11.0201 27.3929 13.6529 27.561 15.3455 26.4006C15.6696 26.1765 16.0057 25.6963 16.3858 25.6563C17.4702 25.5443 19.0987 25.9084 19.3748 24.5C19.5909 23.3916 19.5949 21.9231 19.6749 20.7667C19.839 18.4419 19.955 16.1132 20.1111 13.7844C20.1671 12.9721 20.3112 12.0718 20.3312 11.2755C20.3392 10.8674 20.3072 10.7314 19.895 10.6193C18.8987 10.3472 17.2621 10.6633 16.2018 10.7474C14.3292 10.8914 12.5726 11.0875 10.712 11.2916C9.58758 11.4156 8.28315 11.4316 7.19079 11.6237C7.03473 11.6517 6.80266 11.7357 6.69462 11.8557C6.51456 12.0598 6.41853 13.0681 6.37451 13.3883C6.0464 15.757 5.78632 18.2699 5.64227 20.6547C5.56624 21.9031 5.4422 23.3756 5.53023 24.62C5.57025 25.1962 5.77031 25.7924 6.42253 25.8724V25.8804ZM20.9514 11.1915C20.8513 11.9318 20.7833 12.68 20.7313 13.4283C20.5912 15.557 20.5512 17.6977 20.4032 19.8264C20.2871 21.523 19.9991 23.3116 19.931 24.9921C19.911 25.4443 20.0911 25.4323 20.4672 25.5843C20.9714 25.7884 21.5116 25.9164 22.0237 26.1005C22.968 26.4446 23.9124 26.8687 24.8567 27.1928C25.2208 27.3169 25.6449 27.581 25.837 27.1208C26.0691 26.5766 26.1411 24.732 26.1811 24.0478C26.3412 21.531 26.4172 18.8981 26.4732 16.3772C26.4812 16.0291 26.4652 15.685 26.4932 15.3369C26.4652 15.1969 26.3852 15.1248 26.2891 15.0288C25.921 14.6567 25.2328 14.1965 24.7966 13.8684C23.6963 13.0481 22.4079 12.0558 21.2635 11.3316C21.1674 11.2715 21.0674 11.1875 20.9474 11.1955L20.9514 11.1915Z" fill="black"/>
<path d="M6.42253 25.8802C5.77031 25.8002 5.57024 25.2 5.53023 24.6278C5.4422 23.3874 5.56624 21.9109 5.64227 20.6625C5.78632 18.2777 6.0464 15.7649 6.37451 13.3961C6.41853 13.076 6.51456 12.0676 6.69462 11.8636C6.80265 11.7435 7.03473 11.6595 7.19078 11.6315C8.28315 11.4394 9.58758 11.4234 10.712 11.2994C12.5726 11.0953 14.3332 10.8992 16.2018 10.7552C17.2621 10.6752 18.8947 10.3551 19.895 10.6271C20.3072 10.7392 20.3392 10.8752 20.3312 11.2834C20.3152 12.0796 20.1671 12.9799 20.1111 13.7922C19.951 16.117 19.839 18.4497 19.6749 20.7745C19.5909 21.9309 19.5909 23.3994 19.3748 24.5078C19.0987 25.9162 17.4702 25.5521 16.3858 25.6641C16.0057 25.7042 15.6696 26.1843 15.3455 26.4084C13.6529 27.5688 11.0161 27.4007 9.57158 25.9282C9.48755 25.8402 9.14744 25.3841 9.11542 25.3761C9.09942 25.372 9.01939 25.364 9.02339 25.3961C9.0514 25.5761 9.19945 25.7002 9.13143 25.8882H6.42253V25.8802ZM18.5866 13.7722C18.5226 12.0756 17.4462 10.6952 15.6536 11.5474C14.6693 12.0156 13.937 13.0319 13.713 14.0723C13.713 14.0883 13.5449 14.2323 13.6049 14.3524C13.729 14.3764 13.6849 14.2083 13.733 14.1363C13.761 14.0923 13.841 14.0763 13.877 14.0283C14.8693 12.7759 16.6459 11.4514 18.0224 13.0439C18.2265 13.28 18.3385 13.5761 18.5866 13.7722ZM11.7883 14.1723C11.5762 14.2203 11.5802 14.5564 11.4242 14.6245C11.3042 14.6805 11.0801 14.6365 10.964 14.5765C10.712 14.4444 10.3598 13.6481 10.1318 13.3721C9.41953 12.5118 8.05507 12.2797 7.37485 13.3C7.19879 13.5641 6.91469 14.0443 7.08275 14.3524C7.92303 12.9719 9.26347 13.9122 10.1718 14.6445C10.5639 14.9606 11.0001 15.6368 11.5722 15.2407C11.8723 15.0286 11.9484 14.4884 11.7923 14.1723H11.7883ZM15.8577 16.245C15.7216 16.081 16.4659 15.8289 16.5579 15.8009C16.83 15.7088 17.0221 15.7969 17.1061 15.4407C17.2221 14.9566 16.966 14.4164 16.6059 14.1003C15.5896 13.22 14.7133 14.9086 14.5332 15.7368C14.3652 16.5131 14.3132 17.6255 14.9094 18.2337C14.9294 18.3457 14.4572 18.7178 14.6813 18.8979C15.7216 18.1176 17.3502 17.2053 18.6146 17.9856C18.9667 17.8135 18.2905 17.3894 18.1184 17.3174C17.6903 17.1413 17.3502 17.3094 16.918 17.2253C16.982 16.8932 17.1341 16.7732 16.79 16.5331C16.5419 16.3611 16.1538 16.297 15.8617 16.241L15.8577 16.245ZM11.8243 17.9896C11.7763 17.9056 11.7763 17.7895 11.7123 17.7175C11.5202 17.5054 10.9961 17.2934 10.804 17.0613C10.6759 16.9052 10.5439 16.5771 10.3999 16.3771C9.87968 15.6568 9.22346 15.2287 8.29515 15.4247C7.65094 15.5608 7.11876 16.257 7.02273 16.8812C7.03873 16.9973 7.31082 16.7092 7.33883 16.6892C7.62293 16.4891 7.99505 16.293 8.34717 16.281C8.77931 16.269 9.41552 16.4531 9.56758 16.9012C8.91936 17.0213 8.41919 17.5254 8.36718 18.1937C8.21913 20.0343 10.896 20.8265 12.0604 19.5941C12.1244 19.5261 12.0764 19.4221 12.2125 19.4421L12.2205 19.302C11.2401 19.7582 8.96337 19.5501 9.17144 18.0496C9.23146 17.5975 9.90769 17.5254 10.2758 17.5574C10.78 17.5975 11.2521 17.9536 11.6763 18.0136C11.7363 18.0216 11.7683 18.0016 11.8243 17.9936V17.9896ZM17.7543 19.7422C18.1504 19.6862 18.4545 20.0343 18.7186 20.2784C19.1948 20.0223 18.6946 19.3941 18.3785 19.198C17.7383 18.7979 16.4899 19.106 15.8217 19.3941C15.6616 19.4621 15.3335 19.5741 15.5176 19.7782C15.7576 19.8382 16.1938 19.5781 16.3618 19.7982C16.3778 19.9062 15.7176 20.2784 15.6016 20.3384C13.829 21.2987 11.3602 21.9229 9.39152 21.2747C8.83933 21.0906 7.87501 20.5464 7.76297 19.9222C7.67094 19.4101 8.31516 19.9943 8.27515 19.5901C8.05107 19.5381 7.81899 19.298 7.60292 19.278C7.46287 19.266 7.03873 19.5221 6.9467 19.6461C6.80265 19.8382 6.69862 20.3024 6.91069 20.4624C6.91469 20.3544 7.01473 20.0343 7.16678 20.1143C7.25481 20.1623 7.59892 20.7025 7.69895 20.8225C7.99505 21.1867 8.33917 21.5188 8.79532 21.6708C9.23947 23.2113 9.81966 25.0159 11.3962 25.7402C12.8567 26.4124 14.7293 25.3881 15.7096 24.2957C16.846 23.0313 17.2381 21.3147 17.7503 19.7382L17.7543 19.7422Z" fill="#F8F8F8"/>
<path d="M24.8366 10.231C24.6205 10.063 24.2204 9.85491 24.0603 9.69886C23.9563 9.59483 23.9443 9.55481 23.9843 9.40676C24.0283 9.25071 24.2724 8.75055 24.3604 8.58249C24.5365 8.24638 24.8126 7.89426 25.0286 7.57816C25.2967 7.18603 25.6008 6.92994 25.3687 6.38976C25.0486 5.64951 23.9483 4.74921 23.288 4.28906C21.2314 2.85658 17.6742 1.34408 15.1613 1.92827C14.061 2.18436 14.3171 3.01664 14.133 3.88092C14.077 4.14501 13.985 4.4051 13.8969 4.66118C13.4248 6.03764 12.7725 7.39409 12.1443 8.70653H11.9963C11.8082 8.57049 11.6002 8.52647 11.4041 8.38642C10.6318 7.83424 9.95561 6.22971 8.80323 7.16602C7.91893 7.88626 7.95494 9.16268 8.51913 10.067C8.61116 10.219 8.91526 10.5071 8.95928 10.6112C8.99129 10.6912 8.93927 10.7672 8.85924 10.7832L19.4308 9.84291C19.4308 9.84291 20.047 9.84291 20.227 9.89093C20.4791 9.95895 21.0193 10.3791 21.0193 10.3791L26.189 14.0683C26.153 13.9443 26.297 13.7602 26.3331 13.6402C26.7492 12.1957 25.9169 11.0593 24.8366 10.223V10.231ZM14.281 5.84958C14.4331 5.65752 14.8092 5.53748 14.6572 5.23338C14.5691 5.17736 14.3851 5.3214 14.4091 5.20937C14.4491 4.98929 14.6972 4.62517 14.7892 4.38909C14.9853 3.88893 14.9973 3.38476 15.0333 2.84858C15.0613 2.75655 15.4294 2.66452 15.5375 2.68053C15.5615 3.32874 15.4094 3.96895 15.1333 4.54915C15.0893 4.64118 14.8933 4.91727 14.8893 4.96128C14.8812 5.02531 14.9933 5.05332 14.9973 5.17336C14.9973 5.48946 14.7452 5.84558 14.6252 6.11367C14.5731 6.22971 14.5091 6.53781 14.4531 6.59383C14.3451 6.69786 14.013 6.68186 13.8689 6.68186C13.8249 6.64184 14.229 5.92561 14.2891 5.84958H14.281ZM17.6582 8.53848C16.1417 8.64651 14.8012 9.19469 13.1847 9.04665C13.1087 9.03864 12.8526 9.00663 12.8486 8.9186L13.6168 7.33407C13.6488 7.30607 13.6849 7.30206 13.7249 7.29806C14.101 7.25005 14.8893 7.27806 15.2894 7.29806C16.6058 7.37009 18.1823 7.79023 19.2707 8.53447C18.7425 8.56248 18.1783 8.49846 17.6542 8.53447L17.6582 8.53848Z" fill="black"/>
<path d="M17.7543 19.7422C17.2421 21.3187 16.85 23.0353 15.7136 24.2997C14.7333 25.3921 12.8607 26.4164 11.4002 25.7442C9.82367 25.0159 9.24348 23.2113 8.79933 21.6748C8.34318 21.5268 7.99906 21.1907 7.70296 20.8265C7.60293 20.7065 7.26282 20.1663 7.17079 20.1183C7.01874 20.0383 7.01474 20.4224 6.9147 20.4664C6.67462 20.5785 6.81067 19.8422 6.95071 19.6502C7.04274 19.5261 7.46689 19.274 7.60693 19.282C7.823 19.298 8.12711 19.4181 8.27916 19.5941C8.54324 19.8982 7.67496 19.4101 7.76699 19.9262C7.87902 20.5505 8.83934 21.0986 9.39553 21.2787C11.3642 21.9269 13.833 21.3027 15.6056 20.3424C15.7216 20.2784 16.3859 19.9062 16.3658 19.8022C16.1938 19.5781 15.7616 19.8422 15.5216 19.7822C15.3375 19.5821 15.6616 19.4701 15.8257 19.3981C16.4939 19.114 17.7423 18.8059 18.3825 19.202C18.6986 19.3981 19.2588 20.3504 18.7226 20.2824C18.3665 20.2383 18.1544 19.6902 17.7583 19.7462L17.7543 19.7422Z" fill="black"/>
<path d="M15.8578 16.2452C16.1499 16.3012 16.538 16.3612 16.7861 16.5373C17.1302 16.7773 16.9782 16.8974 16.9141 17.2295C17.3463 17.3135 17.6864 17.1455 18.1145 17.3215C18.2906 17.3935 18.9668 17.8177 18.6107 17.9897C17.3463 17.2135 15.7177 18.1218 14.6774 18.902C14.4533 18.718 14.9255 18.3459 14.9055 18.2378C14.3133 17.6296 14.3613 16.5172 14.5294 15.741C14.7094 14.9127 15.5857 13.2241 16.602 14.1044C16.9662 14.4165 17.2182 14.9607 17.1022 15.4449C17.0182 15.801 16.8261 15.713 16.554 15.805C16.462 15.837 15.7177 16.0891 15.8538 16.2492L15.8578 16.2452Z" fill="black"/>
<path d="M12.0644 19.5941C10.9 20.8225 8.22315 20.0303 8.3712 18.1937C8.42321 17.5254 8.92338 17.0213 9.5716 16.9012C9.41955 16.4531 8.78333 16.269 8.35119 16.281C7.99507 16.293 7.62695 16.4891 7.34285 16.6892C7.31484 16.7092 7.04275 16.9973 7.02675 16.8812C7.12278 16.257 7.65496 15.5608 8.29917 15.4247C9.22748 15.2287 9.8837 15.6608 10.4039 16.3771C10.5479 16.5771 10.68 16.9052 10.808 17.0613C11.0001 17.2934 11.5242 17.5014 11.7163 17.7175C11.7803 17.7895 11.8684 17.9016 11.8283 17.9896C11.8043 18.0376 11.7403 18.0176 11.6803 18.0096C11.2562 17.9496 10.784 17.5935 10.2798 17.5534C9.90771 17.5254 9.23548 17.5935 9.17546 18.0456C8.9714 19.5461 11.2482 19.7542 12.2245 19.298" fill="black"/>
<path d="M11.7884 14.1723C12.1045 14.3244 11.8684 15.0326 11.5683 15.2407C11.0001 15.6368 10.56 14.9606 10.1678 14.6445C9.25953 13.9122 7.91908 12.9719 7.0788 14.3524C6.91075 14.0443 7.19484 13.5641 7.3709 13.3C8.05113 12.2797 9.41958 12.5118 10.1278 13.372C10.3559 13.6481 10.708 14.4444 10.9601 14.5764C11.0761 14.6365 11.3002 14.6765 11.4202 14.6245C11.5763 14.5524 11.5883 14.0763 11.7844 14.1723H11.7884Z" fill="black"/>
<path d="M13.7129 14.0764C13.937 13.036 14.6692 12.0197 15.6536 11.5515C17.4461 10.6992 18.5225 12.0797 18.5865 13.7763C18.3424 13.5842 18.2264 13.2841 18.0223 13.048C16.6499 11.4555 14.8733 12.7799 13.877 14.0324C13.8369 14.0804 13.7609 14.0964 13.7329 14.1404" fill="black"/>
<path d="M21.9678 19.9022C22.2839 19.8582 22.556 20.1543 22.676 20.4144C22.9601 21.0386 22.9321 22.4471 22.556 23.0352C22.3439 23.3674 21.9478 23.5434 21.6157 23.2593C21.0315 22.7592 21.0795 21.1386 21.3556 20.4864C21.4636 20.2343 21.6797 19.9382 21.9718 19.8982L21.9678 19.9022Z" fill="black"/>
<path d="M22.2119 13.6002C22.484 13.5362 22.672 13.6763 22.8201 13.8843C23.2762 14.5245 23.2922 16.6572 22.56 17.1134C22.0918 17.4055 21.7597 16.7693 21.6557 16.3932C21.4876 15.781 21.4876 14.4125 21.8758 13.8883C21.9358 13.8043 22.1118 13.6242 22.2079 13.6002H22.2119Z" fill="black"/>
<path d="M24.6124 21.2708C24.7765 21.2387 24.9005 21.2868 25.0165 21.3948C25.5927 21.919 25.5247 23.7716 25.2286 24.4358C24.9525 25.064 24.4684 25.092 24.1523 24.4758C23.7921 23.7796 23.8081 22.2831 24.2243 21.6149C24.3083 21.4828 24.4484 21.3028 24.6084 21.2708H24.6124Z" fill="black"/>
<path d="M24.8327 15.3807C25.4809 15.2687 25.717 16.3731 25.749 16.8452C25.781 17.2734 25.749 18.6938 25.1848 18.7899C24.4926 18.9019 24.2605 17.8576 24.2245 17.3534C24.1885 16.8932 24.2405 15.4808 24.8327 15.3807Z" fill="black"/>
<path d="M23.3201 17.4614C23.9683 17.3494 24.2044 18.4538 24.2364 18.9259C24.2684 19.3541 24.2364 20.7745 23.6722 20.8706C22.98 20.9826 22.7479 19.9382 22.7119 19.4341C22.6759 18.9739 22.7279 17.5615 23.3201 17.4614Z" fill="black"/>
<path d="M19.2788 8.53853C18.7506 8.56654 18.1864 8.50252 17.6623 8.53853C16.1458 8.64657 14.8053 9.19475 13.1888 9.0467C13.1127 9.0387 12.8567 9.00669 12.8527 8.91866L13.6209 7.33413C13.6529 7.30612 13.6889 7.30212 13.729 7.29812C14.1051 7.2501 14.8933 7.27811 15.2935 7.29812C16.6099 7.37014 18.1864 7.79028 19.2748 8.53453L19.2788 8.53853Z" fill="#FF0000"/>
<path d="M15.5336 2.68456C15.5576 3.33278 15.4055 3.97299 15.1295 4.55319C15.0854 4.64522 14.8894 4.92131 14.8854 4.96532C14.8774 5.02934 14.9894 5.05735 14.9934 5.17739C14.9934 5.4935 14.7413 5.84962 14.6213 6.11771C14.5693 6.23375 14.5053 6.54185 14.4492 6.59787C14.3412 6.7019 14.0091 6.6859 13.865 6.6859C13.821 6.64588 14.2212 5.92964 14.2852 5.85362C14.4372 5.66156 14.8134 5.54152 14.6573 5.23741C14.5693 5.1814 14.3852 5.32544 14.4092 5.21341C14.4492 4.99333 14.6973 4.62921 14.7893 4.39313C14.9854 3.89297 14.9974 3.3888 15.0334 2.85262C15.0614 2.76059 15.4296 2.66856 15.5376 2.68456H15.5336Z" fill="#FF0000"/>
</svg>
