<svg width="154" height="70" viewBox="0 0 154 70" fill="none" xmlns="http://www.w3.org/2000/svg">
<g opacity="0.9">
<rect x="125.508" y="25.008" width="27.2811" height="27.2811" rx="2.40715" fill="#FF0000" stroke="#FF0000" stroke-width="1.60477"/>
<rect x="65.8104" y="25.008" width="27.2811" height="27.2811" rx="2.40715" fill="#FF0000" stroke="#FF0000" stroke-width="1.60477"/>
<rect x="95.6591" y="25.008" width="27.2811" height="27.2811" rx="2.40715" fill="#FF0000" stroke="#FF0000" stroke-width="1.60477"/>
<path d="M77.7099 48.3498H73.73C73.4048 48.3498 73.1652 48.2813 73.0111 48.1444C72.8742 47.9903 72.8057 47.7507 72.8057 47.4254V30.7872C72.8057 30.462 72.8742 30.2309 73.0111 30.0939C73.1652 29.9399 73.4048 29.8629 73.73 29.8629H81.587C83.915 29.8629 85.5069 30.325 86.3628 31.2494C87.2187 32.1737 87.6466 33.3805 87.6466 34.8697V38.1563C87.6466 39.6455 87.2187 40.8523 86.3628 41.7767C85.5069 42.701 83.915 43.1632 81.587 43.1632H78.6342V47.4254C78.6342 47.7507 78.5572 47.9903 78.4031 48.1444C78.2662 48.2813 78.0351 48.3498 77.7099 48.3498ZM78.5829 34.6643V38.5414H80.8937C81.3901 38.5414 81.7154 38.4131 81.8694 38.1563C82.0235 37.8995 82.1005 37.6085 82.1005 37.2833V35.9225C82.1005 35.5972 82.0235 35.3062 81.8694 35.0495C81.7154 34.7927 81.3901 34.6643 80.8937 34.6643H78.5829Z" fill="black"/>
<path d="M113.066 48.3498H103.206C102.881 48.3498 102.641 48.2813 102.487 48.1444C102.35 47.9903 102.282 47.7507 102.282 47.4254V30.7872C102.282 30.462 102.35 30.2309 102.487 30.0939C102.641 29.9399 102.881 29.8629 103.206 29.8629H111.397C113.074 29.8629 114.316 30.1881 115.12 30.8385C115.925 31.4719 116.327 32.4562 116.327 33.7913V35.0238C116.327 35.7427 116.198 36.3333 115.942 36.7955C115.702 37.2405 115.325 37.5743 114.812 37.7968C115.907 37.8995 116.721 38.2761 117.251 38.9266C117.782 39.577 118.047 40.5271 118.047 41.7767V44.1389C118.047 45.5767 117.636 46.638 116.815 47.3227C116.01 48.0074 114.761 48.3498 113.066 48.3498ZM108.059 34.2278V37.0009H110.242C110.567 37.0009 110.806 36.9153 110.96 36.7441C111.132 36.5729 111.217 36.3162 111.217 35.9738V35.2549C111.217 34.9125 111.132 34.6558 110.96 34.4846C110.806 34.3134 110.567 34.2278 110.242 34.2278H108.059ZM108.059 40.955V43.9848H111.397C111.722 43.9848 111.962 43.8992 112.116 43.7281C112.287 43.5569 112.373 43.3001 112.373 42.9578V41.9564C112.373 41.614 112.287 41.3658 112.116 41.2118C111.962 41.0406 111.722 40.955 111.397 40.955H108.059Z" fill="black"/>
<path d="M146.573 48.3498H138.485C136.345 48.3498 134.753 47.9218 133.709 47.066C132.682 46.2101 132.168 44.892 132.168 43.1118V35.1008C132.168 33.3206 132.682 32.0025 133.709 31.1467C134.753 30.2908 136.345 29.8629 138.485 29.8629H144.904C145.229 29.8629 145.46 29.9399 145.597 30.0939C145.751 30.2309 145.828 30.462 145.828 30.7872V33.894C145.828 34.2193 145.751 34.4589 145.597 34.613C145.46 34.7499 145.229 34.8184 144.904 34.8184H139.563C139.033 34.8184 138.639 34.9296 138.382 35.1522C138.125 35.3576 137.997 35.6743 137.997 36.1022V42.2388C137.997 42.6668 138.091 42.9834 138.279 43.1888C138.485 43.3943 138.784 43.497 139.178 43.497H141.669V39.4915C141.669 39.1662 141.737 38.9351 141.874 38.7982C142.028 38.6441 142.268 38.5671 142.593 38.5671H146.573C146.898 38.5671 147.129 38.6441 147.266 38.7982C147.42 38.9351 147.497 39.1662 147.497 39.4915V47.4254C147.497 47.7507 147.42 47.9903 147.266 48.1444C147.129 48.2813 146.898 48.3498 146.573 48.3498Z" fill="black"/>
<path d="M78.0479 62.514H77.0529C76.9716 62.514 76.9117 62.4969 76.8732 62.4626C76.839 62.4241 76.8218 62.3642 76.8218 62.2829V58.1233C76.8218 58.042 76.839 57.9843 76.8732 57.95C76.9117 57.9115 76.9716 57.8922 77.0529 57.8922H79.0172C79.5992 57.8922 79.9971 58.0078 80.2111 58.2389C80.4251 58.47 80.5321 58.7717 80.5321 59.144V59.9656C80.5321 60.3379 80.4251 60.6396 80.2111 60.8707C79.9971 61.1018 79.5992 61.2173 79.0172 61.2173H78.279V62.2829C78.279 62.3642 78.2597 62.4241 78.2212 62.4626C78.187 62.4969 78.1292 62.514 78.0479 62.514ZM78.2661 59.0926V60.0619H78.8438C78.968 60.0619 79.0493 60.0298 79.0878 59.9656C79.1263 59.9014 79.1455 59.8287 79.1455 59.7474V59.4071C79.1455 59.3258 79.1263 59.2531 79.0878 59.1889C79.0493 59.1247 78.968 59.0926 78.8438 59.0926H78.2661ZM81.6467 62.514C81.5654 62.514 81.5055 62.4969 81.4669 62.4626C81.4327 62.4241 81.4156 62.3642 81.4156 62.2829V61.519C81.4156 61.4377 81.4327 61.3799 81.4669 61.3457C81.5055 61.3072 81.5654 61.2879 81.6467 61.2879H82.2822V59.1311H81.6467C81.5654 59.1311 81.5055 59.114 81.4669 59.0798C81.4327 59.0413 81.4156 58.9813 81.4156 58.9V58.1233C81.4156 58.042 81.4327 57.9843 81.4669 57.95C81.5055 57.9115 81.5654 57.8922 81.6467 57.8922H84.3812C84.4625 57.8922 84.5203 57.9115 84.5545 57.95C84.593 57.9843 84.6123 58.042 84.6123 58.1233V58.9C84.6123 58.9813 84.593 59.0413 84.5545 59.0798C84.5203 59.114 84.4625 59.1311 84.3812 59.1311H83.7586V61.2879H84.3812C84.4625 61.2879 84.5203 61.3072 84.5545 61.3457C84.593 61.3799 84.6123 61.4377 84.6123 61.519V62.2829C84.6123 62.3642 84.593 62.4241 84.5545 62.4626C84.5203 62.4969 84.4625 62.514 84.3812 62.514H81.6467ZM86.9197 62.514H85.9569C85.8756 62.514 85.8157 62.4969 85.7772 62.4626C85.7429 62.4241 85.7258 62.3642 85.7258 62.2829V58.1233C85.7258 58.042 85.7429 57.9843 85.7772 57.95C85.8157 57.9115 85.8756 57.8922 85.9569 57.8922H86.6245C86.7058 57.8922 86.7742 57.9051 86.8299 57.9308C86.8898 57.9564 86.9476 58.0014 87.0032 58.0656L88.2485 59.4906V58.1233C88.2485 58.042 88.2656 57.9843 88.2998 57.95C88.3384 57.9115 88.3983 57.8922 88.4796 57.8922H89.4424C89.5238 57.8922 89.5815 57.9115 89.6158 57.95C89.6543 57.9843 89.6735 58.042 89.6735 58.1233V62.2829C89.6735 62.3642 89.6543 62.4241 89.6158 62.4626C89.5815 62.4969 89.5238 62.514 89.4424 62.514H88.4796C88.3983 62.514 88.3384 62.4969 88.2998 62.4626C88.2656 62.4241 88.2485 62.3642 88.2485 62.2829V61.4933L87.1508 60.1646V62.2829C87.1508 62.3642 87.1316 62.4241 87.0931 62.4626C87.0588 62.4969 87.0011 62.514 86.9197 62.514ZM94.7955 61.3008C94.7955 61.4976 94.7655 61.6774 94.7056 61.84C94.65 61.9983 94.5473 62.1353 94.3975 62.2508C94.252 62.3621 94.0487 62.4498 93.7877 62.514C93.5309 62.5782 93.2036 62.6103 92.8056 62.6103C92.4076 62.6103 92.0781 62.5782 91.817 62.514C91.556 62.4498 91.3506 62.3621 91.2008 62.2508C91.0553 62.1353 90.9526 61.9983 90.8927 61.84C90.8371 61.6774 90.8093 61.4976 90.8093 61.3008V59.1119C90.8093 58.915 90.8371 58.7374 90.8927 58.5791C90.9526 58.4165 91.0553 58.2774 91.2008 58.1618C91.3506 58.0463 91.556 57.9564 91.817 57.8922C92.0781 57.8281 92.4076 57.796 92.8056 57.796C93.2036 57.796 93.5309 57.8281 93.7877 57.8922C94.0487 57.9564 94.252 58.0463 94.3975 58.1618C94.5473 58.2774 94.65 58.4165 94.7056 58.5791C94.7655 58.7374 94.7955 58.915 94.7955 59.1119V61.3008ZM92.2664 61.0697C92.2664 61.1553 92.2985 61.228 92.3627 61.2879C92.4269 61.3436 92.5745 61.3714 92.8056 61.3714C93.0367 61.3714 93.1843 61.3436 93.2485 61.2879C93.3127 61.228 93.3448 61.1553 93.3448 61.0697V59.343C93.3448 59.2616 93.3127 59.1932 93.2485 59.1375C93.1843 59.0776 93.0367 59.0477 92.8056 59.0477C92.5745 59.0477 92.4269 59.0776 92.3627 59.1375C92.2985 59.1932 92.2664 59.2616 92.2664 59.343V61.0697ZM98.2766 62.514H97.2367C97.1554 62.514 97.0955 62.4969 97.057 62.4626C97.0227 62.4241 97.0056 62.3642 97.0056 62.2829V61.4612L96.0235 60.1453C95.9251 60.0127 95.8587 59.8971 95.8245 59.7987C95.7946 59.7003 95.7796 59.5526 95.7796 59.3558V58.1233C95.7796 58.042 95.7967 57.9843 95.8309 57.95C95.8694 57.9115 95.9294 57.8922 96.0107 57.8922H96.9992C97.0805 57.8922 97.1383 57.9115 97.1725 57.95C97.211 57.9843 97.2303 58.042 97.2303 58.1233V59.1761C97.2303 59.2189 97.2324 59.2638 97.2367 59.3109C97.241 59.3579 97.2581 59.4029 97.2881 59.4457L97.5833 59.9078C97.6047 59.9463 97.6261 59.9742 97.6475 59.9913C97.6732 60.0084 97.7032 60.017 97.7374 60.017H97.8016C97.8358 60.017 97.8636 60.0084 97.885 59.9913C97.9107 59.9742 97.9342 59.9463 97.9556 59.9078L98.2509 59.4457C98.2809 59.4029 98.298 59.3579 98.3023 59.3109C98.3065 59.2638 98.3087 59.2189 98.3087 59.1761V58.1233C98.3087 58.042 98.3258 57.9843 98.36 57.95C98.3986 57.9115 98.4585 57.8922 98.5398 57.8922H99.4962C99.5775 57.8922 99.6353 57.9115 99.6695 57.95C99.708 57.9843 99.7273 58.042 99.7273 58.1233V59.3558C99.7273 59.5526 99.7102 59.7003 99.676 59.7987C99.6417 59.8971 99.5775 60.0127 99.4834 60.1453L98.5077 61.4677V62.2829C98.5077 62.3642 98.4884 62.4241 98.4499 62.4626C98.4157 62.4969 98.3579 62.514 98.2766 62.514ZM105.177 62.514H102.712C102.63 62.514 102.57 62.4969 102.532 62.4626C102.498 62.4241 102.481 62.3642 102.481 62.2829V58.1233C102.481 58.042 102.498 57.9843 102.532 57.95C102.57 57.9115 102.63 57.8922 102.712 57.8922H104.759C105.179 57.8922 105.489 57.9736 105.69 58.1362C105.891 58.2945 105.992 58.5406 105.992 58.8744V59.1825C105.992 59.3622 105.96 59.5099 105.896 59.6254C105.836 59.7367 105.741 59.8201 105.613 59.8757C105.887 59.9014 106.09 59.9956 106.223 60.1582C106.356 60.3208 106.422 60.5583 106.422 60.8707V61.4612C106.422 61.8207 106.319 62.086 106.114 62.2572C105.913 62.4284 105.6 62.514 105.177 62.514ZM103.925 58.9835V59.6767H104.47C104.552 59.6767 104.612 59.6553 104.65 59.6126C104.693 59.5698 104.714 59.5056 104.714 59.42V59.2402C104.714 59.1547 104.693 59.0905 104.65 59.0477C104.612 59.0049 104.552 58.9835 104.47 58.9835H103.925ZM103.925 60.6653V61.4227H104.759C104.841 61.4227 104.901 61.4013 104.939 61.3585C104.982 61.3157 105.003 61.2516 105.003 61.166V60.9156C105.003 60.83 104.982 60.768 104.939 60.7295C104.901 60.6867 104.841 60.6653 104.759 60.6653H103.925ZM110.662 62.514H107.684C107.603 62.514 107.543 62.4969 107.504 62.4626C107.47 62.4241 107.453 62.3642 107.453 62.2829V58.1233C107.453 58.042 107.47 57.9843 107.504 57.95C107.543 57.9115 107.603 57.8922 107.684 57.8922H110.662C110.744 57.8922 110.801 57.9115 110.836 57.95C110.874 57.9843 110.893 58.042 110.893 58.1233V58.8744C110.893 58.9557 110.874 59.0156 110.836 59.0541C110.801 59.0883 110.744 59.1054 110.662 59.1054H108.891V59.5997H110.142C110.224 59.5997 110.282 59.619 110.316 59.6575C110.354 59.6917 110.374 59.7495 110.374 59.8308V60.5176C110.374 60.599 110.354 60.6589 110.316 60.6974C110.282 60.7316 110.224 60.7487 110.142 60.7487H108.891V61.3008H110.662C110.744 61.3008 110.801 61.32 110.836 61.3585C110.874 61.3928 110.893 61.4506 110.893 61.5319V62.2829C110.893 62.3642 110.874 62.4241 110.836 62.4626C110.801 62.4969 110.744 62.514 110.662 62.514ZM114.156 62.514H113.116C113.035 62.514 112.975 62.4969 112.937 62.4626C112.902 62.4241 112.885 62.3642 112.885 62.2829V59.1311H111.942C111.86 59.1311 111.8 59.114 111.762 59.0798C111.728 59.0413 111.711 58.9813 111.711 58.9V58.1233C111.711 58.042 111.728 57.9843 111.762 57.95C111.8 57.9115 111.86 57.8922 111.942 57.8922H115.331C115.412 57.8922 115.47 57.9115 115.504 57.95C115.543 57.9843 115.562 58.042 115.562 58.1233V58.9C115.562 58.9813 115.543 59.0413 115.504 59.0798C115.47 59.114 115.412 59.1311 115.331 59.1311H114.387V62.2829C114.387 62.3642 114.368 62.4241 114.33 62.4626C114.295 62.4969 114.238 62.514 114.156 62.514ZM121.738 62.514H119.716C119.181 62.514 118.783 62.407 118.522 62.193C118.265 61.9791 118.137 61.6495 118.137 61.2045V59.2017C118.137 58.7567 118.265 58.4272 118.522 58.2132C118.783 57.9992 119.181 57.8922 119.716 57.8922H121.321C121.402 57.8922 121.46 57.9115 121.494 57.95C121.532 57.9843 121.552 58.042 121.552 58.1233V58.9C121.552 58.9813 121.532 59.0413 121.494 59.0798C121.46 59.114 121.402 59.1311 121.321 59.1311H119.985C119.853 59.1311 119.754 59.1589 119.69 59.2146C119.626 59.2659 119.594 59.3451 119.594 59.4521V60.9862C119.594 61.0932 119.617 61.1724 119.664 61.2237C119.716 61.2751 119.791 61.3008 119.889 61.3008H120.512V60.2994C120.512 60.2181 120.529 60.1603 120.563 60.1261C120.602 60.0876 120.662 60.0683 120.743 60.0683H121.738C121.819 60.0683 121.877 60.0876 121.911 60.1261C121.95 60.1603 121.969 60.2181 121.969 60.2994V62.2829C121.969 62.3642 121.95 62.4241 121.911 62.4626C121.877 62.4969 121.819 62.514 121.738 62.514ZM124.748 59.2402L124.447 60.2159H125.455L125.153 59.2402C125.136 59.2017 125.116 59.1739 125.095 59.1568C125.078 59.1397 125.057 59.1311 125.031 59.1311H124.87C124.845 59.1311 124.821 59.1397 124.8 59.1568C124.783 59.1739 124.766 59.2017 124.748 59.2402ZM124.383 62.2829C124.383 62.3642 124.363 62.4241 124.325 62.4626C124.291 62.4969 124.233 62.514 124.151 62.514H123.208C123.127 62.514 123.067 62.4969 123.028 62.4626C122.994 62.4241 122.977 62.3642 122.977 62.2829V60.5883C122.977 60.4599 122.996 60.3122 123.035 60.1453C123.077 59.9784 123.141 59.7837 123.227 59.5612L123.786 58.1041C123.811 58.0313 123.85 57.9778 123.901 57.9436C123.957 57.9094 124.027 57.8922 124.113 57.8922H125.84C125.921 57.8922 125.987 57.9094 126.039 57.9436C126.094 57.9778 126.135 58.0313 126.161 58.1041L126.719 59.5612C126.805 59.7837 126.867 59.9784 126.905 60.1453C126.948 60.3122 126.969 60.4599 126.969 60.5883V62.2829C126.969 62.3642 126.95 62.4241 126.912 62.4626C126.877 62.4969 126.82 62.514 126.738 62.514H125.769C125.683 62.514 125.619 62.4969 125.576 62.4626C125.538 62.4241 125.519 62.3642 125.519 62.2829V61.3842H124.383V62.2829ZM129.27 62.514H128.314C128.233 62.514 128.173 62.4969 128.134 62.4626C128.1 62.4241 128.083 62.3642 128.083 62.2829V58.1233C128.083 58.042 128.1 57.9843 128.134 57.95C128.173 57.9115 128.233 57.8922 128.314 57.8922H129.347C129.416 57.8922 129.472 57.9072 129.514 57.9372C129.561 57.9671 129.604 58.0163 129.643 58.0848L130.22 59.1311C130.242 59.1696 130.259 59.1975 130.272 59.2146C130.289 59.2317 130.31 59.2402 130.336 59.2402H130.394C130.419 59.2402 130.439 59.2317 130.452 59.2146C130.469 59.1975 130.488 59.1696 130.509 59.1311L131.081 58.0848C131.119 58.0163 131.16 57.9671 131.203 57.9372C131.25 57.9072 131.307 57.8922 131.376 57.8922H132.416C132.497 57.8922 132.555 57.9115 132.589 57.95C132.628 57.9843 132.647 58.042 132.647 58.1233V62.2829C132.647 62.3642 132.628 62.4241 132.589 62.4626C132.555 62.4969 132.497 62.514 132.416 62.514H131.427C131.346 62.514 131.286 62.4969 131.248 62.4626C131.213 62.4241 131.196 62.3642 131.196 62.2829V60.0234L130.817 60.7231C130.779 60.7958 130.732 60.8493 130.676 60.8835C130.625 60.9135 130.559 60.9285 130.477 60.9285H130.22C130.139 60.9285 130.071 60.9135 130.015 60.8835C129.964 60.8493 129.919 60.7958 129.88 60.7231L129.502 60.0234V62.2829C129.502 62.3642 129.482 62.4241 129.444 62.4626C129.41 62.4969 129.352 62.514 129.27 62.514ZM137.061 62.514H134.082C134.001 62.514 133.941 62.4969 133.903 62.4626C133.868 62.4241 133.851 62.3642 133.851 62.2829V58.1233C133.851 58.042 133.868 57.9843 133.903 57.95C133.941 57.9115 134.001 57.8922 134.082 57.8922H137.061C137.142 57.8922 137.2 57.9115 137.234 57.95C137.273 57.9843 137.292 58.042 137.292 58.1233V58.8744C137.292 58.9557 137.273 59.0156 137.234 59.0541C137.2 59.0883 137.142 59.1054 137.061 59.1054H135.289V59.5997H136.541C136.622 59.5997 136.68 59.619 136.714 59.6575C136.753 59.6917 136.772 59.7495 136.772 59.8308V60.5176C136.772 60.599 136.753 60.6589 136.714 60.6974C136.68 60.7316 136.622 60.7487 136.541 60.7487H135.289V61.3008H137.061C137.142 61.3008 137.2 61.32 137.234 61.3585C137.273 61.3928 137.292 61.4506 137.292 61.5319V62.2829C137.292 62.3642 137.273 62.4241 137.234 62.4626C137.2 62.4969 137.142 62.514 137.061 62.514ZM140.516 62.514H138.488C138.406 62.514 138.347 62.4969 138.308 62.4626C138.274 62.4241 138.257 62.3642 138.257 62.2829V61.5319C138.257 61.4506 138.274 61.3928 138.308 61.3585C138.347 61.32 138.406 61.3008 138.488 61.3008H140.215C140.27 61.3008 140.311 61.2837 140.336 61.2494C140.366 61.2109 140.381 61.166 140.381 61.1146C140.381 61.0419 140.366 60.9884 140.336 60.9541C140.311 60.9199 140.27 60.9006 140.215 60.8964L139.252 60.7616C138.952 60.7188 138.71 60.6204 138.526 60.4663C138.347 60.3122 138.257 60.0555 138.257 59.696V59.022C138.257 58.6583 138.374 58.3801 138.61 58.1875C138.845 57.9907 139.17 57.8922 139.585 57.8922H141.383C141.464 57.8922 141.522 57.9115 141.556 57.95C141.595 57.9843 141.614 58.042 141.614 58.1233V58.8872C141.614 58.9685 141.595 59.0284 141.556 59.0669C141.522 59.1012 141.464 59.1183 141.383 59.1183H139.887C139.832 59.1183 139.789 59.1375 139.759 59.1761C139.729 59.2103 139.714 59.2552 139.714 59.3109C139.714 59.3665 139.729 59.4136 139.759 59.4521C139.789 59.4906 139.832 59.512 139.887 59.5163L140.844 59.6447C141.143 59.6874 141.385 59.7859 141.569 59.9399C141.753 60.094 141.845 60.3507 141.845 60.7102V61.3842C141.845 61.748 141.725 62.0283 141.485 62.2251C141.25 62.4177 140.927 62.514 140.516 62.514Z" fill="#F8F8F8"/>
<path d="M24.4704 70C18.6258 70 14.4374 68.0165 9.14163 65.5034C9.14163 65.5034 8.14025 65.0316 7.67808 64.8198C6.26267 64.1651 4.79913 63.4814 3.47038 62.7593C1.19803 61.5172 0.0329638 59.5722 0.00407794 56.9629C-0.0633223 50.3191 0.716595 43.3673 1.46763 36.6465L1.76611 33.9794C1.84314 33.2476 1.90091 32.4388 1.96831 31.6107C2.10312 29.762 2.24754 27.8459 2.62306 26.2476C3.46075 22.7428 6.48413 22.1169 8.73723 21.9147C7.47588 19.1513 7.62031 15.5887 10.3452 13.3645C11.2599 12.6135 12.2324 12.238 13.2242 12.238C15.2751 12.238 16.6519 13.7882 17.7592 15.0303C18.077 15.3865 18.3947 15.7524 18.6836 16.0124C19.8968 13.4512 21.1004 10.8226 21.9958 8.20358L22.0343 8.07841C22.2173 7.5392 22.3906 7.02889 22.4965 6.54746C22.5735 6.16231 22.6121 5.75791 22.6602 5.32462C22.8046 3.76479 23.0453 1.15543 26.425 0.365887C27.4552 0.125172 28.5722 0 29.7565 0C36.1499 0 43.3232 3.40853 47.5213 6.33563C48.5804 7.0674 52.1045 9.66713 53.1925 12.2091C54.0976 14.3177 53.077 15.7139 52.4608 16.5516C52.3741 16.6671 52.2874 16.7923 52.2008 16.9175C52.0467 17.1389 51.883 17.37 51.7193 17.6107C51.3438 18.1403 50.9587 18.6891 50.7083 19.1513C50.5928 19.3824 50.4291 19.7001 50.2847 19.9986C50.2943 19.9986 50.3136 20.0179 50.3232 20.0275C50.6891 20.2586 51.055 20.4897 51.3246 20.6919C56.11 24.3989 56.3411 28.2022 55.6478 30.7923C56.2737 31.3026 56.9381 31.9574 57.3521 32.9684C57.9298 34.403 57.7565 36.1073 57.6024 37.619C57.5639 38.0426 57.5158 38.447 57.5061 38.8129C57.4195 40.8735 57.3617 42.9532 57.3039 45.0426C57.1595 50.0014 57.0151 55.1238 56.5433 60.0922L56.4855 60.6988C56.2833 63.0193 55.9559 66.9092 51.3246 67.2944C49.1389 67.4773 46.8473 67.4869 44.6327 67.4966C43.2269 67.4966 41.7634 67.5062 40.3865 67.564C39.9147 67.5832 39.4236 67.5928 38.9229 67.6025C37.209 67.641 35.2737 67.6795 33.8679 68.0647C33.1843 68.2572 32.5584 68.4691 31.9037 68.7001C30.5942 69.1527 29.2462 69.6245 27.4745 69.8171C26.4539 69.9326 25.4429 69.9904 24.4704 69.9904V70ZM40.348 57.3673C40.9546 57.608 41.5997 57.8102 42.2929 58.022C42.8803 58.205 43.4676 58.3879 44.0357 58.5901C45.066 58.9656 46.0866 59.3796 47.1169 59.784C48.3397 60.2751 49.6011 60.7854 50.8239 61.1995C50.8817 61.2187 50.9298 61.238 50.9876 61.2572C51.2187 59.8033 51.3727 57.1458 51.4305 56.1348L51.4786 55.326C51.8734 49.0289 52.0563 42.5007 52.1815 36.945C52.1815 36.6754 52.1815 36.3962 52.1815 36.1265C52.1815 35.7607 52.1815 35.3851 52.1912 35C51.5653 34.4127 50.5832 33.7098 49.784 33.132C49.4663 32.9106 49.1774 32.6891 48.9078 32.4966L47.6368 31.5433C45.9614 30.2916 44.132 28.9147 42.3796 27.7015C42.3122 28.4525 42.2448 29.2325 42.1967 30.022C42.033 32.4869 41.9271 35.0096 41.8211 37.4553C41.7056 40.0647 41.59 42.7703 41.4071 45.4278C41.2819 47.2476 41.0797 49.1155 40.8775 50.9257C40.6464 53.0536 40.4057 55.249 40.2998 57.3288C40.3191 57.3288 40.3383 57.348 40.3576 57.348L40.348 57.3673ZM12.2132 56.7125C12.4154 56.7125 12.7138 56.7607 12.9064 56.8184C13.4938 57.0014 13.7537 57.3384 14.3989 58.1472C14.5625 58.3494 14.7166 58.5516 14.8033 58.6575C16.2861 60.1692 18.5777 61.0454 21.0619 61.0454C22.9683 61.0454 24.7978 60.5158 26.2132 59.5433C26.3576 59.447 26.5694 59.2448 26.7812 59.0426C27.436 58.4168 28.3411 57.5695 29.6024 57.4347C30.2475 57.3673 30.9312 57.3576 31.5859 57.3576C34.4552 57.3288 34.9367 57.0688 35.1004 56.2022C35.447 54.4498 35.5529 52.2256 35.6492 50.0688C35.6877 49.1541 35.7359 48.2682 35.7936 47.4498C36.0055 44.4649 36.1884 41.4704 36.3617 38.4759C36.5158 35.8666 36.6698 33.2669 36.8431 30.6575C36.9009 29.8294 36.9972 28.9629 37.0839 28.0963C37.1994 27.0371 37.3246 25.9298 37.3535 24.9477C36.9394 24.8707 36.4291 24.8322 35.8321 24.8322C34.5323 24.8322 33.011 25.0151 31.663 25.1692C30.883 25.2558 30.1416 25.3425 29.4869 25.4003C25.1925 25.7373 21.1389 26.1802 16.8541 26.652L16.3342 26.7098C15.2462 26.8253 14.0907 26.912 12.9738 26.989C11.2599 27.1045 9.48826 27.2297 7.97657 27.4897C7.83214 28.1059 7.69734 29.2036 7.6492 29.608L7.58179 30.099C6.77299 35.9436 6.16639 41.9422 5.83902 47.4305L5.75236 48.7689C5.58867 51.359 5.3961 54.2861 5.56942 56.7221C5.5983 57.0592 5.68496 57.8294 5.97382 57.945H10.2682C10.5667 57.2132 11.2984 56.7029 12.1746 56.7029L12.2132 56.7125ZM24.2104 17.4759C25.2118 17.4278 26.1939 17.2737 27.1953 17.0908C27.1568 17.0908 27.1182 17.0908 27.0797 17.0908C26.5309 17.0619 25.6547 17.0234 24.8652 17.0234C24.7015 17.0234 24.557 17.0234 24.4319 17.0234L24.2104 17.4759Z" fill="white"/>
<path d="M40.2329 23.1279L54.2907 33.7387L54.5699 34.4319L53.4337 59.6204L52.7886 63.2311L52.2205 63.8377H51.5754L37.6428 58.9367V58.205L38.856 45.8514L39.6648 29.1266L40.2329 23.1279Z" fill="#F8F8F8"/>
<path d="M35.2834 21.2118C35.6396 21.3081 39.4044 21.1252 39.6548 21.3755C40.0399 21.751 42.7841 23.6864 43.304 24.0908C45.9037 26.1032 48.8694 27.7978 51.6328 30.1183C51.8638 30.3109 53.3081 31.1582 53.3948 31.4663C54.1843 32.1596 55.1376 32.6603 55.5516 33.6905C56.0908 35.0482 55.6286 37.2531 55.5709 38.7455C55.2916 45.7455 55.2724 52.9574 54.608 59.9188C54.3673 62.4897 54.4251 65.1183 51.1513 65.3879C47.6561 65.6768 43.8432 65.5131 40.2999 65.6479C38.1238 65.7345 35.4182 65.6479 33.3384 66.216C31.2586 66.784 29.6218 67.6506 27.2435 67.9106C20.282 68.6809 15.8528 66.553 9.85422 63.7125C8.07293 62.8652 6.07981 61.989 4.37555 61.055C2.67128 60.1211 1.93951 58.8693 1.92025 56.934C1.84322 49.5296 2.86385 41.5667 3.67266 34.1912C3.923 31.9092 3.97114 28.8473 4.49109 26.6905C5.29989 23.3012 9.04542 24.0426 11.6837 23.5612C11.8762 23.5227 12.011 23.3398 11.9244 23.1472M5.82947 59.8707H12.348C12.5117 59.4182 12.2132 59.11 12.0881 58.6864C12.0881 58.6094 12.271 58.6286 12.3095 58.6382C12.3962 58.6671 13.205 59.7648 13.4072 59.967C16.8927 63.5103 23.2284 63.9147 27.3013 61.1224C28.0812 60.5832 28.89 59.4278 29.8047 59.3315C32.4141 59.0619 36.3329 59.9381 36.9973 56.5488C37.5172 53.8817 37.5268 50.348 37.7194 47.5653C38.1142 41.9711 38.3934 36.3673 38.7689 30.7634C38.9037 28.8088 39.2504 26.6424 39.2985 24.7263C39.3178 23.7442 39.2407 23.4168 38.249 23.1472C35.8515 22.4924 31.9134 23.2531 29.3618 23.4553C24.8556 23.8019 20.6286 24.2737 16.1513 24.7648C13.4457 25.0633 10.3068 25.1018 7.67816 25.564C7.30264 25.6314 6.74418 25.8336 6.48421 26.1224C6.05092 26.6135 5.81984 29.0399 5.71392 29.8102C4.92438 35.5103 4.29852 41.5571 3.95189 47.2957C3.76894 50.2999 3.47046 53.8432 3.68229 56.8377C3.77857 58.2242 4.26 59.6589 5.82947 59.8514V59.8707ZM40.791 24.5241C40.5502 26.3054 40.3865 28.1059 40.2614 29.9065C39.9244 35.0289 39.8281 40.1802 39.4718 45.3026C39.1926 49.3852 38.4993 53.6891 38.3357 57.7332C38.2875 58.8212 38.7208 58.7923 39.6259 59.1582C40.8391 59.6492 42.139 59.9574 43.3714 60.4003C45.6438 61.2283 47.9161 62.249 50.1885 63.0289C51.0647 63.3274 52.0853 63.9629 52.5475 62.8556C53.1059 61.5461 53.2793 57.1073 53.3755 55.4608C53.7607 49.4044 53.9436 43.0688 54.0784 37.0028C54.0977 36.1651 54.0592 35.337 54.1266 34.4993C54.0592 34.1623 53.8666 33.989 53.6355 33.7579C52.7497 32.8625 51.0936 31.7552 50.044 30.9656C47.3962 28.9918 44.2958 26.6039 41.542 24.8611C41.3109 24.7167 41.0702 24.5145 40.7813 24.5337L40.791 24.5241Z" fill="black"/>
<path d="M5.82956 59.8705C4.2601 59.678 3.77867 58.2337 3.68238 56.8568C3.47055 53.8719 3.76904 50.319 3.95198 47.3148C4.29861 41.5762 4.92447 35.5294 5.71402 29.8293C5.81993 29.059 6.05102 26.6326 6.4843 26.1415C6.74428 25.8527 7.30274 25.6505 7.67825 25.5831C10.3069 25.1209 13.4458 25.0824 16.1514 24.7839C20.6287 24.2928 24.8653 23.821 29.3619 23.4744C31.9135 23.2818 35.8419 22.5115 38.2491 23.1663C39.2408 23.4359 39.3179 23.7632 39.2986 24.7454C39.2601 26.6615 38.9038 28.8279 38.769 30.7825C38.3839 36.3767 38.1143 41.9902 37.7195 47.5844C37.5173 50.3671 37.5173 53.9008 36.9974 56.5679C36.333 59.9572 32.4142 59.081 29.8048 59.3506C28.8901 59.4469 28.0813 60.6023 27.3014 61.1415C23.2285 63.9338 16.8832 63.5294 13.4073 59.9861C13.2051 59.7743 12.3866 58.6766 12.3096 58.6573C12.2711 58.6477 12.0785 58.6284 12.0882 58.7055C12.1556 59.1388 12.5118 59.4373 12.3481 59.8898H5.82956V59.8705ZM35.1005 30.7344C34.9465 26.6518 32.3564 23.33 28.0428 25.3809C25.6741 26.5074 23.9121 28.9531 23.3729 31.4565C23.3729 31.495 22.9685 31.8417 23.1129 32.1305C23.4114 32.1883 23.3055 31.7839 23.421 31.6106C23.4884 31.5047 23.681 31.4661 23.7677 31.3506C26.1556 28.3368 30.4307 25.1498 33.7429 28.982C34.234 29.55 34.5036 30.2626 35.1005 30.7344ZM18.7415 31.6972C18.2312 31.8128 18.2408 32.6216 17.8653 32.7853C17.5765 32.9201 17.0373 32.8141 16.758 32.6697C16.1514 32.352 15.3041 30.4359 14.7553 29.7715C13.0414 27.7013 9.75803 27.1429 8.12117 29.5982C7.69751 30.2337 7.01388 31.3891 7.41828 32.1305C9.44029 28.8086 12.6659 31.0714 14.8516 32.8334C15.7952 33.5941 16.8447 35.2213 18.2216 34.2681C18.9437 33.7577 19.1267 32.4579 18.7512 31.6972H18.7415ZM28.5338 36.6848C28.2064 36.2901 29.9974 35.6835 30.2188 35.6161C30.8736 35.3946 31.3357 35.6064 31.5379 34.7495C31.8172 33.5844 31.2009 32.2846 30.3344 31.5239C27.8887 29.4056 25.78 33.4689 25.3468 35.462C24.9423 37.33 24.8172 40.0067 26.2518 41.4703C26.3 41.7399 25.1638 42.6353 25.703 43.0686C28.2064 41.191 32.1253 38.9957 35.1679 40.8733C36.0153 40.4593 34.388 39.4386 33.974 39.2653C32.9437 38.8417 32.1253 39.2461 31.0854 39.0439C31.2395 38.2447 31.6053 37.9558 30.7773 37.3781C30.1803 36.9641 29.2463 36.81 28.5434 36.6752L28.5338 36.6848ZM18.8282 40.8829C18.7126 40.6807 18.7126 40.4015 18.5586 40.2282C18.0964 39.7179 16.8351 39.2075 16.3729 38.6491C16.0648 38.2736 15.747 37.484 15.4004 37.0026C14.1487 35.2694 12.5696 34.2392 10.3357 34.711C8.78554 35.0384 7.50494 36.7137 7.27385 38.2158C7.31237 38.495 7.96711 37.8018 8.03451 37.7536C8.71814 37.2722 9.6136 36.8004 10.4609 36.7715C11.5008 36.7426 13.0318 37.1855 13.3976 38.2639C11.8378 38.5528 10.6342 39.766 10.5091 41.374C10.1528 45.8031 16.5943 47.7096 19.3963 44.744C19.5503 44.5803 19.4348 44.33 19.7622 44.3781L19.7814 44.0411C17.4224 45.1388 11.9437 44.6381 12.4444 41.0273C12.5888 39.9393 14.2161 39.766 15.1019 39.843C16.3151 39.9393 17.4513 40.7963 18.4719 40.9407C18.6164 40.9599 18.6934 40.9118 18.8282 40.8925V40.8829ZM33.0978 45.1003C34.051 44.9655 34.7828 45.8031 35.4183 46.3905C36.5641 45.7743 35.3605 44.2626 34.5998 43.7908C33.0593 42.8279 30.0551 43.5693 28.4472 44.2626C28.062 44.4262 27.2725 44.6958 27.7154 45.1869C28.2931 45.3313 29.3426 44.7055 29.747 45.2351C29.7855 45.495 28.1968 46.3905 27.9176 46.5349C23.6521 48.8458 17.7113 50.3478 12.974 48.788C11.6452 48.3451 9.32474 47.0356 9.05514 45.5335C8.83369 44.3011 10.3839 45.7069 10.2876 44.7344C9.7484 44.6092 9.18994 44.0315 8.67 43.9833C8.333 43.9544 7.31237 44.5707 7.09091 44.8692C6.74428 45.3313 6.49393 46.4483 7.00425 46.8334C7.01388 46.5734 7.25459 45.8031 7.62048 45.9957C7.83231 46.1113 8.66037 47.4111 8.90109 47.7C9.6136 48.5762 10.4417 49.3754 11.5393 49.7412C12.6081 53.4483 14.0042 57.7908 17.7979 59.5335C21.3124 61.1511 25.8186 58.6862 28.1776 56.0576C30.9121 53.015 31.8557 48.8843 33.0882 45.0906L33.0978 45.1003Z" fill="#F8F8F8"/>
<path d="M50.1401 22.2132C49.6201 21.8088 48.6573 21.3081 48.2721 20.9326C48.0218 20.6822 47.9929 20.586 48.0892 20.2297C48.1951 19.8542 48.7824 18.6506 48.9943 18.2462C49.4179 17.4374 50.0823 16.5901 50.6022 15.8294C51.2474 14.8858 51.9791 14.2696 51.4207 12.9697C50.6504 11.1884 48.0025 9.022 46.4138 7.91471C41.4647 4.46766 32.9049 0.82805 26.8581 2.23383C24.2102 2.85006 24.8264 4.85281 24.3835 6.93259C24.2487 7.56808 24.0273 8.19394 23.8154 8.81017C22.6793 12.1224 21.1098 15.3865 19.5981 18.5447H19.2418C18.7893 18.2173 18.2886 18.1114 17.8168 17.7744C15.9585 16.4457 14.3313 12.5846 11.5582 14.8377C9.4303 16.5708 9.51695 19.6424 10.8746 21.8184C11.096 22.1843 11.8278 22.8776 11.9337 23.1279C12.0108 23.3205 11.8856 23.5034 11.693 23.5419L37.1318 21.2792C37.1318 21.2792 38.6146 21.2792 39.0479 21.3948C39.6545 21.5584 40.9544 22.5695 40.9544 22.5695L53.3945 31.447C53.3079 31.1485 53.6545 30.7056 53.7412 30.4168C54.7425 26.9408 52.7398 24.2063 50.1401 22.1939V22.2132ZM24.7398 11.6699C25.1057 11.2077 26.0108 10.9188 25.6449 10.1871C25.433 10.0523 24.9901 10.3989 25.0479 10.1293C25.1442 9.59971 25.7412 8.72351 25.9626 8.15542C26.4344 6.95185 26.4633 5.73864 26.55 4.44841C26.6174 4.22695 27.5032 4.00549 27.7632 4.04401C27.8209 5.60384 27.4551 7.14442 26.7907 8.54057C26.6848 8.76202 26.213 9.4264 26.2033 9.53231C26.1841 9.68637 26.4537 9.75377 26.4633 10.0426C26.4633 10.8033 25.8567 11.6602 25.5678 12.3054C25.4427 12.5846 25.2886 13.326 25.1538 13.4608C24.8938 13.7111 24.0947 13.6726 23.748 13.6726C23.6421 13.5763 24.6146 11.8528 24.759 11.6699H24.7398ZM32.8663 18.1403C29.2171 18.4003 25.9915 19.7194 22.1015 19.3631C21.9186 19.3439 21.3024 19.2668 21.2927 19.055L23.1414 15.2421C23.2185 15.1747 23.3051 15.1651 23.4014 15.1554C24.3065 15.0399 26.2033 15.1073 27.1662 15.1554C30.334 15.3287 34.1277 16.3397 36.7467 18.1307C35.4757 18.1981 34.1181 18.044 32.8567 18.1307L32.8663 18.1403Z" fill="black"/>
<path d="M33.0978 45.1005C31.8653 48.8942 30.9217 53.0248 28.1872 56.0675C25.8282 58.6961 21.322 61.161 17.8076 59.5434C14.0139 57.791 12.6177 53.4485 11.549 49.7511C10.4513 49.3948 9.62325 48.586 8.91073 47.7098C8.67001 47.421 7.85158 46.1211 7.63012 46.0056C7.26424 45.813 7.25461 46.7373 7.01389 46.8433C6.43618 47.1129 6.76355 45.3412 7.10055 44.879C7.32201 44.5805 8.34264 43.9739 8.67964 43.9932C9.19959 44.0317 9.93136 44.3206 10.2972 44.7442C10.9327 45.476 8.84333 44.3013 9.06479 45.5434C9.33439 47.0455 11.6453 48.3646 12.9836 48.7979C17.7209 50.3577 23.6618 48.8556 27.9272 46.5448C28.2065 46.3907 29.8048 45.4953 29.7567 45.2449C29.3426 44.7057 28.3028 45.3412 27.725 45.1968C27.2821 44.7153 28.062 44.4457 28.4568 44.2724C30.0648 43.5888 33.0689 42.8474 34.6095 43.8006C35.3702 44.2724 36.7182 46.564 35.4279 46.4003C34.571 46.2944 34.0607 44.9753 33.1074 45.1101L33.0978 45.1005Z" fill="black"/>
<path d="M28.5341 36.685C29.237 36.8198 30.171 36.9643 30.7679 37.3879C31.596 37.9657 31.2301 38.2545 31.0761 39.0537C32.116 39.2559 32.9344 38.8515 33.9646 39.2751C34.3883 39.4485 36.0155 40.4691 35.1586 40.8831C32.1159 39.0152 28.1971 41.2009 25.6937 43.0784C25.1545 42.6355 26.2906 41.7401 26.2425 41.4801C24.8175 40.0165 24.933 37.3398 25.3374 35.4718C25.7707 33.4787 27.8794 29.4154 30.325 31.5337C31.2012 32.2848 31.8078 33.5943 31.5286 34.7593C31.3264 35.6163 30.8642 35.4044 30.2095 35.6259C29.988 35.7029 28.1971 36.3095 28.5245 36.6947L28.5341 36.685Z" fill="black"/>
<path d="M19.406 44.7441C16.6041 47.7001 10.1625 45.7937 10.5188 41.3741C10.644 39.7662 11.8475 38.553 13.4074 38.2641C13.0415 37.1857 11.5105 36.7428 10.4706 36.7717C9.61369 36.8005 8.72786 37.2723 8.04423 37.7538C7.97683 37.8019 7.32208 38.4952 7.28357 38.2159C7.51466 36.7139 8.79526 35.0385 10.3455 34.7111C12.5793 34.2393 14.1584 35.2792 15.4101 37.0027C15.7567 37.4842 16.0745 38.2737 16.3826 38.6492C16.8448 39.2077 18.1061 39.7084 18.5683 40.2283C18.7224 40.4016 18.9342 40.6712 18.8379 40.8831C18.7801 40.9986 18.6261 40.9505 18.4816 40.9312C17.461 40.7868 16.3248 39.9298 15.1116 39.8336C14.2162 39.7662 12.5986 39.9298 12.4541 41.0179C11.9631 44.6286 17.4418 45.1293 19.7911 44.0316" fill="black"/>
<path d="M18.7416 31.6974C19.5023 32.0632 18.9342 33.7675 18.2121 34.2682C16.8448 35.2214 15.7856 33.5942 14.842 32.8335C12.6563 31.0715 9.43076 28.8088 7.40875 32.1306C7.00435 31.3892 7.68798 30.2338 8.11164 29.5983C9.74851 27.143 13.0415 27.7015 14.7458 29.7716C15.2946 30.436 16.1419 32.3521 16.7485 32.6699C17.0277 32.8143 17.5669 32.9106 17.8558 32.7854C18.2313 32.6121 18.2602 31.4663 18.732 31.6974H18.7416Z" fill="black"/>
<path d="M23.3727 31.4663C23.9119 28.9628 25.6739 26.5171 28.0426 25.3906C32.3562 23.3397 34.9463 26.6616 35.1003 30.7441C34.513 30.2819 34.2338 29.5598 33.7427 28.9917C30.4401 25.1595 26.165 28.3466 23.7675 31.3603C23.6712 31.4759 23.4882 31.5144 23.4208 31.6203" fill="black"/>
<path d="M43.2368 45.4855C43.9975 45.3796 44.6522 46.0921 44.9411 46.718C45.6247 48.22 45.5573 51.6093 44.6522 53.0247C44.1419 53.8239 43.1887 54.2475 42.3895 53.5639C40.9837 52.3603 41.0992 48.4607 41.7636 46.8913C42.0236 46.2847 42.5435 45.5721 43.2464 45.4759L43.2368 45.4855Z" fill="black"/>
<path d="M43.8242 30.3204C44.4789 30.1663 44.9315 30.5033 45.2877 31.004C46.3854 32.5446 46.4239 37.6767 44.6619 38.7743C43.5353 39.4772 42.7362 37.9463 42.4858 37.0412C42.0814 35.568 42.0814 32.275 43.0154 31.0137C43.1598 30.8115 43.5835 30.3782 43.8146 30.3204H43.8242Z" fill="black"/>
<path d="M49.6007 48.7785C49.9955 48.7015 50.2939 48.817 50.5732 49.077C51.9597 50.3383 51.796 54.7964 51.0835 56.3947C50.4191 57.9064 49.2541 57.9738 48.4934 56.491C47.6268 54.8156 47.6653 51.2145 48.6667 49.6065C48.8689 49.2888 49.2059 48.8555 49.5911 48.7785H49.6007Z" fill="black"/>
<path d="M50.1308 34.6051C51.6907 34.3355 52.2587 36.993 52.3358 38.1292C52.4128 39.1594 52.3358 42.5776 50.9781 42.8087C49.3124 43.0783 48.7539 40.5652 48.6673 39.352C48.5806 38.2447 48.7058 34.8458 50.1308 34.6051Z" fill="black"/>
<path d="M46.491 39.6121C48.0509 39.3425 48.619 42 48.696 43.1362C48.773 44.1664 48.696 47.5846 47.3384 47.8157C45.6726 48.0853 45.1142 45.5722 45.0275 44.359C44.9408 43.2517 45.066 39.8528 46.491 39.6121Z" fill="black"/>
<path d="M36.7663 18.1402C35.4953 18.2076 34.1377 18.0536 32.8763 18.1402C29.2271 18.4002 26.0015 19.7193 22.1115 19.3631C21.9286 19.3438 21.3124 19.2668 21.3027 19.0549L23.1514 15.242C23.2285 15.1746 23.3151 15.165 23.4114 15.1554C24.3165 15.0398 26.2133 15.1072 27.1762 15.1554C30.344 15.3287 34.1377 16.3397 36.7567 18.1306L36.7663 18.1402Z" fill="#FF0000"/>
<path d="M27.754 4.05359C27.8117 5.61342 27.4458 7.154 26.7815 8.55015C26.6756 8.77161 26.2038 9.43598 26.1941 9.5419C26.1749 9.69596 26.4445 9.76336 26.4541 10.0522C26.4541 10.8129 25.8475 11.6698 25.5586 12.3149C25.4335 12.5942 25.2794 13.3356 25.1446 13.4704C24.8846 13.7207 24.0855 13.6822 23.7388 13.6822C23.6329 13.5859 24.5958 11.8624 24.7498 11.6795C25.1157 11.2173 26.0208 10.9284 25.6453 10.1966C25.4335 10.0618 24.9905 10.4085 25.0483 10.1389C25.1446 9.6093 25.7416 8.73309 25.963 8.16501C26.4348 6.96143 26.4637 5.74823 26.5504 4.45799C26.6178 4.23653 27.5036 4.01508 27.7636 4.05359H27.754Z" fill="#FF0000"/>
</g>
</svg>
