<svg width="58" height="70" viewBox="0 0 58 70" fill="none" xmlns="http://www.w3.org/2000/svg">
<path d="M24.4704 70C18.6258 70 14.4374 68.0165 9.14164 65.5034C9.14164 65.5034 8.14026 65.0316 7.67809 64.8198C6.26268 64.1651 4.79913 63.4814 3.47039 62.7593C1.19803 61.5172 0.0329714 59.5722 0.00408557 56.9629C-0.0633147 50.3191 0.716603 43.3673 1.46763 36.6465L1.76612 33.9794C1.84315 33.2476 1.90092 32.4388 1.96832 31.6107C2.10312 29.762 2.24755 27.8459 2.62307 26.2476C3.46076 22.7428 6.48414 22.1169 8.73724 21.9147C7.47589 19.1513 7.62032 15.5887 10.3452 13.3645C11.2599 12.6135 12.2324 12.238 13.2242 12.238C15.2751 12.238 16.652 13.7882 17.7592 15.0303C18.077 15.3865 18.3947 15.7524 18.6836 16.0124C19.8968 13.4512 21.1004 10.8226 21.9958 8.20358L22.0343 8.07841C22.2173 7.5392 22.3906 7.02889 22.4965 6.54746C22.5735 6.16231 22.6121 5.75791 22.6602 5.32462C22.8046 3.76479 23.0454 1.15543 26.425 0.365887C27.4553 0.125172 28.5722 0 29.7565 0C36.1499 0 43.3232 3.40853 47.5213 6.33563C48.5804 7.0674 52.1045 9.66713 53.1925 12.2091C54.0976 14.3177 53.077 15.7139 52.4608 16.5516C52.3741 16.6671 52.2874 16.7923 52.2008 16.9175C52.0467 17.1389 51.883 17.37 51.7194 17.6107C51.3438 18.1403 50.9587 18.6891 50.7084 19.1513C50.5928 19.3824 50.4291 19.7001 50.2847 19.9986C50.2943 19.9986 50.3136 20.0179 50.3232 20.0275C50.6891 20.2586 51.055 20.4897 51.3246 20.6919C56.11 24.3989 56.3411 28.2022 55.6478 30.7923C56.2737 31.3026 56.9381 31.9574 57.3521 32.9684C57.9298 34.403 57.7565 36.1073 57.6024 37.619C57.5639 38.0426 57.5158 38.447 57.5062 38.8129C57.4195 40.8735 57.3617 42.9532 57.3039 45.0426C57.1595 50.0014 57.0151 55.1238 56.5433 60.0922L56.4855 60.6988C56.2833 63.0193 55.9559 66.9092 51.3246 67.2944C49.1389 67.4773 46.8473 67.4869 44.6327 67.4966C43.2269 67.4966 41.7634 67.5062 40.3865 67.564C39.9147 67.5832 39.4236 67.5928 38.9229 67.6025C37.209 67.641 35.2737 67.6795 33.8679 68.0647C33.1843 68.2572 32.5584 68.4691 31.9037 68.7001C30.5942 69.1527 29.2462 69.6245 27.4745 69.8171C26.4539 69.9326 25.4429 69.9904 24.4704 69.9904V70ZM40.348 57.3673C40.9546 57.608 41.5997 57.8102 42.2929 58.022C42.8803 58.205 43.4676 58.3879 44.0357 58.5901C45.066 58.9656 46.0866 59.3796 47.1169 59.784C48.3397 60.2751 49.6011 60.7854 50.8239 61.1995C50.8817 61.2187 50.9298 61.238 50.9876 61.2572C51.2187 59.8033 51.3727 57.1458 51.4305 56.1348L51.4786 55.326C51.8734 49.0289 52.0564 42.5007 52.1815 36.945C52.1815 36.6754 52.1815 36.3962 52.1815 36.1265C52.1815 35.7607 52.1815 35.3851 52.1912 35C51.5653 34.4127 50.5832 33.7098 49.784 33.132C49.4663 32.9106 49.1774 32.6891 48.9078 32.4966L47.6368 31.5433C45.9614 30.2916 44.132 28.9147 42.3796 27.7015C42.3122 28.4525 42.2448 29.2325 42.1967 30.022C42.033 32.4869 41.9271 35.0096 41.8211 37.4553C41.7056 40.0647 41.5901 42.7703 41.4071 45.4278C41.2819 47.2476 41.0797 49.1155 40.8775 50.9257C40.6465 53.0536 40.4057 55.249 40.2998 57.3288C40.3191 57.3288 40.3383 57.348 40.3576 57.348L40.348 57.3673ZM12.2132 56.7125C12.4154 56.7125 12.7139 56.7607 12.9064 56.8184C13.4938 57.0014 13.7537 57.3384 14.3989 58.1472C14.5625 58.3494 14.7166 58.5516 14.8033 58.6575C16.2861 60.1692 18.5777 61.0454 21.0619 61.0454C22.9683 61.0454 24.7978 60.5158 26.2132 59.5433C26.3576 59.447 26.5694 59.2448 26.7813 59.0426C27.436 58.4168 28.3411 57.5695 29.6024 57.4347C30.2476 57.3673 30.9312 57.3576 31.5859 57.3576C34.4553 57.3288 34.9367 57.0688 35.1004 56.2022C35.447 54.4498 35.5529 52.2256 35.6492 50.0688C35.6877 49.1541 35.7359 48.2682 35.7936 47.4498C36.0055 44.4649 36.1884 41.4704 36.3617 38.4759C36.5158 35.8666 36.6698 33.2669 36.8432 30.6575C36.9009 29.8294 36.9972 28.9629 37.0839 28.0963C37.1994 27.0371 37.3246 25.9298 37.3535 24.9477C36.9394 24.8707 36.4291 24.8322 35.8321 24.8322C34.5323 24.8322 33.011 25.0151 31.663 25.1692C30.883 25.2558 30.1416 25.3425 29.4869 25.4003C25.1925 25.7373 21.1389 26.1802 16.8542 26.652L16.3342 26.7098C15.2462 26.8253 14.0907 26.912 12.9738 26.989C11.2599 27.1045 9.48827 27.2297 7.97658 27.4897C7.83215 28.1059 7.69735 29.2036 7.6492 29.608L7.5818 30.099C6.773 35.9436 6.1664 41.9422 5.83902 47.4305L5.75237 48.7689C5.58868 51.359 5.39611 54.2861 5.56942 56.7221C5.59831 57.0592 5.68497 57.8294 5.97382 57.945H10.2682C10.5667 57.2132 11.2984 56.7029 12.1747 56.7029L12.2132 56.7125ZM24.2104 17.4759C25.2118 17.4278 26.1939 17.2737 27.1953 17.0908C27.1568 17.0908 27.1183 17.0908 27.0797 17.0908C26.5309 17.0619 25.6547 17.0234 24.8652 17.0234C24.7015 17.0234 24.557 17.0234 24.4319 17.0234L24.2104 17.4759Z" fill="white"/>
<path d="M40.2329 23.1279L54.2907 33.7387L54.5699 34.4319L53.4338 59.6204L52.7886 63.2311L52.2205 63.8377H51.5754L37.6428 58.9367V58.205L38.856 45.8514L39.6648 29.1266L40.2329 23.1279Z" fill="#F8F8F8"/>
<path d="M35.2835 21.2118C35.6398 21.3081 39.4046 21.1252 39.6549 21.3755C40.04 21.751 42.7842 23.6864 43.3041 24.0908C45.9039 26.1032 48.8695 27.7978 51.6329 30.1183C51.864 30.3109 53.3083 31.1582 53.3949 31.4663C54.1845 32.1596 55.1377 32.6603 55.5517 33.6905C56.0909 35.0482 55.6288 37.2531 55.571 38.7455C55.2918 45.7455 55.2725 52.9574 54.6081 59.9188C54.3674 62.4897 54.4252 65.1183 51.1515 65.3879C47.6563 65.6768 43.8433 65.5131 40.3 65.6479C38.124 65.7345 35.4183 65.6479 33.3385 66.216C31.2588 66.784 29.6219 67.6506 27.2436 67.9106C20.2821 68.6809 15.853 66.553 9.85435 63.7125C8.07306 62.8652 6.07994 61.989 4.37568 61.055C2.67141 60.1211 1.93964 58.8693 1.92038 56.934C1.84335 49.5296 2.86398 41.5667 3.67279 34.1912C3.92313 31.9092 3.97127 28.8473 4.49122 26.6905C5.30002 23.3012 9.04555 24.0426 11.6838 23.5612C11.8764 23.5227 12.0112 23.3398 11.9245 23.1472M5.8296 59.8707H12.3482C12.5119 59.4182 12.2134 59.11 12.0882 58.6864C12.0882 58.6094 12.2711 58.6286 12.3096 58.6382C12.3963 58.6671 13.2051 59.7648 13.4073 59.967C16.8929 63.5103 23.2285 63.9147 27.3014 61.1224C28.0813 60.5832 28.8901 59.4278 29.8048 59.3315C32.4142 59.0619 36.333 59.9381 36.9974 56.5488C37.5173 53.8817 37.527 50.348 37.7196 47.5653C38.1143 41.9711 38.3936 36.3673 38.7691 30.7634C38.9039 28.8088 39.2505 26.6424 39.2986 24.7263C39.3179 23.7442 39.2409 23.4168 38.2491 23.1472C35.8516 22.4924 31.9135 23.2531 29.3619 23.4553C24.8557 23.8019 20.6288 24.2737 16.1515 24.7648C13.4458 25.0633 10.3069 25.1018 7.67829 25.564C7.30277 25.6314 6.74431 25.8336 6.48434 26.1224C6.05105 26.6135 5.81997 29.0399 5.71405 29.8102C4.92451 35.5103 4.29865 41.5571 3.95202 47.2957C3.76907 50.2999 3.47059 53.8432 3.68242 56.8377C3.7787 58.2242 4.26013 59.6589 5.8296 59.8514V59.8707ZM40.7911 24.5241C40.5504 26.3054 40.3867 28.1059 40.2615 29.9065C39.9245 35.0289 39.8282 40.1802 39.472 45.3026C39.1927 49.3852 38.4995 53.6891 38.3358 57.7332C38.2876 58.8212 38.7209 58.7923 39.626 59.1582C40.8392 59.6492 42.1391 59.9574 43.3715 60.4003C45.6439 61.2283 47.9162 62.249 50.1886 63.0289C51.0648 63.3274 52.0854 63.9629 52.5476 62.8556C53.1061 61.5461 53.2794 57.1073 53.3757 55.4608C53.7608 49.4044 53.9438 43.0688 54.0786 37.0028C54.0978 36.1651 54.0593 35.337 54.1267 34.4993C54.0593 34.1623 53.8667 33.989 53.6356 33.7579C52.7498 32.8625 51.0937 31.7552 50.0442 30.9656C47.3963 28.9918 44.2959 26.6039 41.5421 24.8611C41.311 24.7167 41.0703 24.5145 40.7814 24.5337L40.7911 24.5241Z" fill="black"/>
<path d="M5.82957 59.8705C4.2601 59.678 3.77867 58.2337 3.68239 56.8568C3.47056 53.8719 3.76904 50.319 3.95199 47.3148C4.29862 41.5762 4.92448 35.5294 5.71402 29.8293C5.81994 29.059 6.05103 26.6326 6.48431 26.1415C6.74429 25.8527 7.30274 25.6505 7.67826 25.5831C10.3069 25.1209 13.4458 25.0824 16.1514 24.7839C20.6287 24.2928 24.8653 23.821 29.3619 23.4744C31.9135 23.2818 35.8419 22.5115 38.2491 23.1663C39.2408 23.4359 39.3179 23.7632 39.2986 24.7454C39.2601 26.6615 38.9038 28.8279 38.769 30.7825C38.3839 36.3767 38.1143 41.9902 37.7195 47.5844C37.5173 50.3671 37.5173 53.9008 36.9974 56.5679C36.333 59.9572 32.4142 59.081 29.8048 59.3506C28.8901 59.4469 28.0813 60.6023 27.3014 61.1415C23.2285 63.9338 16.8832 63.5294 13.4073 59.9861C13.2051 59.7743 12.3867 58.6766 12.3096 58.6573C12.2711 58.6477 12.0785 58.6284 12.0882 58.7055C12.1556 59.1388 12.5118 59.4373 12.3481 59.8898H5.82957V59.8705ZM35.1005 30.7344C34.9465 26.6518 32.3564 23.33 28.0428 25.3809C25.6741 26.5074 23.9121 28.9531 23.3729 31.4565C23.3729 31.495 22.9685 31.8417 23.1129 32.1305C23.4114 32.1883 23.3055 31.7839 23.421 31.6106C23.4884 31.5047 23.681 31.4661 23.7677 31.3506C26.1556 28.3368 30.4307 25.1498 33.7429 28.982C34.234 29.55 34.5036 30.2626 35.1005 30.7344ZM18.7415 31.6972C18.2312 31.8128 18.2408 32.6216 17.8653 32.7853C17.5765 32.9201 17.0373 32.8141 16.758 32.6697C16.1514 32.352 15.3041 30.4359 14.7553 29.7715C13.0414 27.7013 9.75804 27.1429 8.12118 29.5982C7.69752 30.2337 7.01389 31.3891 7.41829 32.1305C9.4403 28.8086 12.6659 31.0714 14.8516 32.8334C15.7952 33.5941 16.8447 35.2213 18.2216 34.2681C18.9437 33.7577 19.1267 32.4579 18.7512 31.6972H18.7415ZM28.5338 36.6848C28.2065 36.2901 29.9974 35.6835 30.2188 35.6161C30.8736 35.3946 31.3358 35.6064 31.538 34.7495C31.8172 33.5844 31.201 32.2846 30.3344 31.5239C27.8887 29.4056 25.78 33.4689 25.3468 35.462C24.9424 37.33 24.8172 40.0067 26.2518 41.4703C26.3 41.7399 25.1638 42.6353 25.703 43.0686C28.2065 41.191 32.1253 38.9957 35.1679 40.8733C36.0153 40.4593 34.388 39.4386 33.974 39.2653C32.9437 38.8417 32.1253 39.2461 31.0854 39.0439C31.2395 38.2447 31.6054 37.9558 30.7773 37.3781C30.1803 36.9641 29.2463 36.81 28.5435 36.6752L28.5338 36.6848ZM18.8282 40.8829C18.7126 40.6807 18.7126 40.4015 18.5586 40.2282C18.0964 39.7179 16.8351 39.2075 16.3729 38.6491C16.0648 38.2736 15.747 37.484 15.4004 37.0026C14.1487 35.2694 12.5696 34.2392 10.3358 34.711C8.78555 35.0384 7.50495 36.7137 7.27386 38.2158C7.31237 38.495 7.96712 37.8018 8.03452 37.7536C8.71815 37.2722 9.61361 36.8004 10.4609 36.7715C11.5008 36.7426 13.0318 37.1855 13.3977 38.2639C11.8378 38.5528 10.6342 39.766 10.5091 41.374C10.1528 45.8031 16.5944 47.7096 19.3963 44.744C19.5503 44.5803 19.4348 44.33 19.7622 44.3781L19.7814 44.0411C17.4224 45.1388 11.9437 44.6381 12.4444 41.0273C12.5889 39.9393 14.2161 39.766 15.1019 39.843C16.3151 39.9393 17.4513 40.7963 18.4719 40.9407C18.6164 40.9599 18.6934 40.9118 18.8282 40.8925V40.8829ZM33.0978 45.1003C34.051 44.9655 34.7828 45.8031 35.4183 46.3905C36.5641 45.7743 35.3605 44.2626 34.5999 43.7908C33.0593 42.8279 30.0551 43.5693 28.4472 44.2626C28.062 44.4262 27.2725 44.6958 27.7154 45.1869C28.2931 45.3313 29.3426 44.7055 29.747 45.2351C29.7855 45.495 28.1968 46.3905 27.9176 46.5349C23.6521 48.8458 17.7113 50.3478 12.974 48.788C11.6452 48.3451 9.32475 47.0356 9.05515 45.5335C8.83369 44.3011 10.3839 45.7069 10.2876 44.7344C9.74841 44.6092 9.18995 44.0315 8.67001 43.9833C8.33301 43.9544 7.31237 44.5707 7.09092 44.8692C6.74429 45.3313 6.49394 46.4483 7.00426 46.8334C7.01389 46.5734 7.2546 45.8031 7.62049 45.9957C7.83232 46.1113 8.66038 47.4111 8.90109 47.7C9.61361 48.5762 10.4417 49.3754 11.5393 49.7412C12.6081 53.4483 14.0043 57.7908 17.7979 59.5335C21.3124 61.1511 25.8186 58.6862 28.1776 56.0576C30.9121 53.015 31.8557 48.8843 33.0882 45.0906L33.0978 45.1003Z" fill="#F8F8F8"/>
<path d="M50.1401 22.2132C49.6201 21.8088 48.6573 21.3081 48.2721 20.9326C48.0218 20.6822 47.9929 20.586 48.0892 20.2297C48.1951 19.8542 48.7824 18.6506 48.9943 18.2462C49.4179 17.4374 50.0823 16.5901 50.6022 15.8294C51.2474 14.8858 51.9791 14.2696 51.4207 12.9697C50.6504 11.1884 48.0025 9.022 46.4138 7.91471C41.4647 4.46766 32.9049 0.82805 26.8581 2.23383C24.2102 2.85006 24.8265 4.85281 24.3835 6.93259C24.2487 7.56808 24.0273 8.19394 23.8154 8.81017C22.6793 12.1224 21.1098 15.3865 19.5981 18.5447H19.2419C18.7893 18.2173 18.2886 18.1114 17.8168 17.7744C15.9585 16.4457 14.3313 12.5846 11.5582 14.8377C9.4303 16.5708 9.51696 19.6424 10.8746 21.8184C11.0961 22.1843 11.8278 22.8776 11.9337 23.1279C12.0108 23.3205 11.8856 23.5034 11.693 23.5419L37.1318 21.2792C37.1318 21.2792 38.6146 21.2792 39.0479 21.3948C39.6545 21.5584 40.9544 22.5695 40.9544 22.5695L53.3945 31.447C53.3079 31.1485 53.6545 30.7056 53.7412 30.4168C54.7425 26.9408 52.7398 24.2063 50.1401 22.1939V22.2132ZM24.7398 11.6699C25.1057 11.2077 26.0108 10.9188 25.6449 10.1871C25.4331 10.0523 24.9901 10.3989 25.0479 10.1293C25.1442 9.59971 25.7412 8.72351 25.9626 8.15542C26.4344 6.95185 26.4633 5.73864 26.55 4.44841C26.6174 4.22695 27.5032 4.00549 27.7632 4.04401C27.821 5.60384 27.4551 7.14442 26.7907 8.54057C26.6848 8.76202 26.213 9.4264 26.2033 9.53231C26.1841 9.68637 26.4537 9.75377 26.4633 10.0426C26.4633 10.8033 25.8567 11.6602 25.5679 12.3054C25.4427 12.5846 25.2886 13.326 25.1538 13.4608C24.8939 13.7111 24.0947 13.6726 23.748 13.6726C23.6421 13.5763 24.6146 11.8528 24.7591 11.6699H24.7398ZM32.8663 18.1403C29.2171 18.4003 25.9915 19.7194 22.1016 19.3631C21.9186 19.3439 21.3024 19.2668 21.2928 19.055L23.1414 15.2421C23.2185 15.1747 23.3051 15.1651 23.4014 15.1554C24.3065 15.0399 26.2033 15.1073 27.1662 15.1554C30.334 15.3287 34.1277 16.3397 36.7467 18.1307C35.4757 18.1981 34.1181 18.044 32.8567 18.1307L32.8663 18.1403Z" fill="black"/>
<path d="M33.0978 45.1005C31.8653 48.8942 30.9217 53.0248 28.1872 56.0675C25.8282 58.6961 21.322 61.161 17.8076 59.5434C14.0139 57.791 12.6178 53.4485 11.549 49.7511C10.4513 49.3948 9.62325 48.586 8.91074 47.7098C8.67002 47.421 7.85159 46.1211 7.63013 46.0056C7.26424 45.813 7.25462 46.7373 7.0139 46.8433C6.43618 47.1129 6.76356 45.3412 7.10056 44.879C7.32202 44.5805 8.34265 43.9739 8.67965 43.9932C9.1996 44.0317 9.93137 44.3206 10.2973 44.7442C10.9327 45.476 8.84334 44.3013 9.0648 45.5434C9.3344 47.0455 11.6453 48.3646 12.9836 48.7979C17.7209 50.3577 23.6618 48.8556 27.9272 46.5448C28.2065 46.3907 29.8048 45.4953 29.7567 45.2449C29.3426 44.7057 28.3028 45.3412 27.725 45.1968C27.2821 44.7153 28.062 44.4457 28.4568 44.2724C30.0648 43.5888 33.0689 42.8474 34.6095 43.8006C35.3702 44.2724 36.7182 46.564 35.4279 46.4003C34.571 46.2944 34.0607 44.9753 33.1074 45.1101L33.0978 45.1005Z" fill="black"/>
<path d="M28.5342 36.685C29.2371 36.8198 30.1711 36.9643 30.7681 37.3879C31.5961 37.9657 31.2302 38.2545 31.0762 39.0537C32.1161 39.2559 32.9345 38.8515 33.9648 39.2751C34.3884 39.4485 36.0157 40.4691 35.1587 40.8831C32.1161 39.0152 28.1972 41.2009 25.6938 43.0784C25.1546 42.6355 26.2908 41.7401 26.2426 41.4801C24.8176 40.0165 24.9331 37.3398 25.3375 35.4718C25.7708 33.4787 27.8795 29.4154 30.3252 31.5337C31.2014 32.2848 31.808 33.5943 31.5287 34.7593C31.3265 35.6163 30.8644 35.4044 30.2096 35.6259C29.9882 35.7029 28.1972 36.3095 28.5246 36.6947L28.5342 36.685Z" fill="black"/>
<path d="M19.4059 44.7441C16.604 47.7001 10.1624 45.7937 10.5187 41.3741C10.6438 39.7662 11.8474 38.553 13.4073 38.2641C13.0414 37.1857 11.5104 36.7428 10.4705 36.7717C9.61358 36.8005 8.72775 37.2723 8.04412 37.7538C7.97672 37.8019 7.32197 38.4952 7.28345 38.2159C7.51454 36.7139 8.79515 35.0385 10.3454 34.7111C12.5792 34.2393 14.1583 35.2792 15.41 37.0027C15.7566 37.4842 16.0744 38.2737 16.3825 38.6492C16.8447 39.2077 18.106 39.7084 18.5682 40.2283C18.7222 40.4016 18.9341 40.6712 18.8378 40.8831C18.78 40.9986 18.626 40.9505 18.4815 40.9312C17.4609 40.7868 16.3247 39.9298 15.1115 39.8336C14.2161 39.7662 12.5984 39.9298 12.454 41.0179C11.963 44.6286 17.4416 45.1293 19.791 44.0316" fill="black"/>
<path d="M18.7416 31.6974C19.5023 32.0632 18.9342 33.7675 18.2121 34.2682C16.8448 35.2214 15.7857 33.5942 14.842 32.8335C12.6564 31.0715 9.43077 28.8088 7.40876 32.1306C7.00436 31.3892 7.68799 30.2338 8.11165 29.5983C9.74851 27.143 13.0415 27.7015 14.7458 29.7716C15.2946 30.436 16.1419 32.3521 16.7485 32.6699C17.0277 32.8143 17.5669 32.9106 17.8558 32.7854C18.2313 32.6121 18.2602 31.4663 18.732 31.6974H18.7416Z" fill="black"/>
<path d="M23.3728 31.4663C23.912 28.9628 25.674 26.5171 28.0427 25.3906C32.3563 23.3397 34.9464 26.6616 35.1005 30.7441C34.5131 30.2819 34.2339 29.5598 33.7428 28.9917C30.4402 25.1595 26.1651 28.3466 23.7676 31.3603C23.6713 31.4759 23.4884 31.5144 23.421 31.6203" fill="black"/>
<path d="M43.2369 45.4855C43.9976 45.3796 44.6523 46.0921 44.9412 46.718C45.6248 48.22 45.5574 51.6093 44.6523 53.0247C44.142 53.8239 43.1888 54.2475 42.3896 53.5639C40.9838 52.3603 41.0994 48.4607 41.7637 46.8913C42.0237 46.2847 42.5437 45.5721 43.2466 45.4759L43.2369 45.4855Z" fill="black"/>
<path d="M43.8244 30.3204C44.4792 30.1663 44.9317 30.5033 45.288 31.004C46.3856 32.5446 46.4242 37.6767 44.6621 38.7743C43.5356 39.4772 42.7364 37.9463 42.4861 37.0412C42.0817 35.568 42.0817 32.275 43.0156 31.0137C43.1601 30.8115 43.5837 30.3782 43.8148 30.3204H43.8244Z" fill="black"/>
<path d="M49.6008 48.7785C49.9956 48.7015 50.2941 48.817 50.5733 49.077C51.9598 50.3383 51.7961 54.7964 51.0836 56.3947C50.4192 57.9064 49.2542 57.9738 48.4935 56.491C47.627 54.8156 47.6655 51.2145 48.6668 49.6065C48.869 49.2888 49.206 48.8555 49.5912 48.7785H49.6008Z" fill="black"/>
<path d="M50.1311 34.6051C51.6909 34.3355 52.259 36.993 52.336 38.1292C52.413 39.1594 52.336 42.5776 50.9784 42.8087C49.3126 43.0783 48.7542 40.5652 48.6675 39.352C48.5809 38.2447 48.706 34.8458 50.1311 34.6051Z" fill="black"/>
<path d="M46.4912 39.6121C48.051 39.3425 48.6191 42 48.6961 43.1362C48.7732 44.1664 48.6961 47.5846 47.3385 47.8157C45.6727 48.0853 45.1143 45.5722 45.0276 44.359C44.941 43.2517 45.0661 39.8528 46.4912 39.6121Z" fill="black"/>
<path d="M36.7663 18.1402C35.4953 18.2076 34.1377 18.0536 32.8763 18.1402C29.2271 18.4002 26.0015 19.7193 22.1115 19.3631C21.9286 19.3438 21.3124 19.2668 21.3027 19.0549L23.1514 15.242C23.2285 15.1746 23.3151 15.165 23.4114 15.1554C24.3165 15.0398 26.2133 15.1072 27.1762 15.1554C30.344 15.3287 34.1377 16.3397 36.7567 18.1306L36.7663 18.1402Z" fill="white"/>
<path d="M27.754 4.05359C27.8117 5.61342 27.4459 7.154 26.7815 8.55015C26.6756 8.77161 26.2038 9.43598 26.1941 9.5419C26.1749 9.69596 26.4445 9.76336 26.4541 10.0522C26.4541 10.8129 25.8475 11.6698 25.5586 12.3149C25.4335 12.5942 25.2794 13.3356 25.1446 13.4704C24.8846 13.7207 24.0855 13.6822 23.7388 13.6822C23.6329 13.5859 24.5958 11.8624 24.7498 11.6795C25.1157 11.2173 26.0208 10.9284 25.6453 10.1966C25.4335 10.0618 24.9906 10.4085 25.0483 10.1389C25.1446 9.6093 25.7416 8.73309 25.963 8.16501C26.4348 6.96143 26.4637 5.74823 26.5504 4.45799C26.6178 4.23653 27.5036 4.01508 27.7636 4.05359H27.754Z" fill="white"/>
</svg>
