<svg xmlns="http://www.w3.org/2000/svg" xmlns:xlink="http://www.w3.org/1999/xlink" xmlns:v="https://vecta.io/nano" viewBox="0 0 255.2 119.2"><g fill="#3d3356"><use xlink:href="#Bm"/><path d="M91.3 84c-5 0-7.6 1.8-7.6 4.5 0 1.2.5 1.9 1.2 2.6l3-1.7c-.8-.1-1.6-.5-1.6-1 0-.6 1.5-1.1 4.1-1.1 3.4 0 5.1.8 5.1 2.6 0 1.3-.9 2.6-1.9 2.6-.7 0-1.1-.6-.8-1.5l.6-2.1h-3.9l-1.6 6.4c-.4 1.7-.8 2.4-1.5 2.4-1.1 0-.8-1.8-.6-2.6l-3 1.9c-.2 1.6 1 2.6 3 2.6 3 0 5.1-1.4 5.8-4.1l.3-1.2c.6.2 1.2.3 2 .3 3.3 0 5.4-1.9 5.4-5 0-3.7-2.9-5.6-8-5.6h0zm22.8 13.4c-.4 0-.4-.6-.2-1.6l.2-.9-.9-1.7 1.2-1.9c-.3-.8-1.2-1.3-2.3-1.3-1 0-1.9.3-2.6.9l.2-.6H106l-1.2 4.5c-1.4 1.6-2.1 2.6-2.6 2.6-.4 0-.4-.6-.2-1.6l1.4-5.5h-3.7l-1.5 5.8c-.5 1.9.5 3.4 2.2 3.4 1.5 0 2.8-1.2 3.8-2.4l-.6 2.1h3.7l1.3-5c.4-1.7 1.1-2.5 1.7-2.6.5 0 .6.4.4 1.2l-.9 3.3c-.5 1.9.5 3.4 2.2 3.4 1.3 0 2.4-.8 3.3-1.8l-.5-1c-.2.5-.4.7-.7.7h0zm24-7h-3.7l-1.3 5c-.4 1.3-.9 2-1.5 2.1-.5 0-.7-.4-.6-1.1l1.6-6h-3.7l-.2.8 1.6 3.1-2.7 4.2c.4.7 1.1 1.1 2.1 1.1 1.1 0 1.9-.4 2.7-1.1l-.4 1.8c-.4 1.7-1.3 2.4-1.9 2.4-.9 0-.7-1.8-.4-2.6l-2.9 1.8c-.2 1.6.8 2.6 3.1 2.6 3 0 5.2-1.5 5.8-4.1l2.4-10h0zm0 6.6c-.2 1.6 1 2.6 3 2.6 1.7 0 3.3-.6 4.4-1.8.7 1 2.6 1.8 4.4 1.8 2.9 0 5.1-2.1 5.1-4.8 0-2.2-1.4-3.2-3-3.7 1.1-.5 1.9-1.7 1.9-3 0-2.5-3.3-4.2-8-4.2-4.4 0-7 1.8-7 4.5 0 1.2.5 1.9 1.2 2.6l3-1.7c-.8-.1-1.6-.5-1.6-1 0-.6 1.5-1.1 3.7-1.1 3.2 0 5.2.6 5.2 2 0 .7-.6 1.2-1.4 1.2h-.9l.4-1.6h-3.9l-1.6 6.4c-.4 1.7-.8 2.4-1.5 2.4-1.1 0-.8-1.8-.6-2.6l-2.8 2h0zm8.7-1.1l.9-3.7h.2c2.2 0 3.3 1.1 3.3 2.6s-1.1 2.8-2.5 2.8c-1.2.1-2.1-.8-1.9-1.7h0zm24.8-1.1c-1.9 2.1-2.2 2.6-2.9 2.6s-1-.6-.8-1.6l1.2-4.5h2.2l.2-1h-2.2l.9-3.4h-1c-.6 1.5-2.1 3.4-3.6 3.4h-1l-.2 1h1l-.9 3.5h0c-.8.8-2 2.6-3.9 2.5-1.2 0-1.5-.6-1.5-1.7 3.3-.3 5-1.3 5-3.1 0-1.5-1.2-2.5-3-2.5-2.9 0-5.5 2.7-5.5 5.7 0 2.3 1.6 3.8 3.9 3.8 1.6 0 2.9-.8 4.6-2.7-.1 1.5.9 2.7 2.6 2.7 2.5 0 4.3-2.4 5.8-4.2l-.9-.5h0zM161.3 92c.5 0 .8.3.8.7-.1.8-1 1.5-2.9 1.9.3-1.2 1.1-2.5 2.1-2.6h0zm-25.4 13.3c.2-.8 1-1.4 1.7-1.4.4 0 .8.2 1.1.5l1.1-1c-.4-.5-1-.8-1.9-.8-1.6 0-3.1 1.2-3.6 2.7h0c-.4 1.6.5 2.7 2.1 2.7.9 0 1.8-.3 2.5-.8l.6-2.3h-2.4l-.3 1.1h1l-.2.6c-.3.2-.6.2-.9.2-.7 0-1.1-.6-.8-1.5h0 0zm8.4-2.6l-3.6 5.3h1.5l.6-.9h2l.1.9h1.6l-.8-5.3h-1.4 0zm-.7 3.2l1-1.5.2 1.5h-1.2zm8.6-1.2l-.7-2H150l-1.4 5.2h1.4l.8-3 .8 2h0l1.9-2.1-.8 3h1.4l1.4-5.2H154l-1.8 2.1h0zm4.3 3.2h4.2l.3-1.2h-2.8l.2-.8h2.5l.3-1.1h-2.5l.2-.8h2.8l.3-1.2h-4.2l-1.3 5.1zm8.8-3.8c.1-.2.3-.3.6-.3.5 0 .9.2 1.3.5l1-1c-.4-.5-1.1-.7-2-.7-1.3 0-2.2.7-2.5 1.7h0c-.3 1.1.5 1.4 1.5 1.7.7.2.8.3.8.5h0c-.1.2-.3.4-.7.4-.6 0-1.1-.2-1.5-.6l-1.1 1c.5.6 1.3.9 2.2.9 1.3 0 2.3-.6 2.6-1.7h0c.3-1-.4-1.4-1.5-1.6-.6-.4-.7-.5-.7-.8h0 0z"/><path d="M106.5 98.1c-.4 0-.8 0-1.1-.1-1.6-.3-3.1-1.3-4-2.7-1-1.5-1.3-3.3-1-5.2.6-3.3 3.1-5.7 6.2-5.7.4 0 .8 0 1.1.1 1.6.3 3.1 1.2 4 2.7 1 1.5 1.3 3.3 1 5.2-.6 3.4-3.1 5.7-6.2 5.7z"/><path d="M87.8 109.6c-2.5 0-4.7-1-6.1-2.7-1.2-1.6-1.8-3.6-1.5-5.7.2-1.3.9-2.6 2-3.3-.8-1.3-1.2-2.8-1.2-4.4 0-4.4 3.1-9.5 12-9.5s12.3 5.5 12.3 10.6c0 5.4-3.4 9.4-8.5 9.9-1.8 3.2-5 5.1-8.9 5.1h-.1 0z"/><path d="M113 109.6a6.71 6.71 0 0 1-2.8-.6c-.5.2-1.1.3-1.7.3H105c-.3 0-.6 0-.9-.1-.7.2-1.5.4-2.2.4-2.2 0-4.2-1-5.5-2.8-1.4-1.9-1.8-4.4-1.2-6.9l1.4-5.8c.6-2.2 2.4-3.7 4.6-3.7h3.5c.4 0 .8.1 1.2.2.4-.1.8-.2 1.2-.2h3.6a8.33 8.33 0 0 1 2.2-.3c3 .1 5.5 1.7 6.6 4.4.5 1.4.5 2.9-.2 4.2.2.3.4.5.5.8l.5 1c.9 1.9.6 4.2-.8 5.7-1.9 2.2-4.1 3.4-6.5 3.4h0zm16.6 4.9c-3.3 0-5.2-1.5-6.2-2.7-1.2-1.5-1.8-3.6-1.4-5.7.1-.8.4-1.5.8-2.2-.1-1.1.2-2.2.8-3.2l1.1-1.8-.3-.6c-.5-1.1-.7-2.3-.4-3.5l.2-.8c.5-2.2 2.4-3.8 4.6-3.8h3.6c.3 0 .6 0 .8.1.3-.1.6-.1.8-.1h3.5c1.5 0 2.9.7 3.8 1.9s1.2 2.8.9 4.3l-2.4 10c-1.2 4.8-5.1 7.9-10.1 7.9l-.1.2h0z"/><path d="M140.4 109.6c-2.5 0-4.7-1-6.1-2.7-1.2-1.6-1.8-3.6-1.5-5.7.2-1.3.9-2.6 2-3.3-.8-1.3-1.2-2.8-1.2-4.4 0-4.8 3.5-9.5 11.4-9.5 8.5 0 12.4 4.6 12.4 9.2 0 .7-.1 1.3-.2 2 .8 1.3 1.2 2.9 1.2 4.6 0 5.5-4.2 9.8-9.6 9.8-1.5 0-2.9-.3-4.2-.8-1.3.6-2.7.8-4.1.8h-.1 0z"/><path d="M164.8 109.6c-1.2 0-2.3-.3-3.3-.8-1 .5-2.2.8-3.6.8-4.8 0-8.5-3.8-8.5-8.8 0-5.8 4.6-10.7 10-10.7.9 0 1.7.1 2.5.4.3-.1.6-.1.8-.1 0-.1.1-.1.1-.2.7-1.9 2.5-3.2 4.4-3.2h.9c1.5 0 2.9.7 3.8 1.9.6.9 1 2 1 3.1l.3.3c.9 1.2 1.2 2.8.9 4.3l-.1.6c.5.7.9 1.5 1 2.3.2 1.4-.1 2.8-.9 4l-.1.2c-1.8 2.2-4.6 5.9-9.2 5.9h0zm-7.6-15h0zM136.1 118c-2.2 0-4.3-1-5.5-2.7-1.3-1.7-1.7-4-1.1-6.3.9-3.7 4.3-6.4 8-6.4 2.7 0 4.4 1.3 5.4 2.4 1.1 1.4 1.5 3.2 1 4.8 0 .4-.1.9-.2 1.3l-.6 2.3c-.3 1.2-1 2.2-1.9 2.8-1.7 1.2-3.4 1.8-5.1 1.8h0z"/><path d="M144.1 117.9c-.4 0-.9-.1-1.3-.2-.4.1-.9.2-1.3.2H140c-1.8 0-3.4-1-4.2-2.7s-.7-3.6.3-5.2l3.5-5.3c.9-1.3 2.4-2.2 3.9-2.2h1.3c2.4 0 4.3 1.8 4.7 4.2l.8 5.3c.2 1.4-.2 2.9-1.1 4s-2.2 1.8-3.6 1.8l-1.5.1h0z"/><path d="M151.4 117.9c-.4 0-.9-.1-1.3-.2-.4.1-.8.2-1.3.2h-1.4c-1.5 0-2.9-.7-3.8-2s-1.2-2.8-.8-4.3l1.3-5.2c.6-2.2 2.4-3.7 4.6-3.7h1.5c.4 0 .8.1 1.2.2.4-.1.8-.2 1.2-.2h1.5c1.5 0 2.9.7 3.8 2s1.2 2.8.8 4.3l-1.3 5.2c-.6 2.2-2.4 3.7-4.6 3.7h-1.4 0z"/><use xlink:href="#Bn"/><path d="M163.2 118c-2.3 0-4.4-.9-5.7-2.6-1.4-1.8-1.5-4.4-.2-6.2 0-.4.1-.8.2-1.2a7.06 7.06 0 0 1 6.9-5.4c2.7 0 4.3 1.2 5.3 2.2 1.5 1.6 1.8 4 .8 5.9 0 .6-.1 1.3-.2 1.9-.9 3.2-3.7 5.4-7.1 5.4h0zm-56.8-20.4c-.4 0-.8 0-1.1-.1-1.6-.3-3.1-1.3-4-2.7-1-1.5-1.3-3.3-1-5.2.6-3.3 3.2-5.7 6.2-5.7.4 0 .8 0 1.1.1 1.6.3 3.1 1.2 4 2.7 1 1.5 1.3 3.3 1 5.2-.6 3.4-3.1 5.7-6.2 5.7z"/><path d="M87.6 109.1c-2.6 0-4.7-1-6.1-2.7-1.3-1.6-1.8-3.6-1.5-5.7.2-1.3.9-2.6 2-3.3-.8-1.3-1.2-2.8-1.2-4.4 0-4.4 3.2-9.5 12-9.5s12.4 5.5 12.4 10.6c0 5.4-3.5 9.4-8.6 9.9-1.8 3.2-5 5.1-9 5.1h0z"/><path d="M113 109.1a6.71 6.71 0 0 1-2.8-.6c-.5.2-1.1.3-1.7.3h-3.6c-.3 0-.6 0-.9-.1-.7.2-1.4.4-2.2.4-2.2 0-4.2-1-5.5-2.8-1.4-1.9-1.8-4.4-1.2-6.9l1.4-5.8c.6-2.2 2.4-3.7 4.6-3.7h3.5c.4 0 .8.1 1.2.2.4-.1.8-.2 1.2-.2h3.7a8.33 8.33 0 0 1 2.2-.3c3 .1 5.5 1.7 6.6 4.4.6 1.4.5 2.9-.2 4.2.2.3.4.5.5.8l.5 1c.9 1.9.6 4.2-.8 5.7-1.9 2.2-4.2 3.4-6.5 3.4h0zm16.6 4.9c-3.3 0-5.2-1.5-6.2-2.7-1.2-1.5-1.8-3.6-1.5-5.7.1-.8.4-1.5.8-2.2-.1-1.1.2-2.2.8-3.2l1.1-1.8-.3-.6c-.5-1.1-.7-2.3-.4-3.5l.2-.8c.5-2.2 2.4-3.8 4.6-3.8h3.6c.3 0 .6 0 .8.1.3-.1.6-.1.8-.1h3.5c1.5 0 2.9.7 3.8 1.9s1.2 2.8.9 4.3l-2.4 10c-1.2 4.8-5.2 7.9-10.1 7.9v.2h0z"/><path d="M140.5 109.1c-2.5 0-4.7-1-6.1-2.7-1.3-1.6-1.8-3.6-1.5-5.7.2-1.3.9-2.6 2-3.3-.8-1.3-1.2-2.8-1.2-4.4 0-4.8 3.5-9.5 11.5-9.5 8.6 0 12.4 4.6 12.4 9.2 0 .7-.1 1.3-.2 2 .8 1.3 1.2 2.9 1.2 4.6 0 5.5-4.2 9.8-9.6 9.8-1.5 0-2.9-.3-4.2-.8-1.3.6-2.7.8-4.1.8h-.2 0z"/><path d="M165 109.1c-1.2 0-2.3-.3-3.4-.8-1.1.5-2.2.8-3.6.8-4.9 0-8.5-3.8-8.5-8.8 0-5.8 4.6-10.7 10.1-10.7.9 0 1.7.1 2.5.4.3-.1.6-.1.8-.1 0-.1.1-.1.1-.2.7-1.9 2.5-3.2 4.5-3.2h.9c1.5 0 2.9.7 3.8 1.9.7.9 1 2 1 3.1l.3.3c.9 1.2 1.2 2.8.9 4.3l-.1.6c.5.7.9 1.5 1 2.3.2 1.4-.1 2.8-1 4l-.1.2c-1.8 2.2-4.6 5.9-9.2 5.9h0zm-7.7-15h0zm-21.2 23.4c-2.3 0-4.3-1-5.6-2.7s-1.7-4-1.1-6.3c1-3.7 4.3-6.4 8-6.4 2.8 0 4.5 1.3 5.4 2.4 1.1 1.4 1.5 3.2 1 4.8 0 .4-.1.9-.2 1.3l-.6 2.3c-.3 1.2-1 2.2-1.9 2.8-1.5 1.2-3.2 1.8-5 1.8h0z"/><path d="M144.2 117.4c-.5 0-.9-.1-1.3-.2-.4.1-.9.2-1.3.2h-1.5c-1.8 0-3.4-1-4.2-2.7s-.7-3.6.3-5.2l3.5-5.3c.9-1.3 2.4-2.2 3.9-2.2h1.3c2.4 0 4.4 1.8 4.7 4.2l.8 5.3c.2 1.4-.2 2.9-1.1 4s-2.2 1.8-3.6 1.8l-1.5.1h0z"/><path d="M151.5 117.4c-.4 0-.9-.1-1.3-.2-.4.1-.9.2-1.3.2h-1.4c-1.5 0-2.9-.7-3.8-2s-1.2-2.8-.8-4.3l1.3-5.2c.6-2.2 2.4-3.7 4.6-3.7h1.5c.4 0 .8.1 1.2.2.4-.1.8-.2 1.2-.2h1.5c1.5 0 2.9.7 3.8 2 .9 1.2 1.2 2.8.8 4.3l-1.3 5.2c-.6 2.2-2.4 3.7-4.6 3.7h-1.4 0z"/><use xlink:href="#Bn" x=".1" y="-.5"/><path d="M163.4 117.5c-2.3 0-4.4-.9-5.8-2.6-1.5-1.8-1.5-4.4-.2-6.2 0-.4.1-.8.2-1.2.8-3.2 3.6-5.4 7-5.4 2.7 0 4.4 1.2 5.3 2.2 1.5 1.6 1.8 4 .8 5.9 0 .6-.1 1.3-.2 1.9-.9 3.2-3.7 5.4-7.1 5.4h0z"/><use xlink:href="#Bo"/><path d="M87.4 108.6c-2.6 0-4.7-1-6.1-2.7-1.3-1.6-1.8-3.6-1.5-5.7.2-1.3.9-2.6 2-3.3-.8-1.3-1.2-2.8-1.2-4.4 0-4.4 3.2-9.5 12.1-9.5s12.5 5.5 12.5 10.6c0 5.4-3.5 9.4-8.6 9.9-1.8 3.2-5.1 5.1-9 5.1h-.2z"/><path d="M112.9 108.6c-1 0-2-.2-2.8-.6-.5.2-1.1.3-1.7.3h-3.6c-.3 0-.6 0-.9-.1-.7.2-1.5.4-2.3.4-2.2 0-4.2-1-5.5-2.8-1.4-1.9-1.8-4.4-1.2-6.9l1.5-5.8c.6-2.2 2.5-3.7 4.7-3.7h3.6c.4 0 .8.1 1.2.2.4-.1.8-.2 1.2-.2h3.7a8.33 8.33 0 0 1 2.2-.3c3 .1 5.6 1.7 6.6 4.4.6 1.4.5 2.9-.2 4.2.2.3.4.5.5.8l.5 1c.9 1.9.6 4.2-.8 5.7-2.1 2.2-4.3 3.4-6.7 3.4h0zm16.7 4.9c-3.4 0-5.2-1.5-6.2-2.7-1.3-1.5-1.8-3.6-1.5-5.7.1-.8.4-1.5.8-2.2-.1-1.1.2-2.2.8-3.2l1.1-1.8-.3-.6c-.5-1.1-.7-2.3-.4-3.5l.2-.8c.5-2.2 2.5-3.8 4.7-3.8h3.6c.3 0 .6 0 .8.1.3-.1.6-.1.9-.1h3.6c1.5 0 2.9.7 3.8 1.9s1.2 2.8.9 4.3l-2.4 10c-1.2 4.8-5.2 7.9-10.2 7.9l-.2.2h0z"/><path d="M140.5 108.6c-2.5 0-4.7-1-6.1-2.7-1.3-1.6-1.8-3.6-1.5-5.7.2-1.3.9-2.6 2-3.3-.8-1.3-1.2-2.8-1.2-4.4 0-4.8 3.6-9.5 11.5-9.5 8.6 0 12.5 4.6 12.5 9.2 0 .7-.1 1.3-.2 2 .8 1.3 1.2 2.9 1.2 4.6 0 5.5-4.3 9.8-9.7 9.8-1.5 0-2.9-.3-4.2-.8-1.3.6-2.7.8-4.1.8h-.2 0z"/><path d="M165.1 108.6c-1.2 0-2.4-.3-3.4-.8-1.1.5-2.2.8-3.6.8-4.9 0-8.6-3.8-8.6-8.8 0-5.8 4.6-10.7 10.1-10.7.9 0 1.7.1 2.5.4.3-.1.6-.1.9-.1 0-.1.1-.1.1-.2.7-1.9 2.5-3.2 4.5-3.2h.9c1.5 0 2.9.7 3.8 1.9.7.9 1 2 1 3.1l.3.3c.9 1.2 1.2 2.8.9 4.3l-.1.6c.5.7.9 1.5 1 2.3.2 1.4-.1 2.8-1 4l-.1.2c-1.7 2.2-4.5 5.9-9.2 5.9h0zm-7.6-15h0zM136.1 117c-2.3 0-4.3-1-5.6-2.7s-1.7-4-1.1-6.3c1-3.7 4.3-6.4 8.1-6.4 2.8 0 4.5 1.3 5.4 2.4 1.2 1.4 1.5 3.2 1 4.8 0 .4-.1.9-.2 1.3l-.6 2.3c-.3 1.2-1 2.2-2 2.8-1.4 1.2-3.2 1.8-5 1.8h0z"/><path d="M144.3 116.9c-.5 0-.9-.1-1.3-.2-.4.1-.9.2-1.3.2h-1.5c-1.8 0-3.4-1-4.2-2.7s-.7-3.6.3-5.2l3.5-5.3c.9-1.3 2.4-2.2 3.9-2.2h1.3c2.4 0 4.4 1.8 4.8 4.2l.8 5.3c.2 1.4-.2 2.9-1.1 4s-2.2 1.8-3.6 1.8l-1.6.1h0z"/><path d="M151.7 116.9c-.4 0-.9-.1-1.3-.2-.4.1-.9.2-1.3.2h-1.4c-1.5 0-2.9-.7-3.8-2s-1.2-2.8-.8-4.3l1.4-5.2c.6-2.2 2.5-3.7 4.6-3.7h1.5c.4 0 .8.1 1.2.2.4-.1.8-.2 1.2-.2h1.5c1.5 0 2.9.7 3.8 2 .9 1.2 1.2 2.8.8 4.3l-1.4 5.2c-.6 2.2-2.5 3.7-4.6 3.7h-1.4 0z"/><path d="M155.4 116.9c-1.5 0-2.9-.7-3.8-2s-1.2-2.8-.8-4.3l1.4-5.2c.6-2.2 2.5-3.7 4.6-3.7h4c1.5 0 2.9.7 3.8 2s1.2 2.8.8 4.3l-.3 1.2c-.1.5-.3.9-.5 1.3 0 .5 0 1-.2 1.5l-.3 1.2c-.6 2.2-2.5 3.7-4.6 3.7h-4.1 0z"/><path d="M163.5 117c-2.4 0-4.4-.9-5.8-2.6-1.5-1.8-1.5-4.4-.2-6.2 0-.4.1-.8.2-1.2.8-3.2 3.6-5.4 7-5.4 2.7 0 4.4 1.2 5.3 2.2 1.5 1.6 1.8 4 .8 5.9 0 .6-.1 1.3-.2 1.9-.8 3.2-3.6 5.4-7.1 5.4h0z"/><use xlink:href="#Bo" x="-.1" y="-.5"/><path d="M87.2 108.1c-2.6 0-4.8-1-6.2-2.7-1.3-1.6-1.8-3.6-1.5-5.7.2-1.3.9-2.6 2-3.3-.8-1.3-1.2-2.8-1.2-4.4 0-4.4 3.2-9.5 12.2-9.5S105 88 105 93.1c0 5.4-3.5 9.4-8.7 9.9-1.8 3.2-5.1 5.1-9.1 5.1h0 0z"/><path d="M112.8 108.1c-1 0-2-.2-2.8-.6-.5.2-1.1.3-1.7.3h-3.6c-.3 0-.6 0-.9-.1-.7.2-1.4.4-2.3.4-2.2 0-4.2-1-5.5-2.8-1.4-1.9-1.8-4.4-1.2-6.9l1.5-5.8c.6-2.2 2.5-3.7 4.7-3.7h3.6c.4 0 .8.1 1.2.2.4-.1.8-.2 1.2-.2h3.7c.7-.2 1.5-.3 2.3-.3 3.1.1 5.6 1.7 6.6 4.4.6 1.4.5 2.9-.2 4.2.2.3.4.5.5.8l.5 1c.9 1.9.6 4.2-.8 5.7-2.2 2.2-4.4 3.4-6.8 3.4h0zm16.8 4.9c-3.4 0-5.3-1.5-6.2-2.7-1.3-1.5-1.8-3.6-1.5-5.7.1-.8.4-1.5.8-2.2-.1-1.1.2-2.2.8-3.2l1.1-1.8-.3-.6c-.5-1.1-.7-2.3-.4-3.5l.2-.8c.5-2.2 2.5-3.8 4.7-3.8h3.6c.3 0 .6 0 .8.1.3-.1.6-.1.9-.1h3.6c1.5 0 2.9.7 3.8 1.9s1.2 2.8.9 4.3l-2.4 10c-1.2 4.8-5.2 7.9-10.2 7.9l-.2.2h0z"/><path d="M140.6 108.1c-2.6 0-4.7-1-6.1-2.7-1.3-1.6-1.8-3.6-1.5-5.7.2-1.3.9-2.6 2-3.3-.8-1.3-1.2-2.8-1.2-4.4 0-4.8 3.6-9.5 11.6-9.5 8.7 0 12.5 4.6 12.5 9.2 0 .7-.1 1.3-.2 2a8.83 8.83 0 0 1 1.3 4.6c0 5.5-4.3 9.8-9.7 9.8-1.5 0-2.9-.3-4.3-.8-1.3.6-2.7.8-4.1.8h-.3z"/><path d="M165.3 108.1c-1.2 0-2.4-.3-3.4-.8-1.1.5-2.3.8-3.6.8-4.9 0-8.6-3.8-8.6-8.8 0-5.8 4.6-10.7 10.2-10.7.9 0 1.7.1 2.5.4.3-.1.6-.1.9-.1 0-.1.1-.1.1-.2.7-1.9 2.5-3.2 4.5-3.2h.9c1.5 0 2.9.7 3.8 1.9.7.9 1 2 1 3.1l.3.3c.9 1.2 1.2 2.8.9 4.3l-.1.6c.5.7.9 1.5 1 2.3.2 1.4-.1 2.8-1 4l-.1.2c-1.7 2.2-4.6 5.9-9.3 5.9h0zm-7.7-15h0zm-21.4 23.4c-2.3 0-4.3-1-5.6-2.7s-1.7-4-1.1-6.3c1-3.7 4.4-6.4 8.1-6.4 2.8 0 4.5 1.3 5.5 2.4 1.2 1.4 1.5 3.2 1 4.8 0 .4-.1.9-.2 1.3l-.6 2.3c-.3 1.2-1 2.2-2 2.8-1.6 1.2-3.3 1.8-5.1 1.8h0z"/><path d="M144.4 116.4c-.5 0-.9-.1-1.3-.2-.4.1-.9.2-1.3.2h-1.5c-1.8 0-3.4-1-4.3-2.7-.8-1.7-.7-3.6.3-5.2l3.5-5.3c.9-1.3 2.4-2.2 4-2.2h1.4c2.4 0 4.4 1.8 4.8 4.2l.8 5.3c.2 1.4-.2 2.9-1.1 4s-2.3 1.8-3.7 1.8l-1.6.1h0z"/><path d="M151.8 116.4c-.4 0-.9-.1-1.3-.2-.4.1-.9.2-1.3.2h-1.4c-1.5 0-2.9-.7-3.8-2s-1.2-2.8-.8-4.3l1.4-5.2c.6-2.2 2.5-3.7 4.7-3.7h1.5c.4 0 .8.1 1.2.2.4-.1.8-.2 1.2-.2h1.5c1.5 0 2.9.7 3.8 2 .9 1.2 1.2 2.8.8 4.3l-1.4 5.2c-.6 2.2-2.5 3.7-4.7 3.7h-1.4 0z"/><path d="M155.5 116.4c-1.5 0-2.9-.7-3.8-2s-1.2-2.8-.8-4.3l1.4-5.2c.6-2.2 2.5-3.7 4.7-3.7h4.1c1.5 0 2.9.7 3.8 2s1.2 2.8.8 4.3l-.3 1.2c-.1.5-.3.9-.5 1.3 0 .5 0 1-.2 1.5l-.3 1.2c-.6 2.2-2.5 3.7-4.7 3.7h-4.2 0z"/><path d="M163.7 116.5c-2.4 0-4.4-.9-5.8-2.6-1.5-1.8-1.5-4.4-.2-6.2 0-.4.1-.8.2-1.2.8-3.2 3.7-5.4 7.1-5.4 2.7 0 4.4 1.2 5.4 2.2 1.5 1.6 1.8 4 .8 5.9 0 .6-.1 1.3-.2 1.9-1 3.2-3.8 5.4-7.3 5.4h0zm-57.6-20.4c-.4 0-.8 0-1.2-.1-1.7-.3-3.1-1.3-4.1-2.7-1-1.5-1.4-3.3-1-5.2.6-3.3 3.2-5.7 6.3-5.7.4 0 .8 0 1.2.1 1.7.3 3.1 1.2 4.1 2.7s1.4 3.3 1.1 5.2c-.7 3.4-3.3 5.7-6.4 5.7h0 0z"/><path d="M87 107.6c-2.6 0-4.8-1-6.2-2.7-1.3-1.6-1.8-3.6-1.5-5.7.2-1.3.9-2.6 2-3.3-.8-1.3-1.2-2.8-1.2-4.4 0-4.4 3.2-9.5 12.2-9.5S105 87.5 105 92.6c0 5.4-3.5 9.4-8.7 9.9-1.8 3.2-5.1 5.1-9.1 5.1H87z"/><path d="M112.7 107.6c-1 0-2-.2-2.9-.6-.5.2-1.1.3-1.7.3h-3.6c-.3 0-.6 0-.9-.1-.7.2-1.5.4-2.3.4-2.2 0-4.2-1-5.6-2.8-1.4-1.9-1.9-4.4-1.2-6.9l1.5-5.8c.6-2.2 2.5-3.7 4.7-3.7h3.6c.4 0 .8.1 1.2.2.4-.1.8-.2 1.2-.2h3.7c.7-.2 1.5-.3 2.3-.3 3.1.1 5.6 1.7 6.7 4.4.6 1.4.5 2.9-.2 4.2.2.3.4.5.5.8l.5 1c.9 1.9.6 4.2-.8 5.7-2 2.2-4.3 3.4-6.7 3.4h0zm16.9 4.9c-3.4 0-5.3-1.5-6.3-2.7-1.3-1.5-1.8-3.6-1.5-5.7.1-.8.4-1.5.9-2.2-.1-1.1.2-2.2.8-3.2l1.1-1.8-.3-.6c-.5-1.1-.7-2.3-.4-3.5l.2-.8c.5-2.2 2.5-3.8 4.7-3.8h3.6c.3 0 .6 0 .9.1.3-.1.6-.1.9-.1h3.6c1.5 0 2.9.7 3.8 1.9s1.2 2.8.9 4.3l-2.5 10c-1.2 4.8-5.2 7.9-10.3 7.9l-.1.2h0z"/><path d="M140.7 107.6c-2.6 0-4.8-1-6.2-2.7-1.3-1.6-1.8-3.6-1.5-5.7.2-1.3.9-2.6 2-3.3-.8-1.3-1.2-2.8-1.2-4.4 0-4.8 3.6-9.5 11.6-9.5 8.7 0 12.6 4.6 12.6 9.2 0 .7-.1 1.3-.2 2a8.83 8.83 0 0 1 1.3 4.6c0 5.5-4.3 9.8-9.8 9.8a12.17 12.17 0 0 1-4.3-.8c-1.3.6-2.7.8-4.2.8h-.1 0z"/><path d="M165.5 107.6c-1.2 0-2.4-.3-3.4-.8-1.1.5-2.3.8-3.6.8-4.9 0-8.6-3.8-8.6-8.8 0-5.8 4.7-10.7 10.2-10.7.9 0 1.8.1 2.5.4.3-.1.6-.1.9-.1 0-.1.1-.1.1-.2.7-1.9 2.5-3.2 4.5-3.2h.9c1.5 0 2.9.7 3.8 1.9.7.9 1 2 1 3.1l.3.3c.9 1.2 1.2 2.8.9 4.3l-.1.6c.5.7.9 1.5 1.1 2.3.2 1.4-.1 2.8-1 4l-.1.2c-1.8 2.2-4.7 5.9-9.4 5.9h0zm-7.7-15h0zM136.2 116c-2.3 0-4.4-1-5.6-2.7-1.3-1.7-1.7-4-1.1-6.3 1-3.7 4.4-6.4 8.1-6.4 2.8 0 4.5 1.3 5.5 2.4 1.2 1.4 1.5 3.2 1 4.8 0 .4-.1.9-.2 1.3l-.6 2.3c-.3 1.2-1 2.2-2 2.8-1.5 1.2-3.3 1.8-5.1 1.8h0z"/><path d="M144.5 115.9c-.5 0-.9-.1-1.4-.2-.4.1-.9.2-1.3.2h-1.5c-1.8 0-3.5-1-4.3-2.7s-.7-3.6.3-5.2l3.5-5.3c.9-1.3 2.4-2.2 4-2.2h1.4c2.4 0 4.4 1.8 4.8 4.2l.8 5.3c.2 1.4-.2 2.9-1.1 4s-2.3 1.8-3.7 1.8l-1.5.1h0z"/><path d="M151.9 115.9c-.4 0-.9-.1-1.3-.2-.4.1-.9.2-1.3.2h-1.4c-1.5 0-2.9-.7-3.9-2s-1.2-2.8-.8-4.3l1.4-5.2c.6-2.2 2.5-3.7 4.7-3.7h1.5c.4 0 .8.1 1.2.2.4-.1.8-.2 1.2-.2h1.5c1.5 0 2.9.7 3.9 2 .9 1.2 1.2 2.8.8 4.3l-1.4 5.2c-.6 2.2-2.5 3.7-4.7 3.7h-1.4 0z"/><use xlink:href="#Bp"/><path d="M163.9 116c-2.4 0-4.5-.9-5.9-2.6-1.5-1.8-1.5-4.4-.2-6.2 0-.4.1-.8.2-1.2.8-3.2 3.7-5.4 7.1-5.4 2.7 0 4.4 1.2 5.4 2.2 1.5 1.6 1.8 4 .8 5.9 0 .6-.1 1.3-.2 1.9-.8 3.2-3.7 5.4-7.2 5.4h0zM106 95.6c-.4 0-.8 0-1.2-.1-1.7-.3-3.2-1.3-4.1-2.7-1-1.5-1.4-3.3-1.1-5.2.6-3.3 3.2-5.7 6.3-5.7.4 0 .8 0 1.2.1 1.7.3 3.1 1.2 4.1 2.7s1.4 3.3 1.1 5.2c-.6 3.4-3.2 5.7-6.3 5.7h0 0z"/><path d="M86.8 107.1c-2.6 0-4.8-1-6.2-2.7-1.3-1.6-1.8-3.6-1.5-5.7.2-1.3.9-2.6 2-3.3-.8-1.3-1.2-2.8-1.2-4.4 0-4.4 3.2-9.5 12.3-9.5s12.7 5.5 12.7 10.6c0 5.4-3.5 9.4-8.7 9.9-1.8 3.2-5.1 5.1-9.2 5.1h-.2 0z"/><path d="M112.7 107.1c-1 0-2-.2-2.9-.6-.5.2-1.1.3-1.7.3h-3.6c-.3 0-.6 0-.9-.1-.7.2-1.5.4-2.3.4-2.2 0-4.3-1-5.6-2.8-1.4-1.9-1.9-4.4-1.2-6.9l1.5-5.8c.6-2.2 2.5-3.7 4.7-3.7h3.6c.4 0 .8.1 1.2.2.4-.1.8-.2 1.2-.2h3.7c.7-.2 1.5-.3 2.3-.3 3.1.1 5.6 1.7 6.7 4.4.6 1.4.5 2.9-.2 4.2.2.3.4.5.5.8l.5 1c.9 1.9.6 4.2-.8 5.7-2.1 2.2-4.3 3.4-6.7 3.4h0zm16.9 4.9c-3.4 0-5.3-1.5-6.3-2.7-1.3-1.5-1.8-3.6-1.5-5.7.1-.8.4-1.5.9-2.2-.1-1.1.2-2.2.8-3.2l1.1-1.8-.3-.6c-.5-1.1-.7-2.3-.4-3.5l.2-.8c.6-2.2 2.5-3.8 4.7-3.8h3.6c.3 0 .6 0 .9.1.3-.1.6-.1.9-.1h3.6c1.5 0 2.9.7 3.9 1.9.9 1.2 1.2 2.8.9 4.3l-2.5 10c-1.2 4.8-5.2 7.9-10.3 7.9l-.2.2h0z"/><path d="M140.7 107.1c-2.6 0-4.8-1-6.2-2.7-1.3-1.6-1.8-3.6-1.5-5.7.2-1.3.9-2.6 2-3.3-.8-1.3-1.2-2.8-1.2-4.4 0-4.8 3.6-9.5 11.7-9.5 8.8 0 12.7 4.6 12.7 9.2 0 .7-.1 1.3-.2 2a8.83 8.83 0 0 1 1.3 4.6c0 5.5-4.3 9.8-9.8 9.8a12.17 12.17 0 0 1-4.3-.8c-1.3.6-2.7.8-4.2.8h-.3 0z"/><path d="M165.7 107.1c-1.2 0-2.4-.3-3.4-.8-1.1.5-2.3.8-3.7.8-4.9 0-8.7-3.8-8.7-8.8 0-5.8 4.7-10.7 10.3-10.7.9 0 1.8.1 2.6.4.3-.1.6-.1.9-.1 0-.1.1-.1.1-.2a4.88 4.88 0 0 1 4.6-3.2h.9c1.5 0 2.9.7 3.9 1.9.7.9 1 2 1 3.1l.3.3c.9 1.2 1.2 2.8.9 4.3l-.1.6c.5.7.9 1.5 1.1 2.3.2 1.4-.1 2.8-1 4l-.1.2c-2 2.2-4.9 5.9-9.6 5.9h0zm-7.8-15h0zm-21.6 23.4c-2.3 0-4.4-1-5.7-2.7s-1.7-4-1.1-6.3c1-3.7 4.4-6.4 8.2-6.4 2.8 0 4.6 1.3 5.5 2.4 1.2 1.4 1.5 3.2 1 4.8 0 .4-.1.9-.2 1.3l-.6 2.3c-.3 1.2-1 2.2-2 2.8-1.5 1.2-3.3 1.8-5.1 1.8h0z"/><path d="M144.5 115.4c-.5 0-.9-.1-1.4-.2-.4.1-.9.2-1.4.2h-1.5c-1.8 0-3.5-1-4.3-2.7s-.7-3.6.3-5.2l3.6-5.3c.9-1.3 2.4-2.2 4-2.2h1.4c2.4 0 4.4 1.8 4.8 4.2l.8 5.3c.2 1.4-.2 2.9-1.1 4s-2.3 1.8-3.7 1.8l-1.5.1h0z"/><path d="M152 115.4c-.4 0-.9-.1-1.3-.2-.4.1-.9.2-1.3.2H148c-1.5 0-2.9-.7-3.9-2s-1.2-2.8-.8-4.3l1.4-5.2c.6-2.2 2.5-3.7 4.7-3.7h1.5c.4 0 .8.1 1.2.2.4-.1.8-.2 1.2-.2h1.5c1.5 0 2.9.7 3.9 2s1.2 2.8.8 4.3l-1.4 5.2c-.6 2.2-2.5 3.7-4.7 3.7H152h0z"/><use xlink:href="#Bp" x=".1" y="-.5"/><path d="M164.1 115.5c-2.4 0-4.5-.9-5.9-2.6-1.5-1.8-1.5-4.4-.2-6.2 0-.4.1-.8.2-1.2.9-3.2 3.7-5.4 7.1-5.4 2.7 0 4.4 1.2 5.4 2.2 1.5 1.6 1.8 4 .8 5.9 0 .6-.1 1.3-.2 1.9-.8 3.2-3.7 5.4-7.2 5.4h0zm-58.2-20.4c-.4 0-.8 0-1.2-.1-1.7-.3-3.2-1.3-4.1-2.7-1-1.5-1.4-3.3-1.1-5.2.6-3.3 3.2-5.7 6.4-5.7.4 0 .8 0 1.2.1 1.7.3 3.2 1.3 4.1 2.7 1 1.5 1.4 3.3 1.1 5.2-.6 3.4-3.3 5.7-6.4 5.7h0 0z"/><path d="M86.6 106.6c-2.6 0-4.8-1-6.3-2.7-1.3-1.6-1.8-3.6-1.5-5.7.2-1.3.9-2.6 2-3.3-.8-1.3-1.2-2.8-1.2-4.4 0-4.4 3.2-9.5 12.3-9.5s12.7 5.5 12.7 10.6c0 5.4-3.6 9.4-8.8 9.9-1.8 3.2-5.2 5.1-9.2 5.1h0z"/><path d="M112.6 106.6c-1 0-2-.2-2.9-.6-.6.2-1.2.3-1.8.3h-3.7c-.3 0-.6 0-.9-.1-.7.2-1.5.4-2.3.4-2.2 0-4.3-1-5.6-2.8-1.4-1.9-1.9-4.4-1.2-6.9l1.5-5.8c.6-2.2 2.5-3.7 4.7-3.7h3.6c.4 0 .8.1 1.2.2.4-.1.8-.2 1.2-.2h3.8c.7-.2 1.5-.3 2.3-.3 3.1.1 5.7 1.7 6.8 4.4.6 1.4.5 2.9-.2 4.2.2.3.4.5.5.8l.5 1c.9 1.9.6 4.2-.8 5.7-2 2.2-4.3 3.4-6.7 3.4h0zm17 4.9c-3.4 0-5.3-1.5-6.3-2.7-1.3-1.5-1.8-3.6-1.5-5.7.1-.8.4-1.5.9-2.2-.1-1.1.2-2.2.8-3.2l1.1-1.8-.3-.6c-.5-1.1-.7-2.3-.4-3.5l.2-.8c.6-2.2 2.5-3.8 4.8-3.8h3.7c.3 0 .6 0 .9.1.3-.1.6-.1.9-.1h3.6c1.5 0 3 .7 3.9 1.9s1.2 2.8.9 4.3l-2.5 10c-1.2 4.8-5.3 7.9-10.4 7.9l-.3.2h0z"/><path d="M140.8 106.6c-2.6 0-4.8-1-6.2-2.7-1.3-1.6-1.8-3.6-1.5-5.7.2-1.3.9-2.6 2-3.3-.8-1.3-1.2-2.8-1.2-4.4 0-4.8 3.6-9.5 11.8-9.5 8.8 0 12.7 4.6 12.7 9.2 0 .7-.1 1.3-.2 2a8.83 8.83 0 0 1 1.3 4.6c0 5.5-4.3 9.8-9.9 9.8a12.17 12.17 0 0 1-4.3-.8c-1.3.6-2.8.8-4.2.8h-.3 0z"/><path d="M165.9 106.6c-1.2 0-2.4-.3-3.4-.8-1.1.5-2.3.8-3.7.8-5 0-8.7-3.8-8.7-8.8 0-5.8 4.7-10.7 10.3-10.7.9 0 1.8.1 2.6.4.3-.1.6-.1.9-.1 0-.1.1-.1.1-.2.7-1.9 2.6-3.2 4.6-3.2h.9c1.5 0 2.9.7 3.9 1.9.7.9 1 2 1 3.1l.3.3c.9 1.2 1.2 2.8.9 4.3l-.1.6c.5.7.9 1.5 1.1 2.3.2 1.4-.1 2.8-1 4l-.1.2c-1.9 2.2-4.8 5.9-9.6 5.9h0zm-7.8-15h0zM136.3 115c-2.3 0-4.4-1-5.7-2.7s-1.7-4-1.1-6.3c1-3.7 4.4-6.4 8.2-6.4 2.8 0 4.6 1.3 5.6 2.4a5.17 5.17 0 0 1 1 4.8c0 .4-.1.9-.2 1.3l-.6 2.3c-.3 1.2-1 2.2-2 2.8-1.6 1.2-3.4 1.8-5.2 1.8h0z"/><path d="M144.6 114.9c-.5 0-.9-.1-1.4-.2-.4.1-.9.2-1.4.2h-1.5c-1.8 0-3.5-1-4.3-2.7s-.7-3.6.3-5.2l3.6-5.3c.9-1.3 2.4-2.2 4-2.2h1.4c2.4 0 4.5 1.8 4.8 4.2l.8 5.3c.2 1.4-.2 2.9-1.1 4s-2.3 1.8-3.7 1.8l-1.5.1h0z"/><path d="M152.1 114.9c-.4 0-.9-.1-1.3-.2-.4.1-.9.2-1.3.2h-1.4c-1.5 0-3-.7-3.9-2a5.52 5.52 0 0 1-.9-4.3l1.4-5.2c.6-2.2 2.5-3.7 4.7-3.7h1.5c.4 0 .8.1 1.2.2.4-.1.8-.2 1.2-.2h1.5c1.5 0 3 .7 3.9 2a5.52 5.52 0 0 1 .9 4.3l-1.4 5.2c-.6 2.2-2.5 3.7-4.7 3.7h-1.4 0z"/><path d="M155.9 114.9c-1.5 0-3-.7-3.9-2a5.52 5.52 0 0 1-.9-4.3l1.4-5.2c.6-2.2 2.5-3.7 4.7-3.7h4.1c1.5 0 3 .7 3.9 2a5.52 5.52 0 0 1 .9 4.3l-.3 1.2c-.1.5-.3.9-.5 1.3 0 .5 0 1-.2 1.5l-.3 1.2c-.6 2.2-2.5 3.7-4.7 3.7h-4.2 0z"/><path d="M164.3 115c-2.4 0-4.5-.9-5.9-2.6-1.5-1.8-1.5-4.4-.2-6.2 0-.4.1-.8.2-1.2.9-3.2 3.7-5.4 7.2-5.4 2.8 0 4.5 1.2 5.4 2.2 1.5 1.6 1.8 4 .8 5.9 0 .6-.1 1.3-.2 1.9-.9 3.2-3.8 5.4-7.3 5.4h0zm-58.5-20.4c-.4 0-.8 0-1.2-.1-1.7-.3-3.2-1.3-4.2-2.7-1-1.5-1.4-3.3-1.1-5.2.6-3.3 3.2-5.7 6.4-5.7.4 0 .8 0 1.2.1 1.7.3 3.2 1.2 4.2 2.7s1.4 3.3 1.1 5.2c-.6 3.4-3.3 5.7-6.4 5.7z"/><path d="M86.4 106.1c-2.6 0-4.9-1-6.3-2.7-1.3-1.6-1.8-3.6-1.5-5.7.2-1.3.9-2.6 2.1-3.3-.8-1.3-1.2-2.8-1.2-4.4 0-4.4 3.2-9.5 12.4-9.5s12.8 5.5 12.8 10.6c0 5.4-3.6 9.4-8.8 9.9-1.8 3.2-5.2 5.1-9.3 5.1h-.2 0z"/><path d="M112.5 106.1c-1 0-2-.2-2.9-.6-.6.2-1.2.3-1.8.3h-3.7c-.3 0-.6 0-.9-.1-.8.2-1.5.4-2.3.4-2.2 0-4.3-1-5.7-2.8-1.4-1.9-1.9-4.4-1.2-6.9l1.5-5.8c.6-2.2 2.5-3.7 4.8-3.7h3.7c.4 0 .8.1 1.2.2.4-.1.8-.2 1.2-.2h3.8c.8-.2 1.5-.3 2.3-.3 3.1.1 5.7 1.7 6.8 4.4.6 1.4.5 2.9-.2 4.2.2.3.4.5.5.8l.5 1c.9 1.9.6 4.2-.8 5.7-2.1 2.2-4.4 3.4-6.8 3.4h0zm17.1 4.9c-3.4 0-5.4-1.5-6.4-2.7-1.3-1.5-1.8-3.6-1.5-5.7.1-.8.4-1.5.9-2.2-.1-1.1.2-2.2.8-3.2l1.1-1.8-.3-.6c-.5-1.1-.7-2.3-.4-3.5l.2-.8c.6-2.2 2.5-3.8 4.8-3.8h3.7c.3 0 .6 0 .9.1.3-.1.6-.1.9-.1h3.6c1.5 0 3 .7 3.9 1.9s1.3 2.8.9 4.3l-2.5 10c-1.2 4.8-5.3 7.9-10.4 7.9l-.2.2h0z"/><path d="M140.9 106.1c-2.6 0-4.8-1-6.3-2.7-1.3-1.6-1.8-3.6-1.5-5.7.2-1.3.9-2.6 2.1-3.3-.8-1.3-1.2-2.8-1.2-4.4 0-4.8 3.7-9.5 11.8-9.5 8.8 0 12.8 4.6 12.8 9.2 0 .7-.1 1.3-.2 2a8.83 8.83 0 0 1 1.3 4.6c0 5.5-4.4 9.8-9.9 9.8-1.5 0-3-.3-4.4-.8-1.3.6-2.8.8-4.2.8h-.3 0z"/><path d="M166.1 106.1c-1.2 0-2.4-.3-3.4-.8-1.1.5-2.3.8-3.7.8-5 0-8.8-3.8-8.8-8.8 0-5.8 4.8-10.7 10.4-10.7.9 0 1.8.1 2.6.4.3-.1.6-.1.9-.1 0-.1.1-.1.1-.2.7-1.9 2.6-3.2 4.6-3.2h.9c1.5 0 3 .7 3.9 1.9.7.9 1 2 1 3.1l.3.3c.9 1.2 1.3 2.8.9 4.3l-.1.6c.5.7.9 1.5 1.1 2.3.2 1.4-.1 2.8-1 4l-.1.2c-1.9 2.2-4.8 5.9-9.6 5.9h0zm-7.9-15h0zm-21.8 23.4c-2.3 0-4.4-1-5.7-2.7s-1.7-4-1.1-6.3c1-3.7 4.5-6.4 8.3-6.4 2.8 0 4.6 1.3 5.6 2.4 1.2 1.3 1.5 3.1 1 4.8 0 .4-.1.9-.2 1.3l-.6 2.3c-.3 1.2-1 2.2-2 2.8-1.7 1.2-3.5 1.8-5.3 1.8h0z"/><path d="M144.7 114.4c-.5 0-.9-.1-1.4-.2-.4.1-.9.2-1.4.2h-1.5c-1.8 0-3.5-1-4.4-2.7s-.7-3.6.3-5.2l3.6-5.3c.9-1.3 2.4-2.2 4.1-2.2h1.4c2.4 0 4.5 1.8 4.9 4.2l.8 5.3c.2 1.4-.2 2.9-1.1 4s-2.3 1.8-3.7 1.8l-1.6.1h0z"/><path d="M152.3 114.4c-.4 0-.9-.1-1.3-.2-.4.1-.9.2-1.3.2h-1.4c-1.5 0-3-.7-3.9-2a5.52 5.52 0 0 1-.9-4.3l1.4-5.2c.6-2.2 2.5-3.7 4.8-3.7h1.5c.4 0 .8.1 1.2.2.4-.1.8-.2 1.2-.2h1.5c1.5 0 3 .7 3.9 2a5.52 5.52 0 0 1 .9 4.3l-1.4 5.2c-.6 2.2-2.5 3.7-4.8 3.7h-1.4 0z"/><path d="M156.1 114.4c-1.5 0-3-.7-3.9-2a5.52 5.52 0 0 1-.9-4.3l1.4-5.2c.6-2.2 2.5-3.7 4.8-3.7h4.1c1.5 0 3 .7 3.9 2a5.52 5.52 0 0 1 .9 4.3l-.3 1.2c-.1.5-.3.9-.5 1.3 0 .5 0 1-.2 1.5l-.3 1.2c-.6 2.2-2.5 3.7-4.8 3.7h-4.2 0z"/><path d="M164.5 114.5c-2.4 0-4.5-.9-5.9-2.6-1.5-1.8-1.5-4.4-.2-6.2 0-.4.1-.8.2-1.2.9-3.2 3.8-5.4 7.2-5.4 2.8 0 4.5 1.2 5.5 2.2 1.5 1.6 1.8 4 .8 5.9 0 .6-.1 1.3-.2 1.9-1 3.2-3.9 5.4-7.4 5.4h0zm-58.9-20.4c-.4 0-.8 0-1.2-.1-1.7-.3-3.2-1.3-4.2-2.7-1-1.5-1.4-3.3-1.1-5.2.6-3.3 3.3-5.7 6.4-5.7.4 0 .8 0 1.2.1 1.7.3 3.2 1.2 4.2 2.7s1.4 3.3 1.1 5.2c-.5 3.4-3.2 5.7-6.4 5.7z"/><path d="M86.2 105.6c-2.7 0-4.9-1-6.3-2.7-1.3-1.6-1.8-3.6-1.5-5.7.2-1.3.9-2.6 2.1-3.3-.8-1.3-1.2-2.8-1.2-4.4 0-4.4 3.3-9.5 12.5-9.5s12.9 5.5 12.9 10.6c0 5.4-3.6 9.4-8.9 9.9-1.8 3.2-5.2 5.1-9.3 5.1h-.3z"/><path d="M112.4 105.6c-1 0-2-.2-2.9-.6-.6.2-1.2.3-1.8.3H104c-.3 0-.6 0-.9-.1-.7.2-1.5.4-2.3.4-2.2 0-4.3-1-5.7-2.8-1.4-1.9-1.9-4.4-1.2-6.9l1.5-5.8c.6-2.2 2.5-3.7 4.8-3.7h3.7c.4 0 .8.1 1.2.2.4-.1.8-.2 1.2-.2h3.8c.8-.2 1.5-.3 2.3-.3 3.1.1 5.7 1.7 6.8 4.4.6 1.4.5 2.9-.2 4.2.2.3.4.5.5.8l.5 1c.9 1.9.6 4.2-.8 5.7-2 2.2-4.3 3.4-6.8 3.4h0zm17.2 4.9c-3.5 0-5.4-1.5-6.4-2.7-1.3-1.5-1.8-3.6-1.5-5.7.1-.8.4-1.5.9-2.2-.1-1.1.2-2.2.8-3.2l1.1-1.8-.3-.6c-.5-1.1-.7-2.3-.4-3.5l.2-.8c.6-2.2 2.5-3.8 4.8-3.8h3.7c.3 0 .6 0 .9.1.3-.1.6-.1.9-.1h3.7c1.5 0 3 .7 3.9 1.9s1.3 2.8.9 4.3l-2.5 10c-1.2 4.8-5.3 7.9-10.5 7.9l-.2.2h0z"/><path d="M140.9 105.6c-2.6 0-4.9-1-6.3-2.7-1.3-1.6-1.8-3.6-1.5-5.7.2-1.3.9-2.6 2.1-3.3-.8-1.3-1.2-2.8-1.2-4.4 0-4.8 3.7-9.5 11.9-9.5 8.9 0 12.9 4.6 12.9 9.2 0 .7-.1 1.3-.2 2a8.83 8.83 0 0 1 1.3 4.6c0 5.5-4.4 9.8-10 9.8-1.5 0-3-.3-4.4-.8-1.3.6-2.8.8-4.3.8h-.3 0z"/><path d="M166.3 105.6c-1.2 0-2.4-.3-3.5-.8-1.1.5-2.3.8-3.7.8-5 0-8.8-3.8-8.8-8.8 0-5.8 4.8-10.7 10.4-10.7.9 0 1.8.1 2.6.4.3-.1.6-.1.9-.1 0-.1.1-.1.1-.2.7-1.9 2.6-3.2 4.6-3.2h1c1.5 0 3 .7 3.9 1.9.7.9 1 2 1 3.1l.3.3c.9 1.2 1.3 2.8.9 4.3l-.1.6c.5.7.9 1.5 1.1 2.3.2 1.4-.1 2.8-1 4l-.1.2c-1.9 2.2-4.8 5.9-9.6 5.9h0zm-7.9-15h0zm-22 23.4c-2.3 0-4.4-1-5.8-2.7-1.3-1.7-1.7-4-1.1-6.3 1-3.7 4.5-6.4 8.3-6.4 2.9 0 4.6 1.3 5.6 2.4 1.2 1.3 1.5 3.1 1 4.8 0 .4-.1.9-.2 1.3l-.6 2.3c-.3 1.2-1 2.2-2 2.8-1.6 1.2-3.4 1.8-5.2 1.8h0z"/><path d="M144.8 113.9c-.5 0-.9-.1-1.4-.2-.4.1-.9.2-1.4.2h-1.5c-1.8 0-3.5-1-4.4-2.7s-.7-3.6.3-5.2l3.6-5.3c.9-1.3 2.4-2.2 4.1-2.2h1.4c2.4 0 4.5 1.8 4.9 4.2l.8 5.3c.2 1.4-.2 2.9-1.1 4s-2.3 1.8-3.8 1.8l-1.5.1h0z"/><path d="M152.4 113.9c-.5 0-.9-.1-1.3-.2-.4.1-.9.2-1.3.2h-1.4c-1.5 0-3-.7-3.9-2a5.52 5.52 0 0 1-.9-4.3l1.4-5.2c.6-2.2 2.5-3.7 4.8-3.7h1.5c.4 0 .8.1 1.2.2.4-.1.8-.2 1.2-.2h1.5c1.5 0 3 .7 3.9 2a5.52 5.52 0 0 1 .9 4.3l-1.4 5.2c-.6 2.2-2.5 3.7-4.8 3.7h-1.4 0z"/><path d="M156.2 113.9c-1.5 0-3-.7-3.9-2a5.52 5.52 0 0 1-.9-4.3l1.4-5.2c.6-2.2 2.5-3.7 4.8-3.7h4.2c1.5 0 3 .7 3.9 2a5.52 5.52 0 0 1 .9 4.3l-.3 1.2c-.1.5-.3.9-.5 1.3 0 .5 0 1-.2 1.5l-.3 1.2c-.6 2.2-2.5 3.7-4.8 3.7h-4.3 0z"/><path d="M164.6 114c-2.4 0-4.6-.9-6-2.6-1.5-1.8-1.6-4.4-.2-6.2 0-.4.1-.8.2-1.2.9-3.2 3.8-5.4 7.2-5.4 2.8 0 4.5 1.2 5.5 2.2 1.6 1.6 1.8 4 .8 5.9 0 .6-.1 1.3-.2 1.9-.8 3.2-3.7 5.4-7.3 5.4h0zm-59.1-20.4c-.4 0-.8 0-1.2-.1-1.7-.3-3.2-1.3-4.2-2.7-1-1.5-1.4-3.3-1.1-5.2.6-3.3 3.3-5.7 6.5-5.7.4 0 .8 0 1.2.1 1.7.3 3.2 1.2 4.2 2.7s1.4 3.3 1.1 5.2c-.6 3.4-3.3 5.7-6.5 5.7z"/><path d="M86 105.1c-2.7 0-4.9-1-6.4-2.7-1.3-1.6-1.8-3.6-1.5-5.7.2-1.3 1-2.6 2.1-3.3-.8-1.3-1.2-2.8-1.2-4.4 0-4.4 3.3-9.5 12.5-9.5s12.9 5.5 12.9 10.6c0 5.4-3.6 9.4-8.9 9.9-1.8 3.2-5.2 5.1-9.4 5.1H86z"/><path d="M112.4 105.1c-1 0-2-.2-2.9-.6-.6.2-1.2.3-1.8.3H104c-.3 0-.6 0-.9-.1-.7.2-1.5.4-2.3.4-2.3 0-4.3-1-5.7-2.8-1.4-1.9-1.9-4.4-1.2-6.9l1.5-5.8c.6-2.2 2.6-3.7 4.8-3.7h3.7c.4 0 .8.1 1.2.2.4-.1.8-.2 1.2-.2h3.8c.8-.2 1.5-.3 2.3-.3 3.2.1 5.7 1.7 6.8 4.4.6 1.4.5 2.9-.2 4.2.2.3.4.5.5.8l.5 1c.9 1.9.6 4.2-.8 5.7-2 2.2-4.4 3.4-6.8 3.4h0zm17.3 4.9c-3.5 0-5.4-1.5-6.4-2.7-1.3-1.5-1.8-3.6-1.5-5.7.1-.8.4-1.5.9-2.2-.1-1.1.2-2.2.8-3.2l1.1-1.8-.3-.6c-.5-1.1-.7-2.3-.4-3.5l.2-.8c.6-2.2 2.5-3.8 4.8-3.8h3.7c.3 0 .6 0 .9.1.3-.1.6-.1.9-.1h3.7c1.5 0 3 .7 3.9 1.9s1.3 2.8.9 4.3l-2.5 10c-1.2 4.8-5.4 7.9-10.5 7.9l-.2.2h0z"/><path d="M141 105.1c-2.6 0-4.9-1-6.3-2.7-1.3-1.6-1.9-3.6-1.5-5.7.2-1.3 1-2.6 2.1-3.3-.8-1.3-1.2-2.8-1.2-4.4 0-4.8 3.7-9.5 11.9-9.5 8.9 0 12.9 4.6 12.9 9.2 0 .7-.1 1.3-.2 2a8.83 8.83 0 0 1 1.3 4.6c0 5.5-4.4 9.8-10 9.8-1.5 0-3-.3-4.4-.8-1.3.6-2.8.8-4.3.8h-.3 0z"/><path d="M166.5 105.1c-1.2 0-2.4-.3-3.5-.8-1.1.5-2.3.8-3.7.8-5.1 0-8.9-3.8-8.9-8.8 0-5.8 4.8-10.7 10.5-10.7.9 0 1.8.1 2.6.4.3-.1.6-.1.9-.1 0-.1.1-.1.1-.2.7-1.9 2.6-3.2 4.6-3.2h1c1.5 0 3 .7 3.9 1.9.7.9 1 2 1 3.1l.3.3c.9 1.2 1.3 2.8.9 4.3l-.1.6c.6.7.9 1.5 1.1 2.3.3 1.4-.1 2.9-1 4l-.1.2c-1.8 2.2-4.8 5.9-9.6 5.9h0zm-8-15h0zm-22.1 23.4c-2.4 0-4.5-1-5.8-2.7s-1.7-4-1.1-6.3c1-3.7 4.5-6.4 8.3-6.4 2.9 0 4.6 1.3 5.6 2.4 1.2 1.3 1.5 3.1 1 4.8 0 .4-.1.9-.2 1.3l-.6 2.3c-.3 1.2-1 2.2-2 2.8-1.5 1.2-3.3 1.8-5.2 1.8h0z"/><path d="M144.9 113.4c-.5 0-.9-.1-1.4-.2-.4.1-.9.2-1.4.2h-1.5c-1.9 0-3.6-1-4.4-2.7-.9-1.6-.7-3.6.3-5.2l3.6-5.3c.9-1.3 2.5-2.2 4.1-2.2h1.4c2.4 0 4.5 1.8 4.9 4.2l.8 5.3c.2 1.4-.2 2.9-1.1 4s-2.3 1.7-3.8 1.8l-1.5.1h0z"/><path d="M152.5 113.4c-.5 0-.9-.1-1.3-.2-.4.1-.9.2-1.3.2h-1.4c-1.6 0-3-.7-3.9-2s-1.3-2.8-.9-4.3l1.4-5.2c.6-2.2 2.6-3.7 4.8-3.7h1.5c.4 0 .8.1 1.2.2.4-.1.8-.2 1.2-.2h1.5c1.6 0 3 .7 3.9 2s1.3 2.8.9 4.3l-1.4 5.2c-.6 2.2-2.6 3.7-4.8 3.7h-1.4 0z"/><path d="M156.4 113.4c-1.6 0-3-.7-3.9-2s-1.3-2.8-.9-4.3l1.4-5.2c.6-2.2 2.6-3.7 4.8-3.7h4.2c1.6 0 3 .7 3.9 2s1.3 2.8.9 4.3l-.3 1.2c-.1.5-.3.9-.5 1.3 0 .5 0 1-.2 1.5l-.3 1.2c-.6 2.2-2.6 3.7-4.8 3.7h-4.3 0z"/><path d="M164.8 113.5c-2.4 0-4.6-.9-6-2.6-1.5-1.8-1.6-4.4-.2-6.2 0-.4.1-.8.2-1.2.9-3.2 3.8-5.4 7.3-5.4 2.8 0 4.5 1.2 5.5 2.2 1.6 1.6 1.8 4 .8 5.9 0 .6-.1 1.3-.2 1.9-.9 3.2-3.8 5.4-7.4 5.4h0zm-59.4-20.4c-.4 0-.8 0-1.2-.1-1.7-.3-3.2-1.3-4.2-2.7-1-1.5-1.4-3.3-1.1-5.2.6-3.3 3.3-5.7 6.5-5.7.4 0 .8 0 1.2.1 1.7.3 3.2 1.2 4.2 2.7s1.4 3.3 1.1 5.2c-.6 3.4-3.2 5.7-6.5 5.7h0 0z"/><path d="M85.8 104.6c-2.7 0-4.9-1-6.4-2.7-1.3-1.6-1.9-3.6-1.5-5.7.2-1.3 1-2.6 2.1-3.3-.8-1.3-1.2-2.8-1.2-4.4 0-4.4 3.3-9.5 12.6-9.5s13 5.5 13 10.6c0 5.4-3.6 9.4-9 9.9-1.9 3.2-5.3 5.1-9.4 5.1h-.2 0z"/><path d="M112.3 104.6c-1 0-2-.2-2.9-.6-.6.2-1.2.3-1.8.3h-3.7c-.3 0-.6 0-.9-.1-.7.2-1.5.4-2.3.4-2.3 0-4.4-1-5.7-2.8-1.5-1.9-1.9-4.4-1.2-6.9l1.5-5.8c.6-2.2 2.6-3.7 4.8-3.7h3.7c.4 0 .8.1 1.2.2.4-.1.8-.2 1.2-.2h3.8c.8-.2 1.6-.3 2.3-.3 3.2.1 5.8 1.7 6.9 4.4.6 1.4.5 2.9-.2 4.2.2.3.4.5.5.8l.5 1c.9 1.9.6 4.1-.8 5.7-2.1 2.2-4.4 3.4-6.9 3.4h0zm17.4 4.9c-3.5 0-5.4-1.5-6.5-2.7-1.3-1.5-1.8-3.6-1.5-5.7.1-.8.4-1.5.9-2.2-.1-1.1.2-2.2.8-3.2l1.1-1.8-.3-.6c-.5-1.1-.7-2.3-.4-3.5l.2-.8c.6-2.2 2.6-3.8 4.8-3.8h3.7c.3 0 .6 0 .9.1.3-.1.6-.1.9-.1h3.7c1.5 0 3 .7 3.9 1.9s1.3 2.8.9 4.3l-2.5 10c-1.2 4.8-5.4 7.9-10.6 7.9v.2h0z"/><path d="M141.1 104.6c-2.6 0-4.9-1-6.4-2.7-1.3-1.6-1.9-3.6-1.5-5.7.2-1.3 1-2.6 2.1-3.3-.8-1.3-1.2-2.8-1.2-4.4 0-4.8 3.7-9.5 12-9.5 9 0 13 4.6 13 9.2 0 .7-.1 1.3-.2 2 .9 1.3 1.3 2.9 1.3 4.6 0 5.5-4.4 9.8-10.1 9.8a12.73 12.73 0 0 1-4.4-.8c-1.3.6-2.8.8-4.3.8h-.3 0z"/><path d="M166.7 104.6c-1.3 0-2.4-.3-3.5-.8-1.1.5-2.3.8-3.8.8-5.1 0-8.9-3.8-8.9-8.8 0-5.8 4.8-10.7 10.5-10.7.9 0 1.8.1 2.6.4.3-.1.6-.1.9-.1 0-.1.1-.1.1-.2.7-1.9 2.6-3.2 4.7-3.2h1c1.6 0 3 .7 4 1.9.7.9 1.1 2 1 3.1l.3.3c.9 1.2 1.3 2.8.9 4.3l-.1.6c.6.7.9 1.5 1.1 2.3.2 1.4-.1 2.8-1 4l-.1.2c-1.9 2.2-4.8 5.9-9.7 5.9h0zm-8-15h0zM136.5 113c-2.4 0-4.5-1-5.8-2.7s-1.7-4-1.1-6.3c1-3.7 4.5-6.4 8.4-6.4 2.9 0 4.7 1.3 5.7 2.4a4.69 4.69 0 0 1 1 4.8c0 .4-.1.9-.2 1.3l-.6 2.3c-.3 1.2-1 2.2-2 2.8-1.7 1.2-3.6 1.8-5.4 1.8h0z"/><path d="M145 112.9c-.5 0-.9-.1-1.4-.2-.5.1-.9.2-1.4.2h-1.5c-1.9 0-3.6-1-4.4-2.7-.9-1.6-.7-3.6.3-5.2l3.6-5.3c.9-1.3 2.5-2.2 4.1-2.2h1.4c2.5 0 4.6 1.8 4.9 4.2l.8 5.3c.2 1.4-.2 2.9-1.1 4s-2.3 1.8-3.8 1.8l-1.5.1h0z"/><path d="M152.6 112.9c-.5 0-.9-.1-1.4-.2-.4.1-.9.2-1.4.2h-1.4c-1.6 0-3-.7-4-2s-1.3-2.8-.9-4.3l1.4-5.2c.6-2.2 2.6-3.7 4.8-3.7h1.5a4.3 4.3 0 0 1 1.2.2c.4-.1.8-.2 1.2-.2h1.5c1.6 0 3 .7 4 2s1.3 2.8.9 4.3l-1.4 5.2c-.6 2.2-2.6 3.7-4.8 3.7h-1.2 0z"/><path d="M156.5 112.9c-1.6 0-3-.7-4-2s-1.3-2.8-.9-4.3l1.4-5.2c.6-2.2 2.6-3.7 4.8-3.7h4.2c1.6 0 3 .7 4 2s1.3 2.8.9 4.3l-.3 1.2c-.1.5-.3.9-.5 1.3 0 .5 0 1-.2 1.5l-.3 1.2c-.6 2.2-2.6 3.7-4.8 3.7h-4.3 0z"/><path d="M165 113c-2.4 0-4.6-.9-6-2.6-1.5-1.8-1.6-4.4-.2-6.2 0-.4.1-.8.2-1.2.9-3.2 3.8-5.4 7.3-5.4 2.8 0 4.6 1.2 5.5 2.2 1.6 1.6 1.8 4 .8 5.9 0 .6-.1 1.3-.2 1.9-.8 3.2-3.8 5.4-7.4 5.4h0z"/></g><linearGradient id="J" gradientUnits="userSpaceOnUse" x1="105.447" y1="81.978" x2="105.447" y2="110.038"><stop offset="0" stop-color="#fff"/><stop offset="1" stop-color="#fff4de"/></linearGradient><path d="M105.4 90.1c-.2 0-.4 0-.6-.1-.9-.2-1.8-.7-2.3-1.4-.6-.8-.8-1.9-.6-2.9.3-1.9 1.8-3.2 3.6-3.2.2 0 .4 0 .6.1.9.2 1.8.7 2.3 1.4.6.8.8 1.9.6 2.9-.4 1.9-1.8 3.3-3.6 3.2h0 0z" fill="url(#J)"/><linearGradient id="K" gradientUnits="userSpaceOnUse" x1="91.011" y1="81.978" x2="91.011" y2="110.038"><stop offset="0" stop-color="#fff"/><stop offset="1" stop-color="#fff4de"/></linearGradient><path d="M85.8 101.6c-1.8 0-3.2-.6-4.1-1.7-.8-.9-1.1-2-.9-3.3l.1-.9 3.6-2.2-1-1c-.8-.7-1.8-2-1.8-4 0-1.5.7-6.5 9.6-6.5s10 5.3 10 7.6c0 4.3-2.9 7-7.4 7h-.5c-1.1 3.1-3.8 5-7.5 5h-.1 0z" fill="url(#K)"/><linearGradient id="L" gradientUnits="userSpaceOnUse" x1="107.134" y1="81.978" x2="107.134" y2="110.038"><stop offset="0" stop-color="#fff"/><stop offset="1" stop-color="#fff4de"/></linearGradient><path d="M112.3 101.6c-1.1 0-2.2-.4-2.9-1.2l-.2.9h-6.9a4.53 4.53 0 0 1-1.6.3c-1.3 0-2.6-.6-3.4-1.6-.9-1.2-1.2-2.7-.7-4.3l1.9-7.3h12c.6-.2 1.2-.3 1.9-.3 1.9 0 3.5 1 4.1 2.5l.4 1-1.2 1.8 2.4 4.7-1 1c-.6.6-2.4 2.5-4.8 2.5h0z" fill="url(#L)"/><linearGradient id="M" gradientUnits="userSpaceOnUse" x1="132.618" y1="81.978" x2="132.618" y2="110.038"><stop offset="0" stop-color="#fff"/><stop offset="1" stop-color="#fff4de"/></linearGradient><path d="M129.7 106.5c-1.9 0-3.3-.6-4.2-1.6-.5-.6-1.1-1.7-.8-3.3l.1-.9 1.3-.8c-.1-.1-.2-.2-.2-.4l-.6-1.1 2.8-4.2-1.4-2.8.8-3h13.3l-3.2 12.5c-1 3.4-4 5.6-7.9 5.6h0 0z" fill="url(#M)"/><linearGradient id="N" gradientUnits="userSpaceOnUse" x1="146.561" y1="81.978" x2="146.561" y2="110.038"><stop offset="0" stop-color="#fff"/><stop offset="1" stop-color="#fff4de"/></linearGradient><path d="M141.1 101.6c-1.8 0-3.2-.6-4.1-1.7-.8-.9-1.1-2-.9-3.3l.1-.9 3.6-2.2-1-1c-.8-.7-1.8-2-1.8-4 0-3 2.4-6.5 9-6.5 6 0 10 2.5 10 6.2 0 .9-.2 1.8-.7 2.5 1.4 1.3 1.7 3 1.7 4.1 0 3.8-3.1 6.8-7.1 6.8-1.4 0-3.1-.4-4.4-1.2-1.3.8-2.8 1.2-4.3 1.2h-.1 0zm7.9-6c.2-.1.3-.4.3-.8 0-.1 0-.2-.1-.3l-.2 1.1h0z" fill="url(#N)"/><linearGradient id="O" gradientUnits="userSpaceOnUse" x1="164.467" y1="81.978" x2="164.467" y2="110.038"><stop offset="0" stop-color="#fff"/><stop offset="1" stop-color="#fff4de"/></linearGradient><path d="M166.7 101.6c-1.7 0-2.7-.7-3.4-1.3-1.1.8-2.4 1.3-3.9 1.3-3.4 0-5.9-2.4-5.9-5.8 0-4.1 3.5-7.7 7.5-7.7.7 0 1.4.1 2.1.3v-.1h2.5c.3 0 1.3-.9 1.8-2.1l.5-1.3h4.9l-.9 3.4h2.2l-1.3 4.9 2.5 1.5-1.5 1.9c-1.5 2.2-3.7 5-7.1 5h0z" fill="url(#O)"/><linearGradient id="P" gradientUnits="userSpaceOnUse" x1="137.457" y1="81.978" x2="137.457" y2="110.038"><stop offset="0" stop-color="#fff"/><stop offset="1" stop-color="#fff4de"/></linearGradient><path d="M136.5 110c-1.4 0-2.7-.6-3.4-1.6-.8-1-1-2.3-.6-3.7.7-2.4 3-4.2 5.5-4.2 1.4 0 2.6.5 3.4 1.4l.8.8h.1v.1l.5.5-.8.7-1.1 4.2-.6.4c-1.3 1-2.6 1.4-3.8 1.4h0z" fill="url(#P)"/><linearGradient id="Q" gradientUnits="userSpaceOnUse" x1="142.867" y1="81.978" x2="142.867" y2="110.038"><stop offset="0" stop-color="#fff"/><stop offset="1" stop-color="#fff4de"/></linearGradient><path d="M136.9 109.9l6.4-9.3h4.2l1.4 9.3h-12z" fill="url(#Q)"/><linearGradient id="R" gradientUnits="userSpaceOnUse" x1="152.012" y1="81.978" x2="152.012" y2="110.038"><stop offset="0" stop-color="#fff"/><stop offset="1" stop-color="#fff4de"/></linearGradient><path d="M145.9 109.9l2.5-9.2h4.5l.1.1.1-.1h5l-2.5 9.2h-9.7z" fill="url(#R)"/><linearGradient id="S" gradientUnits="userSpaceOnUse" x1="159.317" y1="81.978" x2="159.317" y2="110.038"><stop offset="0" stop-color="#fff"/><stop offset="1" stop-color="#fff4de"/></linearGradient><path d="M153.9 109.9l2.5-9.2h8.4l-1.1 4h0l-1.4 5.2h-8.4z" fill="url(#S)"/><linearGradient id="T" gradientUnits="userSpaceOnUse" x1="165.542" y1="81.978" x2="165.542" y2="110.038"><stop offset="0" stop-color="#fff"/><stop offset="1" stop-color="#fff4de"/></linearGradient><path d="M165 110c-1.6 0-2.9-.6-3.8-1.6L160 107l1.8-1.6c-.1-.4-.1-.9.1-1.6.5-1.9 2.3-3.2 4.4-3.2 1.4 0 2.6.4 3.4 1.3l1.4 1.4-1.6 1.6c.2.5.2 1.1 0 1.9-.5 2-2.3 3.2-4.5 3.2h0z" fill="url(#T)"/><linearGradient id="U" gradientUnits="userSpaceOnUse" x1="105.442" y1="83.978" x2="105.442" y2="108.038"><stop offset="0" stop-color="#fff"/><stop offset="0" stop-color="#3d3356"/></linearGradient><use xlink:href="#Bm" fill="url(#U)"/><linearGradient id="V" gradientUnits="userSpaceOnUse" x1="90.996" y1="83.978" x2="90.996" y2="108.038"><stop offset="0" stop-color="#fff"/><stop offset="0" stop-color="#3d3356"/></linearGradient><path d="M91.3 84c-5 0-7.6 1.8-7.6 4.5 0 1.2.5 1.9 1.2 2.6l3-1.7c-.8-.1-1.6-.5-1.6-1 0-.6 1.5-1.1 4.1-1.1 3.4 0 5.1.8 5.1 2.6 0 1.3-.9 2.6-1.9 2.6-.7 0-1.1-.6-.8-1.5l.6-2.1h-3.9l-1.6 6.4c-.4 1.7-.8 2.4-1.5 2.4-1.1 0-.8-1.8-.6-2.6l-3 1.9c-.2 1.6 1 2.6 3 2.6 3 0 5.1-1.4 5.8-4.1l.3-1.2c.6.2 1.2.3 2 .3 3.3 0 5.4-1.9 5.4-5 0-3.7-2.9-5.6-8-5.6h0z" fill="url(#V)"/><linearGradient id="W" gradientUnits="userSpaceOnUse" x1="106.926" y1="83.978" x2="106.926" y2="108.038"><stop offset="0" stop-color="#fff"/><stop offset="0" stop-color="#3d3356"/></linearGradient><path d="M114.1 97.4c-.4 0-.4-.6-.2-1.6l.2-.9-.9-1.7 1.2-1.9c-.3-.8-1.2-1.3-2.3-1.3-1 0-1.8.3-2.6.9l.2-.6H106l-1.2 4.5c-1.4 1.6-2.1 2.6-2.6 2.6-.4 0-.4-.6-.2-1.6l1.4-5.5h-3.7l-1.5 5.8c-.5 1.9.5 3.4 2.2 3.4 1.5 0 2.8-1.2 3.8-2.4l-.6 2.1h3.7l1.3-5c.4-1.7 1.1-2.5 1.7-2.6.5 0 .6.4.4 1.2l-.9 3.3c-.5 1.9.5 3.4 2.2 3.4 1.3 0 2.4-.8 3.3-1.8l-.5-1c-.2.5-.4.7-.7.7h0z" fill="url(#W)"/><linearGradient id="X" gradientUnits="userSpaceOnUse" x1="132.339" y1="83.978" x2="132.339" y2="108.038"><stop offset="0" stop-color="#fff"/><stop offset="0" stop-color="#3d3356"/></linearGradient><path d="M138.1 90.4h-3.7l-1.3 5c-.4 1.3-.9 2-1.5 2.1-.5 0-.7-.4-.6-1.1l1.6-6h-3.7l-.2.8 1.6 3.1-2.7 4.2c.4.7 1.1 1.1 2.1 1.1 1.1 0 1.9-.4 2.7-1.1l-.4 1.8c-.4 1.7-1.3 2.4-1.9 2.4-.9 0-.7-1.8-.4-2.6l-2.9 1.8c-.2 1.6.8 2.6 3.1 2.6 3 0 5.2-1.5 5.8-4.1l2.4-10h0z" fill="url(#X)"/><linearGradient id="Y" gradientUnits="userSpaceOnUse" x1="146.571" y1="83.978" x2="146.571" y2="108.038"><stop offset="0" stop-color="#fff"/><stop offset="0" stop-color="#3d3356"/></linearGradient><path d="M138.1 97c-.2 1.6 1 2.6 3 2.6 1.7 0 3.3-.6 4.4-1.8.7 1 2.6 1.8 4.4 1.8 2.9 0 5.1-2.1 5.1-4.8 0-2.2-1.4-3.2-3-3.7 1.1-.5 1.9-1.7 1.9-3 0-2.5-3.3-4.2-8-4.2-4.4 0-7 1.8-7 4.5 0 1.2.5 1.9 1.2 2.6l3-1.7c-.8-.1-1.6-.5-1.6-1 0-.6 1.5-1.1 3.7-1.1 3.2 0 5.2.6 5.2 2 0 .7-.6 1.2-1.4 1.2h-.9l.4-1.6h-3.9l-1.6 6.4c-.4 1.7-.8 2.4-1.5 2.4-1.1 0-.8-1.8-.6-2.6l-2.8 2h0zm8.7-1.1l.9-3.7h.2c2.2 0 3.3 1.1 3.3 2.6s-1.1 2.8-2.5 2.8c-1.2.1-2.1-.8-1.9-1.7h0z" fill="url(#Y)"/><linearGradient id="Z" gradientUnits="userSpaceOnUse" x1="163.987" y1="83.978" x2="163.987" y2="108.038"><stop offset="0" stop-color="#fff"/><stop offset="0" stop-color="#3d3356"/></linearGradient><path d="M171.6 94.8c-1.9 2.1-2.2 2.6-2.9 2.6s-1-.6-.8-1.6l1.2-4.5h2.2l.2-1h-2.2l.9-3.4h-1c-.6 1.5-2.1 3.4-3.6 3.4h-1l-.2 1h1l-.9 3.5h0c-.8.8-2 2.6-3.9 2.5-1.2 0-1.5-.6-1.5-1.7 3.3-.3 5-1.3 5-3.1 0-1.5-1.2-2.5-3-2.5-2.9 0-5.5 2.7-5.5 5.7 0 2.3 1.6 3.8 3.9 3.8 1.6 0 2.9-.8 4.6-2.7-.1 1.5.9 2.7 2.6 2.7 2.5 0 4.3-2.4 5.8-4.2l-.9-.5h0zM161.3 92c.5 0 .8.3.8.7-.1.8-1 1.5-2.9 1.9.3-1.2 1.1-2.5 2.1-2.6h0z" fill="url(#Z)"/><linearGradient id="a" gradientUnits="userSpaceOnUse" x1="137.051" y1="83.978" x2="137.051" y2="108.038"><stop offset="0" stop-color="#fff"/><stop offset="0" stop-color="#3d3356"/></linearGradient><path d="M135.9 105.3c.2-.8 1-1.4 1.7-1.4.5 0 .8.2 1.1.5l1.1-1c-.4-.5-1-.8-1.9-.8-1.6 0-3.1 1.2-3.6 2.7h0c-.4 1.6.5 2.7 2.1 2.7.9 0 1.8-.3 2.5-.8l.6-2.3h-2.4l-.3 1.1h1l-.2.6c-.2.1-.5.2-.9.2-.7 0-1.1-.6-.8-1.5h0 0z" fill="url(#a)"/><linearGradient id="b" gradientUnits="userSpaceOnUse" x1="143.597" y1="83.978" x2="143.597" y2="108.038"><stop offset="0" stop-color="#fff"/><stop offset="0" stop-color="#3d3356"/></linearGradient><path d="M144.3 102.7l-3.6 5.3h1.5l.6-.9h2l.1.9h1.6l-.8-5.3h-1.4 0zm-.7 3.2l1-1.5.2 1.5h-1.2z" fill="url(#b)"/><linearGradient id="c" gradientUnits="userSpaceOnUse" x1="152.012" y1="83.978" x2="152.012" y2="108.038"><stop offset="0" stop-color="#fff"/><stop offset="0" stop-color="#3d3356"/></linearGradient><path d="M152.2 104.7l-.7-2H150l-1.4 5.2h1.4l.8-3 .8 2h0l1.9-2.1-.8 3h1.4l1.4-5.2H154l-1.8 2.1h0z" fill="url(#c)"/><linearGradient id="d" gradientUnits="userSpaceOnUse" x1="159.312" y1="83.978" x2="159.312" y2="108.038"><stop offset="0" stop-color="#fff"/><stop offset="0" stop-color="#3d3356"/></linearGradient><path d="M156.5 107.9h4.2l.3-1.2h-2.8l.2-.8h2.5l.3-1.1h-2.5l.2-.8h2.8l.3-1.2h-4.2l-1.3 5.1h0z" fill="url(#d)"/><linearGradient id="e" gradientUnits="userSpaceOnUse" x1="165.532" y1="83.978" x2="165.532" y2="108.038"><stop offset="0" stop-color="#fff"/><stop offset="0" stop-color="#3d3356"/></linearGradient><path d="M165.3 104.1c.1-.2.3-.3.6-.3.5 0 .9.2 1.3.5l1-1c-.4-.5-1.1-.7-2-.7-1.3 0-2.2.7-2.5 1.7h0c-.3 1.1.5 1.4 1.5 1.7.7.2.8.3.8.5h0c-.1.2-.3.4-.7.4-.6 0-1.1-.2-1.5-.6l-1.1 1c.5.6 1.3.9 2.2.9 1.3 0 2.3-.6 2.6-1.7h0c.3-1-.4-1.4-1.5-1.6-.6-.4-.7-.5-.7-.8h0 0z" fill="url(#e)"/><path d="M130.5 94.4l-3-6c-.3-.5-.7-.5-1.1-.1l-3.7 5.6c-.3.5-.4 1.3-.1 1.8h0c-.3-.5-.9-1-1.5-1 .6 0 1.3-.3 1.6-.8l3.7-5.6c.3-.5.1-.9-.5-.9l-6.7-.4c-.6 0-1.3.3-1.6.8l-3.7 5.6c-.3.5-.1.9.5.9-.6 0-.8.4-.6.9l3 6c.3.5.9 1 1.5 1l6.7.4c.6 0 .8-.4.6-.9l-1-1.9 1 1.9c.3.5.7.5 1.1.1l3.7-5.6c.4-.5.4-1.3.1-1.8h0z" fill="#fff"/><path d="M121.3 94.7c.6.1 1.1.4 1.3.9l2.7 5.3c.2.4 0 .8-.5.8l-5.8-.3c-.6-.1-1.1-.4-1.3-.9l-2.7-5.3c-.2-.4 0-.8.5-.8l5.8.3z" fill="#29abe2"/><path d="M125.5 88.2c.5 0 .7.4.4.8l-3.2 4.9c-.3.4-.9.8-1.4.7l-5.8-.3c-.5 0-.7-.4-.4-.8l3.2-4.9c.3-.4.9-.8 1.4-.7l5.8.3z" fill="#ed1e79"/><path d="M125.9 89.1c.3-.4.7-.4.9.1l2.7 5.3c.2.4.2 1.2-.1 1.6l-3.2 4.9c-.3.4-.7.4-.9-.1l-2.7-5.3c-.2-.4-.2-1.2.1-1.6l3.2-4.9z" fill="#d9e021"/><defs><path id="f" d="M28.2 53.3c-.9.8-1.9 1.3-3.1 1.6-1 .2-1.9.3-2.7.2-.9-.1-1.6-.4-2.4-.8s-1.3-1-1.9-1.7c-.5-.7-.9-1.6-1.1-2.6-.3-1-.4-2-.2-2.8.1-.9.4-1.7.8-2.4s1-1.3 1.7-1.8 1.6-.9 2.6-1.1c1.3-.3 2.5-.3 3.6 0a10.03 10.03 0 0 1 3.3 1.6l4.9-6.4c-1.8-1.4-3.9-2.3-6.2-2.7-2.4-.4-5-.3-7.8.4-2.3.6-4.3 1.5-6.1 2.6s-3.2 2.6-4.2 4.2c-1.1 1.6-1.8 3.4-2 5.2-.3 1.9-.1 3.8.5 5.8s1.5 3.7 2.7 5.2c1.2 1.4 2.7 2.6 4.4 3.4s3.5 1.3 5.5 1.5 4.1 0 6.2-.5c2.6-.7 4.8-1.7 6.7-3.1a14.75 14.75 0 0 0 4.2-5.1l-7-3.7c-.8 1.2-1.6 2.2-2.4 3h0z"/><path id="g" d="M60.2 39.5c-.8-1.2-1.9-2.3-3.1-3-1.3-.8-2.7-1.3-4.3-1.6s-3.3-.2-5.1.1-3.4.9-4.8 1.8-2.6 1.8-3.5 3-1.5 2.5-1.9 4c-.3 1.4-.3 2.9 0 4.5.3 1.5.9 2.9 1.8 4.1s2 2.2 3.2 2.9c1.3.8 2.7 1.2 4.2 1.5 1.6.2 3.2.2 4.9-.1s3.2-.9 4.6-1.6c1.4-.8 2.5-1.8 3.4-2.9a10.32 10.32 0 0 0 2-3.9c.4-1.4.5-2.9.2-4.5-.3-1.7-.8-3.1-1.6-4.3h0zm-5.8 7.6c-.1.7-.4 1.3-.7 1.8-.4.5-.8 1-1.3 1.3s-1.1.6-1.8.7c-.6.1-1.3.1-1.9 0s-1.2-.4-1.7-.7-1-.8-1.3-1.4c-.4-.6-.6-1.3-.8-2.1a5.59 5.59 0 0 1-.1-2.2c.1-.7.4-1.3.7-1.8.4-.5.8-1 1.4-1.3.5-.3 1.2-.6 1.8-.7.7-.1 1.3-.1 2 0 .6.1 1.2.4 1.7.7.5.4 1 .9 1.3 1.5.4.6.6 1.3.8 2.1s0 1.4-.1 2.1h0z"/><path id="h" d="M103.1 31.4c-1.2-.9-2.6-1.6-4.1-2.1-1.6-.4-3.3-.6-5.1-.5s-3.5.5-5 1.2-2.8 1.6-3.8 2.7-1.8 2.3-2.3 3.7-.6 2.9-.5 4.5c.2 1.6.6 3 1.4 4.3.7 1.3 1.7 2.3 2.9 3.2s2.5 1.5 4 1.9 3.1.5 4.9.4c1.7-.1 3.3-.5 4.7-1.1a12.07 12.07 0 0 0 3.7-2.5c1-1 1.8-2.3 2.4-3.6s.8-2.8.7-4.4-.4-3.1-1.1-4.4-1.6-2.3-2.8-3.3zm-3.7 10.4c-.2.7-.5 1.2-.9 1.7-.5.5-1 .9-1.5 1.2-.6.3-1.2.5-1.9.5s-1.3 0-1.9-.2-1.2-.6-1.6-1-.9-.9-1.2-1.6c-.3-.6-.5-1.3-.6-2.2s0-1.6.2-2.2c.2-.7.5-1.2.9-1.7s.9-.9 1.5-1.2 1.2-.5 1.9-.5c.7-.1 1.3 0 2 .2.6.2 1.2.5 1.7.9s.9 1 1.2 1.6.5 1.4.5 2.2c0 .9-.1 1.6-.3 2.3z"/><path id="i" d="M129 40.3c.8-1.2 1.2-2.6 1.2-4.2s-.4-3-1.2-4.2-2-2.1-3.5-2.8-3.3-1-5.4-.9l-10.8.3.8 21.1 7.2-.2-.1-5.3h2l3.7 5.2h7.7l-4.5-6.5c1.2-.6 2.2-1.4 2.9-2.5h0zm-7-5.9c.5.4.8 1 .8 1.8s-.2 1.4-.7 1.8c-.5.5-1.2.7-2.3.7h-2.7l-.1-4.9h2.7c1-.1 1.8.1 2.3.6h0z"/><path id="j" d="M156.9 39.3l-.4 5.3-.2.1c-.8.2-1.6.3-2.4.2a4.65 4.65 0 0 1-2.1-.5c-.6-.3-1.1-.7-1.6-1.2-.4-.5-.8-1.1-1-1.7s-.3-1.4-.3-2.2.2-1.5.5-2.2c.3-.6.7-1.2 1.2-1.6s1.1-.8 1.8-1 1.4-.3 2.2-.2c1 .1 1.9.3 2.7.8s1.5 1.1 2.1 1.9l5.1-3.6c-1-1.4-2.3-2.5-4-3.4s-3.6-1.3-5.9-1.5c-1.9-.1-3.6 0-5.1.5s-2.9 1.1-4.1 2.1c-1.2.9-2.1 2.1-2.7 3.4s-1 2.8-1.1 4.4.2 3.1.7 4.5a8.79 8.79 0 0 0 2.4 3.6c1.1 1 2.2 1.8 3.7 2.5 1.4.6 3 1 4.7 1.1 1.6.1 3.2 0 4.9-.3s3.2-.9 4.6-1.6l.8-8.9-6.5-.5h0z"/><path id="k" d="M174.7 30.9c-4.8 7.9-7.2 11.9-11.6 20l7.3.7 1.8-3.5 8.1 1 .9 3.8 7.4 1.1c-2.4-8.9-3.7-13.4-6.5-22.2l-7.4-.9h0zm0 12.4l2.8-5 1.5 5.5c-.1 0-4.3-.5-4.3-.5z"/><path id="l" d="M213.4 37l-9.1 9.6c-1.7-4.3-3-7.3-5.1-12.3l-6.1-1-3.2 20.8 6.5 1.1 1.6-9.1 3.3 8.1 3.1.6 6.1-6.7-1.9 9.4 6.4 1.4 4.5-20.6-6.1-1.3h0z"/><path id="m" d="M246.3 46l1.9-6.6c-9.2-2.7-13.9-3.9-23.2-6l-6.1 26.4c8.9 2.1 13.4 3.2 22.2 5.8L243 59c-4.5-1.3-9-2.6-13.6-3.7l.9-3.5L242 55l1.8-6.3-11.8-3.2.8-3.1c4.5 1.1 9 2.3 13.5 3.6h0z"/><path id="n" d="M48.7 74.4c-1 0-2-.1-3-.2-2.3-.4-4.3-1.1-6.2-2.2s-3.5-2.6-4.9-4.4-2.3-3.9-2.8-6.3-.5-4.7 0-7c.5-2.2 1.5-4.2 2.8-6.1 1.3-1.8 3.1-3.3 5.1-4.5s4.2-2 6.6-2.4c1.3-.2 2.7-.4 3.9-.4a17.33 17.33 0 0 1 3.2.3c2.3.4 4.5 1.2 6.4 2.4s3.5 2.8 4.8 4.7 2.1 4.1 2.5 6.5c.4 2.3.2 4.6-.4 6.8-.6 2.1-1.6 4.1-3 5.8-1.3 1.7-3 3.1-5 4.3-1.9 1.1-4 1.9-6.4 2.3-1 .3-2.3.4-3.6.4h0z"/><path id="o" d="M94.3 68.5c-1.8 0-3.5-.2-5.1-.7-2.2-.6-4.2-1.6-5.9-2.9-1.8-1.3-3.2-3-4.3-4.9-1.1-2-1.8-4.2-2.1-6.5-.2-2.4 0-4.7.8-6.9.7-2.1 1.9-4.1 3.5-5.7 1.5-1.6 3.4-3 5.6-3.9a21.92 21.92 0 0 1 6.8-1.7l1.7-.1c1.9 0 3.7.2 5.4.7 2.3.6 4.3 1.7 6.1 3.1s3.2 3.2 4.3 5.2 1.7 4.3 1.8 6.7-.3 4.6-1.1 6.8c-.8 2-2 3.9-3.6 5.5-1.5 1.5-3.3 2.8-5.4 3.7-2 .9-4.2 1.4-6.6 1.6h-1.9 0z"/><path id="p" d="M110.1 67.1a5.62 5.62 0 0 1-5.6-5.4l-.8-21.1c-.1-1.5.5-2.9 1.5-4s2.4-1.7 3.9-1.8l10.9-.3h.4c2.7 0 5.2.5 7.3 1.3 2.5 1.1 4.5 2.7 6 4.8 1.5 2.2 2.2 4.7 2.2 7.5s-.8 5.2-2.3 7.3l-.1.1 1.7 2.5a5.52 5.52 0 0 1 .3 5.8c-1 1.8-2.9 3-4.9 3h-.1-4.1-3.5-.1c-1 0-1.9-.2-2.7-.7-.8.5-1.7.8-2.7.8l-7.1.2h-.2 0z"/><path id="q" d="M154.1 68.2c-.5 0-1 0-1.5-.1-2.4-.2-4.6-.7-6.6-1.5-2.1-.9-3.9-2.1-5.4-3.7-1.6-1.6-2.8-3.4-3.6-5.5s-1.2-4.4-1.1-6.8.6-4.7 1.7-6.7c1-2 2.5-3.8 4.2-5.2 1.8-1.4 3.8-2.4 6.1-3.1a19.76 19.76 0 0 1 5.5-.8h1.5c2.9.2 5.6.9 8 2.1 2.5 1.2 4.5 3 6.1 5.1.9 1.2 1.2 2.7 1 4.2-.2 1.2-.8 2.2-1.6 3 .4.9.6 1.8.5 2.8l-.8 8.9c-.2 1.9-1.3 3.5-2.9 4.4-1.9 1-4 1.8-6.2 2.2-1.7.5-3.3.7-4.9.7h0 0z"/><path id="r" d="M188.6 71.6c-.3 0-.6 0-.9-.1l-7.3-1.1c-2.3-.3-4.1-2-4.7-4.2v-.1l-.4-.1v.1c-1 1.9-2.9 3-5 3h-.6l-7.2-.7c-1.9-.2-3.6-1.3-4.4-3-.9-1.7-.9-3.7.1-5.3 4.5-8.1 6.9-12.3 11.8-20.2 1-1.7 2.8-2.7 4.8-2.7h.6l7.5.9c2.2.3 4 1.8 4.6 3.9 2.8 8.9 4.2 13.5 6.6 22.4.5 1.8 0 3.8-1.2 5.2-1.2 1.3-2.7 2-4.3 2h0z"/><path id="s" d="M215 76.5c-.4 0-.8 0-1.2-.1l-6.4-1.3c-1.6-.3-3-1.3-3.7-2.7l-.5-.1-3.1-.6-.4-.1-.3.2c-.9.7-2.1 1-3.2 1-.3 0-.6 0-.9-.1l-6.4-1.1c-3.1-.5-5.1-3.3-4.7-6.4l3.2-20.8c.4-2.8 2.8-4.7 5.5-4.7.3 0 .6 0 .9.1l6.2 1c1.9.3 3.4 1.6 4.2 3.3l1.9 4.3 3.2-3.3c1.1-1.1 2.5-1.7 4-1.7.4 0 .8 0 1.1.1l6.2 1.3c3 .7 4.9 3.6 4.3 6.7l-4.5 20.6c-.3 1.5-1.2 2.7-2.4 3.5a5.29 5.29 0 0 1-3 .9h0z"/><path id="t" d="M241.2 83.2c-.5 0-1.1-.1-1.6-.2-8.8-2.5-13.1-3.7-21.9-5.7-1.4-.3-2.7-1.2-3.5-2.5s-1-2.8-.7-4.2l6.1-26.4c.6-2.5 2.8-4.3 5.4-4.3.4 0 .8 0 1.3.2 9.4 2.2 14.2 3.4 23.5 6.1 1.4.4 2.6 1.4 3.4 2.7.7 1.3.9 2.8.5 4.3l-1.9 6.6c-.4 1.4-1.4 2.7-2.7 3.4l-1.3 4.7c1 1.4 1.4 3.1.9 4.9l-1.9 6.6c-1 2.2-3.2 3.8-5.6 3.8h0z"/><path id="u" d="M21.7 79.9c-.7 0-1.3 0-2-.1-2.7-.2-5.2-.9-7.5-2.1-2.4-1.2-4.4-2.8-6.1-4.8-1.7-2.1-3-4.5-3.8-7.2-.8-2.8-1-5.6-.6-8.3.3-2.7 1.3-5.3 2.8-7.5s3.4-4.2 5.8-5.8c2.3-1.5 4.9-2.7 7.8-3.4 2.2-.5 4.4-.8 6.4-.8 1.2 0 2.5.1 3.6.3 3.3.6 6.2 1.8 8.8 3.8 2.4 1.9 2.8 5.4 1 7.8l-4.2 5.5 6.2 3.3c2.6 1.4 3.7 4.7 2.3 7.4-1.4 2.8-3.3 5.1-5.8 7-2.4 1.8-5.4 3.2-8.7 4-2 .6-4 .9-6 .9h0zm2-21.3c-.2 0-.3 0-.5.1-.4.1-.6.2-.7.3-.1 0-.1.1-.1.1s0 .1-.1.3c0 .1 0 .3.1.8.1.3.2.6.3.7s.1.2.2.2h.1.1c.2 0 .4 0 .6-.1.5-.1.6-.3.7-.3.3-.3.6-.7.9-1.3-.5-.3-.9-.6-1.4-.7 0-.1-.1-.1-.2-.1h0z"/><path id="v" d="M66 70.8c-2.8 0-5.1-2-5.5-4.8l-3.1-20.8c-.2-1.5.2-3 1-4.2.9-1.2 2.2-2 3.7-2.2l7.6-1.1h.7c2.8 0 5.2 2.1 5.6 4.9l1.3 9.9 4.3-.5h.6c2.9 0 5.3 2.2 5.6 5l.6 5.5c.2 1.5-.3 3-1.2 4.1-.9 1.2-2.3 1.9-3.8 2.1a297.32 297.32 0 0 0-16.5 2.1H66h0z"/><path id="w" d="M21.7 79.4c-.7 0-1.3 0-2-.1-2.7-.2-5.2-.9-7.5-2.1-2.4-1.2-4.4-2.8-6.1-4.8-1.7-2.1-3-4.5-3.8-7.2-.8-2.8-1-5.6-.6-8.3.3-2.7 1.3-5.2 2.8-7.5 1.5-2.2 3.4-4.2 5.8-5.8 2.3-1.5 4.9-2.7 7.8-3.4 2.2-.5 4.4-.8 6.4-.8 1.2 0 2.5.1 3.6.3 3.3.6 6.2 1.8 8.8 3.8 2.4 1.9 2.8 5.4 1 7.8l-4.2 5.5 6.2 3.3c2.6 1.4 3.7 4.7 2.3 7.4-1.4 2.8-3.3 5.1-5.8 7-2.4 1.8-5.4 3.2-8.7 4-2 .6-4 .9-6 .9h0zm2-21.3c-.2 0-.3 0-.5.1-.4.1-.6.2-.7.3-.1 0-.1.1-.1.1s0 .1-.1.3c0 .1 0 .3.1.8.1.3.2.6.3.7s.1.2.2.2h.1.1c.2 0 .4 0 .6-.1.5-.1.6-.3.7-.3.3-.3.6-.7.9-1.3-.5-.3-.9-.6-1.4-.7 0-.1-.1-.1-.2-.1h0z"/><path id="x" d="M66 70.3c-2.8 0-5.1-2-5.5-4.8l-3.1-20.9c-.2-1.5.2-3 1-4.2.9-1.2 2.2-2 3.7-2.2l7.6-1.1h.7c2.8 0 5.2 2.1 5.6 4.9l1.3 9.9 4.3-.5h.6c2.9 0 5.3 2.2 5.6 5l.6 5.5c.2 1.5-.3 3-1.2 4.1-.9 1.2-2.3 1.9-3.8 2.1a297.32 297.32 0 0 0-16.5 2.1c-.4.1-.7.1-.9.1h0z"/><path id="y" d="M94.3 67.5c-1.8 0-3.5-.2-5.1-.7-2.2-.5-4.2-1.5-5.9-2.8-1.8-1.3-3.2-3-4.3-4.9-1.1-2-1.8-4.2-2.1-6.5-.2-2.4 0-4.7.8-6.9.7-2.1 1.9-4.1 3.5-5.7 1.5-1.6 3.4-3 5.6-3.9a21.92 21.92 0 0 1 6.8-1.7l1.7-.1c1.9 0 3.7.2 5.4.7 2.3.6 4.3 1.7 6.1 3.1s3.2 3.2 4.3 5.2 1.7 4.3 1.8 6.7-.3 4.6-1.1 6.8c-.8 2-2 3.9-3.6 5.5-1.5 1.5-3.3 2.8-5.4 3.7-2 .9-4.2 1.4-6.6 1.6l-1.9-.1h0z"/><path id="z" d="M154.1 67.2c-.5 0-1 0-1.5-.1-2.4-.2-4.6-.7-6.6-1.5-2.1-.9-3.9-2.1-5.4-3.7-1.6-1.6-2.8-3.4-3.6-5.5s-1.2-4.4-1.1-6.8.6-4.7 1.7-6.7c1-2 2.5-3.8 4.2-5.2 1.8-1.4 3.8-2.4 6.1-3.1a19.76 19.76 0 0 1 5.5-.8h1.5c2.9.2 5.6.9 8 2.1 2.5 1.2 4.5 3 6.1 5.1.9 1.2 1.2 2.7 1 4.2-.2 1.2-.8 2.2-1.6 3 .4.9.6 1.8.5 2.8l-.8 8.9c-.2 1.9-1.3 3.5-2.9 4.4-1.9 1-4 1.8-6.2 2.2-1.7.6-3.3.7-4.9.7h0 0z"/><path id="AA" d="M21.7 78.9c-.7 0-1.3 0-2-.1-2.7-.2-5.2-.9-7.5-2.1-2.4-1.2-4.4-2.8-6.1-4.8-1.7-2.1-3-4.5-3.8-7.2-.8-2.8-1-5.6-.6-8.3.3-2.7 1.3-5.2 2.8-7.5 1.5-2.2 3.4-4.2 5.8-5.8 2.3-1.5 4.9-2.7 7.8-3.4 2.2-.5 4.4-.8 6.4-.8 1.2 0 2.5.1 3.6.3 3.3.6 6.2 1.8 8.8 3.8 2.4 1.9 2.8 5.4 1 7.8l-4.2 5.5 6.2 3.3c2.6 1.4 3.7 4.7 2.3 7.4-1.4 2.8-3.3 5.1-5.8 7-2.4 1.8-5.4 3.2-8.7 4-2 .7-4 .9-6 .9h0zm2-21.3c-.2 0-.3 0-.5.1-.4.1-.6.2-.7.3-.1 0-.1.1-.1.1s0 .1-.1.3c0 .1 0 .3.1.8.1.3.2.6.3.7s.1.2.2.2h.1.1c.2 0 .4 0 .6-.1.5-.1.6-.3.7-.3.3-.3.6-.7.9-1.3-.5-.3-.9-.6-1.4-.7 0-.1-.1-.1-.2-.1h0z"/><path id="AB" d="M110.1 65.7a5.62 5.62 0 0 1-5.6-5.4l-.8-21.1c-.1-1.5.5-2.9 1.5-4s2.4-1.7 3.9-1.8l10.9-.3h.4c2.7 0 5.2.5 7.3 1.4 2.5 1.1 4.5 2.7 6 4.8 1.5 2.2 2.2 4.7 2.2 7.5s-.8 5.2-2.3 7.3l-.1.1 1.7 2.5a5.52 5.52 0 0 1 .3 5.8c-1 1.8-2.9 3-4.9 3h-.1-4.1-3.5-.1c-1 0-1.9-.2-2.7-.7-.8.5-1.7.8-2.7.8l-7.1.2-.2-.1h0z"/><path id="AC" d="M188.6 69.6c-.3 0-.6 0-.9-.1l-7.3-1.1c-2.3-.3-4.1-2-4.7-4.2v-.1h-.4v.1c-1 1.9-2.9 3-5 3h-.6l-7.2-.7c-1.9-.2-3.6-1.3-4.4-3-.9-1.7-.9-3.7.1-5.3 4.5-8.1 6.9-12.3 11.8-20.2 1-1.7 2.8-2.7 4.8-2.7h.6l7.5.9c2.2.3 4 1.8 4.6 3.9 2.8 8.9 4.2 13.5 6.6 22.4.5 1.8 0 3.8-1.2 5.2-1.2 1.3-2.7 2-4.3 1.9h0z"/><path id="AD" d="M188.6 69.2c-.3 0-.6 0-.9-.1l-7.3-1.1c-2.3-.3-4.1-2-4.7-4.2v-.1h-.4v.1c-1 1.9-2.9 3-5 3h-.6l-7.2-.7c-1.9-.2-3.6-1.3-4.4-3-.9-1.7-.9-3.7.1-5.3 4.5-8.1 6.9-12.3 11.8-20.2 1-1.7 2.8-2.7 4.8-2.7h.6l7.5.9c2.2.3 4 1.8 4.6 3.9 2.8 8.9 4.2 13.5 6.6 22.4.5 1.8 0 3.8-1.2 5.2-1.2 1.2-2.7 1.9-4.3 1.9h0z"/><path id="AE" d="M48.7 71.1c-1 0-2-.1-3-.2-2.3-.4-4.3-1.1-6.2-2.2s-3.5-2.6-4.9-4.4-2.3-3.9-2.8-6.3-.5-4.7 0-7c.5-2.2 1.5-4.2 2.8-6.1 1.3-1.8 3.1-3.3 5.1-4.5s4.2-2 6.6-2.4c1.3-.2 2.7-.4 3.9-.4a17.33 17.33 0 0 1 3.2.3c2.3.4 4.5 1.2 6.4 2.4s3.5 2.8 4.8 4.7 2.1 4.1 2.5 6.5c.4 2.3.2 4.6-.4 6.8-.6 2.1-1.6 4.1-3 5.8-1.3 1.7-3 3.1-5 4.3-1.9 1.1-4 1.9-6.4 2.3-1 .2-2.3.3-3.6.4h0z"/><path id="AF" d="M48.7 70.6c-1 0-2-.1-3-.2-2.3-.4-4.3-1.1-6.2-2.2s-3.5-2.6-4.9-4.4-2.3-3.9-2.8-6.3-.5-4.7 0-7c.5-2.2 1.5-4.2 2.8-6.1 1.3-1.8 3.1-3.3 5.1-4.5s4.2-2 6.6-2.4c1.3-.2 2.7-.4 3.9-.4a17.33 17.33 0 0 1 3.2.3c2.3.4 4.5 1.2 6.4 2.4s3.5 2.8 4.8 4.7 2.1 4.1 2.5 6.5c.4 2.3.2 4.6-.4 6.8-.6 2.1-1.6 4.1-3 5.8-1.3 1.7-3 3.1-5 4.3-1.9 1.1-4 1.9-6.4 2.3-1 .2-2.3.4-3.6.4h0z"/><path id="AG" d="M188.6 67.7c-.3 0-.6 0-.9-.1l-7.3-1.1c-2.3-.3-4.1-2-4.7-4.2v-.1h-.4v.1c-1 1.9-2.9 3-5 3h-.6l-7.2-.7c-1.9-.2-3.6-1.3-4.4-3-.9-1.7-.9-3.7.1-5.3 4.5-8.1 6.9-12.3 11.8-20.2 1-1.7 2.8-2.7 4.8-2.7h.6l7.5.9c2.2.3 4 1.8 4.6 3.9 2.8 8.9 4.2 13.5 6.6 22.4.5 1.8 0 3.8-1.2 5.2a5.7 5.7 0 0 1-4.3 1.9h0z"/><path id="AH" d="M241.2 79.3c-.5 0-1.1-.1-1.6-.2-8.8-2.5-13.1-3.7-21.9-5.7-1.4-.3-2.7-1.2-3.5-2.5s-1-2.8-.7-4.2l6.1-26.4c.6-2.5 2.8-4.3 5.4-4.3.4 0 .8 0 1.3.2 9.4 2.2 14.2 3.4 23.5 6.1 1.4.4 2.6 1.4 3.4 2.7.7 1.3.9 2.8.5 4.3l-1.9 6.6c-.4 1.4-1.4 2.7-2.7 3.4l-1.3 4.7c1 1.4 1.4 3.1.9 4.9l-1.9 6.6c-1 2.3-3.2 3.8-5.6 3.8h0z"/><path id="AI" d="M21.7 75.6c-.7 0-1.3 0-2-.1-2.7-.2-5.2-.9-7.5-2.1-2.4-1.2-4.4-2.8-6.1-4.8-1.7-2.1-3-4.5-3.8-7.2-.8-2.8-1-5.6-.6-8.3.3-2.7 1.3-5.3 2.8-7.5s3.4-4.2 5.8-5.8c2.3-1.5 4.9-2.7 7.8-3.4 2.2-.5 4.4-.8 6.4-.8 1.2 0 2.5.1 3.6.3 3.3.6 6.2 1.8 8.8 3.8 2.4 1.9 2.8 5.4 1 7.8L33.8 53l6.2 3.3c2.6 1.4 3.7 4.7 2.3 7.4s-3.3 5.1-5.8 7c-2.4 1.8-5.4 3.2-8.7 4-2.1.6-4.1.9-6.1.9h0zm2-21.3c-.2 0-.3 0-.5.1-.4.1-.6.2-.7.3-.1 0-.1.1-.1.1s0 .1-.1.3c0 .1 0 .3.1.8.1.3.2.6.3.7s.1.2.2.2h.1.1c.2 0 .4 0 .6-.1.5-.1.6-.3.7-.3.3-.3.6-.7.9-1.3-.5-.3-.9-.6-1.4-.7 0-.1-.1-.1-.2-.1h0z"/><path id="AJ" d="M66 66c-2.8 0-5.1-2-5.5-4.8l-3.1-20.8c-.2-1.5.2-3 1-4.2.9-1.2 2.2-2 3.7-2.2l7.6-1.1h.7c2.8 0 5.2 2.1 5.6 4.9l1.3 9.9 4.3-.5h.6c2.9 0 5.3 2.2 5.6 5l.6 5.5c.2 1.5-.3 3-1.2 4.1-.9 1.2-2.3 1.9-3.8 2.1A297.32 297.32 0 0 0 66.9 66H66h0z"/><path id="AK" d="M94.3 63.2c-1.8 0-3.5-.2-5.1-.7C87 62 85 61 83.3 59.7c-1.8-1.3-3.2-3-4.3-4.9-1.1-2-1.8-4.2-2.1-6.5-.2-2.4 0-4.7.8-6.9.7-2.1 1.9-4.1 3.5-5.7 1.5-1.6 3.4-3 5.6-3.9a21.92 21.92 0 0 1 6.8-1.7l1.7-.1c1.9 0 3.7.2 5.4.7 2.3.6 4.3 1.7 6.1 3.1s3.2 3.2 4.3 5.2 1.7 4.3 1.8 6.7-.3 4.6-1.1 6.8c-.8 2-2 3.9-3.6 5.5-1.5 1.5-3.3 2.8-5.4 3.7-2 .9-4.2 1.4-6.6 1.6l-1.9-.1h0z"/><path id="AL" d="M21.7 74.6c-.7 0-1.3 0-2-.1-2.7-.2-5.2-.9-7.5-2.1-2.4-1.2-4.4-2.8-6.1-4.8-1.7-2.1-3-4.5-3.8-7.2-.8-2.8-1-5.6-.6-8.3.3-2.7 1.3-5.2 2.8-7.5 1.5-2.2 3.4-4.2 5.8-5.8 2.3-1.5 4.9-2.7 7.8-3.4 2.2-.5 4.4-.8 6.4-.8 1.2 0 2.5.1 3.6.3 3.3.6 6.2 1.8 8.8 3.8 2.4 1.9 2.8 5.4 1 7.8L33.7 52l6.2 3.3c2.6 1.4 3.7 4.7 2.3 7.4-1.4 2.8-3.3 5.1-5.8 7-2.4 1.8-5.4 3.2-8.7 4-2 .7-4 .9-6 .9h0zm2-21.3c-.2 0-.3 0-.5.1-.4.1-.6.2-.7.3-.1 0-.1.1-.1.1s0 .1-.1.3c0 .1 0 .3.1.8.1.3.2.6.3.7s.1.2.2.2h.1.1c.2 0 .4 0 .6-.1.5-.1.6-.3.7-.3.3-.3.6-.7.9-1.3-.5-.3-.9-.6-1.4-.7 0-.1-.1-.1-.2-.1h0z"/><path id="AM" d="M110.1 61.4a5.62 5.62 0 0 1-5.6-5.4l-.8-21c-.1-1.5.5-2.9 1.5-4s2.4-1.7 3.9-1.8l10.9-.3h.4c2.7 0 5.2.5 7.3 1.4 2.5 1.1 4.5 2.7 6 4.8 1.5 2.2 2.2 4.7 2.2 7.5s-.8 5.2-2.3 7.3l-.1.1 1.7 2.5a5.52 5.52 0 0 1 .3 5.8c-1 1.8-2.9 3-4.9 3h-.1-4.1-3.5-.1c-1 0-1.9-.2-2.7-.7-.8.5-1.7.8-2.7.8l-7.1.2-.2-.2h0z"/><path id="AN" d="M21.7 74.1c-.7 0-1.3 0-2-.1-2.7-.2-5.2-.9-7.5-2.1-2.4-1.2-4.4-2.8-6.1-4.8-1.7-2.1-3-4.5-3.8-7.2-.8-2.8-1-5.6-.6-8.3.3-2.7 1.3-5.2 2.8-7.5C6 41.9 8 40 10.3 38.4c2.3-1.5 4.9-2.7 7.8-3.4 2.2-.5 4.4-.8 6.4-.8 1.2 0 2.5.1 3.6.3 3.3.6 6.2 1.8 8.8 3.8 2.4 1.9 2.8 5.4 1 7.8l-4.2 5.5 6.2 3.3c2.6 1.4 3.7 4.7 2.3 7.4s-3.3 5.1-5.8 7c-2.4 1.8-5.4 3.2-8.7 4-2 .6-4 .8-6 .8h0zm2-21.3c-.2 0-.3 0-.5.1-.4.1-.6.2-.7.3-.1 0-.1.1-.1.1s0 .1-.1.3c0 .1 0 .3.1.8.1.3.2.6.3.7s.1.2.2.2h.1.1c.2 0 .4 0 .6-.1.5-.1.6-.3.7-.3.3-.3.6-.7.9-1.3-.5-.3-.9-.6-1.4-.7 0 0-.1-.1-.2-.1h0z"/><path id="AO" d="M66 65c-2.8 0-5.1-2-5.5-4.8l-3.1-20.8c-.2-1.5.2-3 1-4.2.9-1.2 2.2-2 3.7-2.2l7.6-1.1h.7c2.8 0 5.2 2.1 5.6 4.9l1.3 9.9 4.3-.5h.6c2.9 0 5.3 2.2 5.6 5l.6 5.5c.2 1.5-.3 3-1.2 4.1-.9 1.2-2.3 1.9-3.8 2.1A297.32 297.32 0 0 0 66.9 65H66h0z"/><path id="AP" d="M94.3 62.3c-1.8 0-3.5-.2-5.1-.7C87 61 85 60 83.3 58.7c-1.8-1.3-3.2-3-4.3-4.9-1.1-2-1.8-4.2-2.1-6.5-.2-2.4 0-4.7.8-6.9.7-2.1 1.9-4.1 3.5-5.7 1.5-1.6 3.4-3 5.6-3.9a21.92 21.92 0 0 1 6.8-1.7l1.7-.1c1.9 0 3.7.2 5.4.7 2.3.6 4.3 1.7 6.1 3.1s3.2 3.2 4.3 5.2 1.7 4.3 1.8 6.7-.3 4.6-1.1 6.8c-.8 2-2 3.9-3.6 5.5-1.5 1.5-3.3 2.8-5.4 3.7-2 .9-4.2 1.4-6.6 1.6h-1.9 0z"/><path id="AQ" d="M66 64.6c-2.8 0-5.1-2-5.5-4.8L57.4 39c-.2-1.5.2-3 1-4.2.9-1.2 2.2-2 3.7-2.2l7.6-1.1h.7c2.8 0 5.2 2.1 5.6 4.9l1.3 9.9 4.3-.5h.6c2.9 0 5.3 2.2 5.6 5l.6 5.5c.2 1.5-.3 3-1.2 4.1-.9 1.2-2.3 1.9-3.8 2.1a297.32 297.32 0 0 0-16.5 2.1c-.4-.1-.7 0-.9 0h0z"/><path id="AR" d="M110.1 60.4a5.62 5.62 0 0 1-5.6-5.4l-.8-21c-.1-1.5.5-2.9 1.5-4s2.4-1.7 3.9-1.8l10.9-.3h.4c2.7 0 5.2.5 7.3 1.3 2.5 1.1 4.5 2.7 6 4.8 1.5 2.2 2.2 4.7 2.2 7.5s-.8 5.2-2.3 7.3l-.1.1 1.7 2.5a5.52 5.52 0 0 1 .3 5.8c-1 1.8-2.9 3-4.9 3h-.1-4.1-3.5-.1c-1 0-1.9-.2-2.7-.7-.8.5-1.7.8-2.7.8l-7.1.2-.2-.1h0z"/><path id="AS" d="M21.7 73.2c-.7 0-1.3 0-2-.1-2.7-.2-5.2-.9-7.5-2.1-2.4-1.2-4.4-2.8-6.1-4.8-1.7-2.1-3-4.5-3.8-7.2-.8-2.8-1-5.6-.6-8.3C2 48 3 45.4 4.5 43.2 6 40.9 8 39 10.3 37.4c2.3-1.5 4.9-2.7 7.8-3.4 2.2-.5 4.4-.8 6.4-.8 1.2 0 2.5.1 3.6.3 3.3.6 6.2 1.8 8.8 3.8 2.4 1.9 2.8 5.4 1 7.8l-4.2 5.5 6.2 3.3c2.6 1.4 3.7 4.7 2.3 7.4s-3.3 5.1-5.8 7c-2.4 1.8-5.4 3.2-8.7 4-2 .6-4 .9-6 .9h0zm2-21.3c-.2 0-.3 0-.5.1-.4.1-.6.2-.7.3-.1 0-.1.1-.1.1s0 .1-.1.3c0 .1 0 .3.1.8.1.3.2.6.3.7s.1.2.2.2h.1.1c.2 0 .4 0 .6-.1.5-.1.6-.3.7-.3.3-.3.6-.7.9-1.3-.5-.3-.9-.6-1.4-.7 0-.1-.1-.1-.2-.1h0z"/><path id="AT" d="M94.3 61.3c-1.8 0-3.5-.2-5.1-.7-2.2-.6-4.2-1.5-5.9-2.8-1.8-1.3-3.2-3-4.3-4.9-1.1-2-1.8-4.2-2.1-6.5-.2-2.4 0-4.7.8-6.9.7-2.1 1.9-4.1 3.5-5.7 1.5-1.6 3.4-3 5.6-3.9a21.92 21.92 0 0 1 6.8-1.7l1.7-.1c1.9 0 3.7.2 5.4.7 2.3.6 4.3 1.7 6.1 3.1s3.2 3.2 4.3 5.2 1.7 4.3 1.8 6.7-.3 4.6-1.1 6.8c-.8 2-2 3.9-3.6 5.5-1.5 1.5-3.3 2.8-5.4 3.7-2 .9-4.2 1.4-6.6 1.6l-1.9-.1h0z"/><path id="AU" d="M188.6 64.4c-.3 0-.6 0-.9-.1l-7.3-1c-2.3-.3-4.1-2-4.7-4.2V59h-.4v.1c-1 1.9-2.9 3-5 3h-.6l-7.2-.7c-1.9-.2-3.6-1.3-4.4-3-.9-1.7-.9-3.7.1-5.3 4.5-8.1 6.9-12.3 11.8-20.2 1-1.7 2.8-2.7 4.8-2.7h.6l7.5.9c2.2.3 4 1.8 4.6 3.9 2.8 8.9 4.2 13.5 6.6 22.4.5 1.8 0 3.8-1.2 5.2-1.2 1.1-2.7 1.8-4.3 1.8h0z"/><path id="AV" d="M21.7 72.7c-.7 0-1.3 0-2-.1-2.7-.2-5.2-.9-7.5-2.1-2.4-1.2-4.4-2.8-6.1-4.8-1.7-2.1-3-4.5-3.8-7.2-.8-2.8-1-5.6-.6-8.3C2 47.5 3 45 4.5 42.7c1.5-2.2 3.4-4.2 5.8-5.8 2.3-1.5 4.9-2.7 7.8-3.4 2.2-.5 4.4-.8 6.4-.8 1.2 0 2.5.1 3.6.3 3.3.6 6.2 1.8 8.8 3.8 2.4 1.9 2.8 5.4 1 7.8l-4.2 5.5 6.2 3.3c2.6 1.4 3.7 4.7 2.3 7.4-1.4 2.8-3.3 5.1-5.8 7-2.4 1.8-5.4 3.2-8.7 4-2 .6-4 .9-6 .9h0zm2-21.3c-.2 0-.3 0-.5.1-.4.1-.6.2-.7.3-.1 0-.1.1-.1.1s0 .1-.1.3c0 .1 0 .3.1.8.1.3.2.6.3.7s.1.2.2.2h.1.1c.2 0 .4 0 .6-.1.5-.1.6-.3.7-.3.3-.3.6-.7.9-1.3-.5-.3-.9-.6-1.4-.7 0-.1-.1-.1-.2-.1h0z"/><path id="AW" d="M48.7 66.7c-1 0-2-.1-3-.2-2.3-.4-4.3-1.1-6.2-2.2s-3.5-2.6-4.9-4.4-2.3-3.9-2.8-6.3-.5-4.7 0-7c.5-2.2 1.5-4.2 2.8-6.1 1.3-1.8 3.1-3.3 5.1-4.5s4.2-2 6.6-2.4c1.3-.2 2.7-.4 3.9-.4a17.33 17.33 0 0 1 3.2.3c2.6.5 4.7 1.3 6.6 2.5s3.5 2.8 4.8 4.7 2.1 4.1 2.5 6.5c.4 2.3.2 4.6-.4 6.8-.6 2.1-1.6 4.1-3 5.8-1.3 1.7-3 3.1-5 4.3-1.9 1.1-4 1.9-6.4 2.3-1.2.2-2.5.3-3.8.3h0z"/><path id="AX" d="M66 63.6c-2.8 0-5.1-2-5.5-4.8L57.3 38c-.2-1.5.2-3 1-4.2.9-1.2 2.2-2 3.7-2.2l7.6-1.1h.7c2.8 0 5.2 2.1 5.6 4.9l1.3 9.9 4.3-.5h.6c2.9 0 5.3 2.2 5.6 5l.6 5.5c.2 1.5-.3 3-1.2 4.1-.9 1.2-2.3 1.9-3.8 2.1a297.32 297.32 0 0 0-16.5 2.1H66h0z"/><path id="AY" d="M94.3 60.8c-1.8 0-3.5-.2-5.1-.7-2.2-.6-4.2-1.6-5.9-2.9-1.8-1.3-3.2-3-4.3-4.9-1.1-2-1.8-4.2-2.1-6.5-.2-2.4 0-4.7.8-6.9.7-2.1 1.9-4.1 3.5-5.7 1.5-1.6 3.4-3 5.6-3.9a21.92 21.92 0 0 1 6.8-1.7l1.7-.1c1.9 0 3.7.2 5.4.7 2.3.6 4.3 1.7 6.1 3.1s3.2 3.2 4.3 5.1c1.1 2 1.7 4.3 1.8 6.7s-.3 4.6-1.1 6.8c-.8 2-2 3.9-3.6 5.5-1.5 1.5-3.3 2.8-5.4 3.7-2 .9-4.2 1.4-6.6 1.6l-1.9.1h0z"/><path id="AZ" d="M21.7 72.2c-.7 0-1.3 0-2-.1-2.7-.2-5.2-.9-7.5-2.1-2.4-1.2-4.4-2.8-6.1-4.8s-3-4.5-3.8-7.2c-.8-2.8-1-5.6-.6-8.3C2 47 3 44.5 4.5 42.2 6 40 8 38.1 10.3 36.5c2.3-1.5 4.9-2.7 7.8-3.4 2.2-.5 4.4-.8 6.4-.8 1.2 0 2.5.1 3.6.3 3.3.6 6.2 1.8 8.8 3.8 2.4 1.9 2.8 5.4 1 7.8l-4.2 5.5L40 53c2.6 1.4 3.7 4.7 2.3 7.4-1.4 2.8-3.3 5.1-5.8 7-2.4 1.8-5.4 3.2-8.7 4-2.1.6-4.1.8-6.1.8h0zm2-21.3c-.2 0-.3 0-.5.1-.4.1-.6.2-.7.3-.1 0-.1.1-.1.1s0 .1-.1.3c0 .1 0 .3.1.8.1.3.2.6.3.7s.1.2.2.2h.1.1c.2 0 .4 0 .6-.1.5-.1.6-.3.7-.3.3-.3.6-.7.9-1.3-.5-.3-.9-.6-1.4-.7 0-.1-.1-.1-.2-.1h0z"/><path id="Aa" d="M154.1 60.1c-.5 0-1 0-1.5-.1-2.4-.2-4.6-.7-6.6-1.5-2.1-.9-3.9-2.1-5.4-3.7-1.6-1.6-2.8-3.4-3.6-5.5s-1.2-4.4-1.1-6.8.6-4.7 1.7-6.7c1-2 2.5-3.8 4.2-5.3 1.8-1.4 3.8-2.4 6.1-3.1a19.76 19.76 0 0 1 5.5-.8h1.5c2.9.2 5.6.9 8 2.1 2.5 1.2 4.5 3 6.1 5.1.9 1.2 1.2 2.7 1 4.2-.2 1.2-.8 2.2-1.6 3 .4.9.6 1.8.5 2.8l-.8 8.9c-.2 1.9-1.3 3.5-2.9 4.4-1.9 1-4 1.8-6.2 2.2-1.7.6-3.3.8-4.9.8h0 0z"/><path id="Ab" d="M215 68.4c-.4 0-.8 0-1.2-.1l-6.4-1.3c-1.6-.3-3-1.3-3.7-2.7l-.5-.1-3.1-.6-.4-.1-.3.2c-.9.7-2.1 1-3.2 1-.3 0-.6 0-.9-.1l-6.4-1c-3.1-.5-5.1-3.3-4.7-6.4l3.2-20.8c.4-2.8 2.8-4.7 5.5-4.7.3 0 .6 0 .9.1l6.2 1c1.9.3 3.4 1.6 4.2 3.3l1.9 4.3 3.2-3.3c1.1-1.1 2.5-1.7 4-1.7.4 0 .8 0 1.1.1l6.2 1.3c3 .7 4.9 3.6 4.3 6.7l-4.5 20.6c-.3 1.5-1.2 2.7-2.4 3.5-.9.5-1.9.8-3 .8h0z"/><path id="Ac" d="M21.7 71.7c-.7 0-1.3 0-2-.1-2.7-.2-5.2-.9-7.5-2.1-2.4-1.2-4.4-2.8-6.1-4.8s-3-4.5-3.8-7.2c-.8-2.8-1-5.6-.6-8.3C2 46.6 3 44 4.5 41.7 6 39.5 8 37.6 10.3 36c2.3-1.5 4.9-2.7 7.8-3.4 2.2-.5 4.4-.8 6.4-.8 1.2 0 2.5.1 3.6.3 3.3.6 6.2 1.8 8.8 3.8 2.4 1.9 2.8 5.4 1 7.8l-4.2 5.5 6.2 3.3c2.6 1.4 3.7 4.7 2.3 7.4-1.4 2.8-3.3 5.1-5.8 7-2.4 1.8-5.4 3.2-8.7 4-2 .6-4 .8-6 .8h0zm2-21.3c-.2 0-.3 0-.5.1-.4.1-.6.2-.7.3-.1 0-.1.1-.1.1s0 .1-.1.3c0 .1 0 .3.1.8.1.3.2.6.3.7s.1.2.2.2h.1.1c.2 0 .4 0 .6-.1.5-.1.6-.3.7-.3.3-.3.6-.7.9-1.3-.5-.3-.9-.6-1.4-.7 0 0-.1-.1-.2-.1h0z"/><path id="Ad" d="M48.7 65.8c-1 0-2-.1-3-.2-2.3-.4-4.3-1.1-6.2-2.2S36 60.8 34.6 59s-2.3-3.9-2.8-6.3-.5-4.7 0-7c.5-2.2 1.5-4.2 2.8-6.1 1.3-1.8 3.1-3.3 5.1-4.5s4.2-2 6.6-2.4c1.3-.2 2.7-.4 3.9-.4a17.33 17.33 0 0 1 3.2.3c2.6.4 4.7 1.2 6.6 2.4s3.5 2.8 4.8 4.7 2.1 4.1 2.5 6.5c.4 2.3.2 4.6-.4 6.8-.6 2.1-1.6 4.1-3 5.8-1.3 1.7-3 3.1-5 4.3-1.9 1.1-4 1.9-6.4 2.3-1.2.3-2.5.4-3.8.4h0z"/><path id="Ae" d="M66 62.6c-2.8 0-5.1-2-5.5-4.8L57.3 37c-.2-1.5.2-3 1-4.2.9-1.2 2.2-2 3.7-2.2l7.6-1.1h.7c2.8 0 5.2 2.1 5.6 4.9l1.3 9.9 4.3-.5h.6c2.9 0 5.3 2.2 5.6 5l.6 5.5c.2 1.5-.3 3-1.2 4.1-.9 1.2-2.3 1.9-3.8 2.1a297.32 297.32 0 0 0-16.5 2.1c-.3 0-.6.1-.8 0h0z"/><path id="Af" d="M110.1 58.5a5.62 5.62 0 0 1-5.6-5.4l-.8-21.1c-.1-1.5.5-2.9 1.5-4s2.4-1.7 3.9-1.8L120 26h.4c2.7 0 5.2.5 7.3 1.3 2.5 1.1 4.5 2.7 6 4.8 1.5 2.2 2.2 4.7 2.2 7.5s-.8 5.2-2.3 7.3l-.1.1 1.7 2.5a5.52 5.52 0 0 1 .3 5.8c-1 1.8-2.9 3-4.9 3h-.1-4.1-3.5-.1c-1 0-1.9-.2-2.7-.7-.8.5-1.7.8-2.7.8l-7.1.2-.2-.1h0z"/><path id="Ag" d="M21.7 71.3c-.7 0-1.3 0-2-.1-2.7-.2-5.2-.9-7.5-2.1-2.4-1.2-4.4-2.8-6.1-4.8-1.7-2.1-3-4.5-3.8-7.2-.8-2.8-1-5.6-.6-8.3.3-2.7 1.3-5.3 2.8-7.5C6 39 8 37.1 10.3 35.5c2.3-1.5 4.9-2.7 7.8-3.4 2.2-.6 4.4-.8 6.4-.8 1.2 0 2.5.1 3.6.3 3.3.6 6.2 1.9 8.8 3.9 2.4 1.9 2.8 5.4 1 7.8l-4.2 5.5L40 52c2.6 1.4 3.7 4.7 2.3 7.4-1.4 2.8-3.3 5.1-5.8 7-2.4 1.8-5.4 3.2-8.7 4-2.1.6-4.1.9-6.1.9h0zm2-21.3c-.2 0-.3 0-.5.1-.4.1-.6.2-.7.3-.1 0-.1.1-.1.1s0 .1-.1.3c0 .1 0 .3.1.8.1.3.2.6.3.7s.1.2.2.2h.1.1c.2 0 .4 0 .6-.1.5-.1.6-.3.7-.3.3-.3.6-.7.9-1.3-.5-.3-.9-.6-1.4-.7 0-.1-.1-.1-.2-.1h0z"/><path id="Ah" d="M48.7 65.3c-1 0-2-.1-3-.2-2.3-.4-4.3-1.1-6.2-2.2s-3.5-2.6-4.9-4.4-2.3-3.9-2.8-6.3-.5-4.7 0-7c.5-2.2 1.5-4.2 2.8-6.1 1.3-1.8 3.1-3.3 5.1-4.5s4.2-2 6.6-2.4c1.3-.2 2.7-.4 3.9-.4a17.33 17.33 0 0 1 3.2.3c2.3.4 4.5 1.2 6.4 2.4s3.5 2.8 4.8 4.6c1.3 1.9 2.1 4.1 2.5 6.5.4 2.3.2 4.6-.4 6.8-.6 2.1-1.6 4.1-3 5.8-1.3 1.7-3 3.1-5 4.3-1.9 1.1-4 1.9-6.4 2.3-1 .4-2.3.5-3.6.5h0z"/><path id="Ai" d="M154.1 59.1c-.5 0-1 0-1.5-.1-2.4-.2-4.6-.7-6.6-1.5-2.1-.9-3.9-2.1-5.4-3.7-1.6-1.6-2.8-3.4-3.6-5.5s-1.2-4.4-1.1-6.8.6-4.7 1.7-6.7c1-2 2.5-3.8 4.2-5.2 1.8-1.4 3.8-2.4 6.1-3.1a19.76 19.76 0 0 1 5.5-.8h1.5c2.9.2 5.6.9 8 2.1 2.5 1.2 4.5 3 6.1 5.1.9 1.2 1.2 2.7 1 4.2-.2 1.2-.8 2.2-1.6 3 .4.9.6 1.8.5 2.8L168 52c-.2 1.9-1.3 3.5-2.9 4.4-1.9 1-4 1.8-6.2 2.2-1.6.3-3.2.5-4.8.5h0 0z"/><path id="Aj" d="M188.6 62.5c-.3 0-.6 0-.9-.1l-7.3-1.1c-2.3-.3-4.1-2-4.7-4.2V57h-.4v.1c-1 1.9-2.9 3-5 3h-.6l-7.2-.7c-1.9-.2-3.6-1.3-4.4-3-.9-1.7-.9-3.7.1-5.3 4.5-8.1 6.9-12.3 11.8-20.2 1-1.7 2.8-2.7 4.8-2.7h.6l7.5.9c2.2.3 4 1.8 4.6 3.9 2.8 8.9 4.2 13.5 6.6 22.4.5 1.8 0 3.8-1.2 5.2-1.2 1.2-2.7 1.9-4.3 1.9h0z"/><path id="Ak" d="M215 67.4c-.4 0-.8 0-1.2-.1l-6.4-1.3c-1.6-.3-3-1.3-3.7-2.7l-.5-.1-3.1-.6-.4-.1-.3.2c-.9.7-2.1 1-3.2 1-.3 0-.6 0-.9-.1l-6.4-1.1c-3.1-.5-5.1-3.3-4.7-6.4l3.2-20.8c.4-2.8 2.8-4.7 5.5-4.7.3 0 .6 0 .9.1l6.2 1c1.9.3 3.4 1.6 4.2 3.3l1.9 4.3 3.2-3.3c1.1-1.1 2.5-1.7 4-1.7.4 0 .8 0 1.1.1l6.2 1.3c3 .7 4.9 3.6 4.3 6.7L220.5 63c-.3 1.5-1.2 2.7-2.4 3.5-1 .6-2 .9-3.1.9h0z"/><path id="Al" d="M21.7 70.8c-.7 0-1.3 0-2-.1-2.7-.2-5.2-.9-7.5-2.1-2.4-1.2-4.4-2.8-6.1-4.8-1.7-2.1-3-4.5-3.8-7.2-.8-2.8-1-5.6-.6-8.3C2 45.6 3 43 4.5 40.8S8 36.6 10.3 35c2.3-1.5 4.9-2.7 7.8-3.4 2.2-.5 4.4-.8 6.4-.8 1.2 0 2.5.1 3.6.3 3.3.6 6.2 1.9 8.8 3.9 2.4 1.9 2.8 5.4 1 7.8l-4.2 5.5 6.2 3.3c2.6 1.4 3.7 4.7 2.3 7.4-1.4 2.8-3.3 5.1-5.8 7-2.4 1.8-5.4 3.2-8.7 4-2 .5-4 .8-6 .8h0zm2-21.3c-.2 0-.3 0-.5.1-.4.1-.6.2-.7.3-.1 0-.1.1-.1.1s0 .1-.1.3c0 .1 0 .3.1.8.1.3.2.6.3.7s.1.2.2.2h.1.1c.2 0 .4 0 .6-.1.5-.1.6-.3.7-.3.3-.3.6-.7.9-1.3-.5-.3-.9-.6-1.4-.7 0-.1-.1-.1-.2-.1h0z"/><path id="Am" d="M48.7 64.8c-1 0-2-.1-3-.2-2.3-.4-4.3-1.1-6.2-2.2S36 59.8 34.6 58s-2.3-3.9-2.8-6.3-.5-4.7 0-7c.5-2.2 1.5-4.2 2.8-6.1 1.3-1.8 3.1-3.3 5.1-4.5s4.2-2 6.6-2.4c1.3-.2 2.7-.4 3.9-.4a17.33 17.33 0 0 1 3.2.3c2.3.4 4.5 1.2 6.4 2.4s3.5 2.8 4.8 4.7 2.1 4.1 2.5 6.5c.4 2.3.2 4.6-.4 6.8-.6 2.1-1.6 4.1-3 5.8-1.3 1.7-3 3.1-5 4.3-1.9 1.1-4 1.9-6.4 2.3-1 .3-2.3.4-3.6.4h0z"/><path id="An" d="M66 61.7c-2.8 0-5.1-2-5.5-4.8l-3.1-20.8c-.2-1.5.2-3 1-4.2.9-1.2 2.2-2 3.7-2.2l7.6-1.1h.7c2.8 0 5.2 2.1 5.6 4.9l1.3 9.9 4.3-.5h.6c2.9 0 5.3 2.2 5.6 5l.6 5.5c.2 1.5-.3 3-1.2 4.1-.9 1.2-2.3 1.9-3.8 2a297.32 297.32 0 0 0-16.5 2.1c-.4.1-.7.1-.9.1h0z"/><path id="Ao" d="M110.1 57.6a5.62 5.62 0 0 1-5.6-5.4l-.8-21.1c-.1-1.5.5-2.9 1.5-4s2.4-1.7 3.9-1.8L120 25h.4c2.7 0 5.2.5 7.3 1.3 2.5 1.1 4.5 2.7 6 4.8 1.5 2.2 2.2 4.7 2.2 7.5s-.8 5.2-2.3 7.3l-.1.1 1.7 2.5a5.52 5.52 0 0 1 .3 5.8c-1 1.8-2.9 3-4.9 3h-.1-4.1-3.5-.1c-1 0-1.9-.2-2.7-.7-.8.5-1.7.8-2.7.8l-7.1.2h-.2 0z"/><path id="Ap" d="M154.1 58.6c-.5 0-1 0-1.5-.1-2.4-.2-4.6-.7-6.6-1.5-2.1-.9-3.9-2.1-5.4-3.7-1.6-1.6-2.8-3.4-3.6-5.5s-1.2-4.4-1.1-6.8.6-4.7 1.7-6.7c1-2 2.5-3.8 4.2-5.3 1.8-1.4 3.8-2.4 6.1-3.1a19.76 19.76 0 0 1 5.5-.8h1.5c2.9.2 5.6.9 8 2.1 2.5 1.2 4.5 3 6.1 5.1.9 1.2 1.2 2.7 1 4.2-.2 1.2-.8 2.2-1.6 3 .4.9.6 1.8.5 2.8l-.8 8.9c-.2 1.9-1.3 3.5-2.9 4.4-1.9 1-4 1.8-6.2 2.2-1.7.7-3.3.8-4.9.8h0 0z"/><path id="Aq" d="M21.7 70.3c-.7 0-1.3 0-2-.1-2.7-.2-5.2-.9-7.5-2.1-2.4-1.2-4.4-2.8-6.1-4.8s-3-4.5-3.8-7.2c-.8-2.8-1-5.6-.6-8.3.3-2.7 1.3-5.2 2.8-7.5 1.5-2.2 3.4-4.2 5.8-5.8 2.3-1.5 4.9-2.7 7.8-3.4 2.2-.5 4.4-.8 6.4-.8 1.2 0 2.5.1 3.6.3 3.3.6 6.2 1.8 8.8 3.8 2.4 1.9 2.8 5.4 1 7.8l-4.2 5.5 6.2 3.3c2.6 1.4 3.7 4.7 2.3 7.4-1.4 2.8-3.3 5.1-5.8 7-2.4 1.8-5.4 3.2-8.7 4-2 .6-4 .9-6 .9h0zm2-21.3c-.2 0-.3 0-.5.1-.4.1-.6.2-.7.3-.1 0-.1.1-.1.1s0 .1-.1.3c0 .1 0 .3.1.8.1.3.2.6.3.7s.1.2.2.2h.1.1c.2 0 .4 0 .6-.1.5-.1.6-.3.7-.3.3-.3.6-.7.9-1.3-.5-.3-.9-.6-1.4-.7 0-.1-.1-.1-.2-.1h0z"/><path id="Ar" d="M154.1 58.2c-.5 0-1 0-1.5-.1-2.4-.2-4.6-.7-6.6-1.5-2.1-.9-3.9-2.1-5.4-3.7-1.6-1.6-2.8-3.4-3.6-5.5s-1.2-4.4-1.1-6.8.6-4.7 1.7-6.7c1-2.1 2.5-3.8 4.2-5.3 1.8-1.4 3.8-2.4 6.1-3.1a19.76 19.76 0 0 1 5.5-.8h1.5c2.9.2 5.6.9 8 2.1 2.5 1.2 4.5 3 6.1 5.1.9 1.2 1.2 2.7 1 4.2-.2 1.2-.8 2.2-1.6 3 .4.9.6 1.8.5 2.8L168 51c-.2 1.9-1.3 3.5-2.9 4.4-1.9 1-4 1.8-6.2 2.2-1.6.4-3.2.6-4.8.6h0 0z"/><path id="As" d="M188.6 61.5c-.3 0-.6 0-.9-.1l-7.3-1.1c-2.3-.3-4.1-2-4.7-4.2V56h-.4v.1c-1 1.9-2.9 3-5 3h-.6l-7.2-.7c-1.9-.2-3.6-1.3-4.4-3-.9-1.7-.9-3.7.1-5.3 4.5-8.1 6.9-12.3 11.8-20.2 1-1.7 2.8-2.7 4.8-2.7h.6l7.5.9c2.2.3 4 1.8 4.6 3.9 2.8 8.9 4.2 13.5 6.6 22.4.5 1.8 0 3.8-1.2 5.2a5.7 5.7 0 0 1-4.3 1.9h0z"/><path id="At" d="M215 66.4c-.4 0-.8 0-1.2-.1l-6.4-1.3c-1.6-.3-3-1.3-3.7-2.7l-.5-.1-3.1-.6-.4-.1-.3.2c-.9.7-2.1 1-3.2 1-.3 0-.6 0-.9-.1l-6.4-1.1c-3.1-.5-5.1-3.3-4.7-6.4l3.2-20.8c.4-2.8 2.8-4.7 5.5-4.7.3 0 .6 0 .9.1l6.2 1c1.9.3 3.4 1.6 4.2 3.3l1.9 4.3 3.2-3.3c1.1-1.1 2.5-1.7 4-1.7.4 0 .8 0 1.1.1l6.2 1.3c3 .7 4.9 3.6 4.3 6.7L220.5 62c-.3 1.5-1.2 2.7-2.4 3.5-1 .6-2 .9-3.1.9h0z"/><path id="Au" d="M110.1 56.6a5.62 5.62 0 0 1-5.6-5.4l-.8-21.1c-.1-1.5.5-2.9 1.5-4s2.4-1.7 3.9-1.8L120 24h.4c2.7 0 5.2.5 7.3 1.3 2.5 1.1 4.5 2.7 6 4.8s2.2 4.7 2.2 7.4c0 2.8-.8 5.2-2.3 7.3l-.1.1 1.7 2.5a5.52 5.52 0 0 1 .3 5.8c-1 1.8-2.9 3-4.9 3h-.1-4.1-3.5-.1c-1 0-1.9-.2-2.7-.7-.8.5-1.7.8-2.7.8l-7.1.2-.2.1h0z"/><path id="Av" d="M66 60.3c-2.8 0-5.1-2-5.5-4.8l-3.1-20.8c-.2-1.5.2-3 1-4.2.9-1.2 2.2-2 3.7-2.2l7.6-1.1h.7c2.8 0 5.2 2.1 5.6 4.9l1.3 9.9 4.3-.5h.6c2.9 0 5.3 2.2 5.6 5l.6 5.5c.2 1.5-.3 3-1.2 4.1-.9 1.2-2.3 1.9-3.8 2.1a297.32 297.32 0 0 0-16.5 2.1c-.4-.1-.7 0-.9 0h0z"/><path id="Aw" d="M215 65.5c-.4 0-.8 0-1.2-.1l-6.4-1.3c-1.6-.3-3-1.4-3.7-2.7l-.5-.1-3.1-.6-.4-.1-.3.2c-.9.7-2.1 1-3.2 1-.3 0-.6 0-.9-.1l-6.4-1.1c-3.1-.5-5.1-3.3-4.7-6.4l3.2-20.8c.4-2.8 2.8-4.7 5.5-4.7.3 0 .6 0 .9.1l6.2 1c1.9.3 3.4 1.6 4.2 3.3l1.9 4.3 3.2-3.3c1.1-1.1 2.5-1.7 4-1.7.4 0 .8 0 1.1.1l6.2 1.3c3 .7 4.9 3.6 4.3 6.7l-4.5 20.6c-.3 1.5-1.2 2.7-2.4 3.5a5.29 5.29 0 0 1-3 .9h0z"/><path id="Ax" d="M21.7 68.9c-.7 0-1.3 0-2-.1-2.7-.2-5.2-.9-7.5-2.1-2.4-1.2-4.4-2.8-6.1-4.8-1.7-2.1-3-4.5-3.8-7.2-.8-2.8-1-5.6-.6-8.3.3-2.7 1.3-5.3 2.8-7.5s3.4-4.2 5.8-5.8c2.3-1.5 4.9-2.7 7.8-3.4 2.2-.5 4.4-.8 6.4-.8 1.2 0 2.5.1 3.6.3 3.3.6 6.2 1.8 8.8 3.9 2.4 1.9 2.8 5.4 1 7.8l-4.2 5.5 6.2 3.3c2.6 1.4 3.7 4.7 2.3 7.4-1.4 2.8-3.3 5.1-5.8 7-2.4 1.8-5.4 3.2-8.7 4-2 .5-4 .8-6 .8h0zm2-21.3c-.2 0-.3 0-.5.1-.4.1-.6.2-.7.3-.1 0-.1.1-.1.1s0 .1-.1.3c0 .1 0 .3.1.8.1.3.2.6.3.7s.1.2.2.2h.1.1c.2 0 .4 0 .6-.1.5-.1.6-.3.7-.3.3-.3.6-.7.9-1.3-.5-.3-.9-.6-1.4-.7 0-.1-.1-.1-.2-.1h0z"/><path id="Ay" d="M154.1 56.7c-.5 0-1 0-1.5-.1-2.4-.2-4.6-.7-6.6-1.5-2.1-.9-3.9-2.1-5.4-3.7-1.6-1.6-2.8-3.4-3.6-5.5s-1.2-4.4-1.1-6.8.6-4.7 1.7-6.7c1-2.1 2.5-3.8 4.2-5.3 1.8-1.4 3.8-2.4 6.1-3.1a19.76 19.76 0 0 1 5.5-.8h1.5c2.9.2 5.6.9 8 2.1 2.5 1.2 4.5 3 6.1 5.1.9 1.2 1.2 2.7 1 4.2-.2 1.2-.8 2.2-1.6 3 .4.9.6 1.8.5 2.8l-.8 8.9c-.2 1.9-1.3 3.5-2.9 4.4-1.9 1-4 1.8-6.2 2.2-1.7.7-3.3.8-4.9.8h0 0z"/><path id="Az" d="M110.1 59.7c-1.6 0-2.9-1.3-3-2.9l-.8-21.1c0-.8.2-1.6.8-2.1.5-.6 1.3-.9 2.1-1l10.9-.3h.3c2.4 0 4.5.4 6.3 1.1 2.1.9 3.7 2.2 4.8 3.8 1.2 1.7 1.7 3.7 1.7 6 0 2.2-.6 4.2-1.8 5.9l-1.2 1.4 2.8 4.1a3.12 3.12 0 0 1 .2 3.1c-.5 1-1.5 1.6-2.6 1.6h0-4.1-3.5 0c-1 0-1.9-.5-2.5-1.3l-.3-.5c-.5 1.1-1.5 1.8-2.7 1.8l-7.1.2-.3.2h0z"/><path id="BA" d="M154.1 60.8h-1.3c-2.1-.1-4-.6-5.7-1.3-1.8-.8-3.3-1.8-4.6-3.1s-2.3-2.9-3-4.6c-.7-1.8-1-3.7-.9-5.7.1-2.1.5-4 1.4-5.7s2.1-3.2 3.6-4.4 3.2-2.1 5.2-2.6c1.5-.4 3.1-.6 4.8-.6h1.4c2.6.2 5 .8 7 1.8 2.1 1 3.8 2.5 5.1 4.3.5.7.6 1.5.5 2.3s-.6 1.5-1.2 2l-1.6 1.1c.4.2.7.4 1 .8.5.6.8 1.4.7 2.2l-.8 8.9c-.1 1-.7 1.9-1.6 2.4-1.6.9-3.5 1.5-5.5 1.9-1.7.2-3.1.3-4.5.3h0 0zm0-16.3c-.3 0-.6 0-.9.1l-.6.3c-.2.2-.3.3-.4.6s-.2.7-.2 1.1 0 .8.1 1.1.2.5.4.7.4.3.6.4.4.2.7.2l.2-2.8c.1-.6.3-1.2.6-1.7h-.1-.4 0z"/><path id="BB" d="M188.6 64.2h-.5l-7.3-1c-1.2-.2-2.2-1.1-2.5-2.3l-.4-1.8-4-.5-.9 1.7c-.5 1-1.6 1.6-2.7 1.6h-.3l-7.2-.7c-1-.1-1.9-.7-2.4-1.6a2.99 2.99 0 0 1 0-2.9c4.5-8.2 6.8-12.1 11.7-20.1.5-.9 1.5-1.4 2.6-1.4h.3l7.4.9c1.2.1 2.1 1 2.5 2.1l6.6 22.3c.3 1 0 2-.7 2.8-.5.5-1.3.9-2.2.9h0z"/><path id="BC" d="M241.1 75.8c-.3 0-.6 0-.8-.1-8.8-2.6-13.1-3.7-22.1-5.8-.8-.2-1.4-.7-1.9-1.3-.4-.7-.6-1.5-.4-2.3l6.1-26.4c.3-1.4 1.5-2.3 2.9-2.3.2 0 .5 0 .7.1 9.3 2.2 14.1 3.4 23.4 6.1.8.2 1.4.7 1.8 1.4s.5 1.5.2 2.3l-1.9 6.6c-.3 1.2-1.3 2-2.4 2.1 0 .2-.1.3-.1.4l-1.8 6.3c-.1.2-.1.4-.2.6 1.2.7 1.8 2.1 1.4 3.4l-1.9 6.6c-.4 1.4-1.6 2.3-3 2.3h0z"/><path id="BD" d="M94.3 60.6c-1.5 0-3-.2-4.4-.6-1.9-.5-3.6-1.3-5.1-2.4s-2.7-2.5-3.7-4.1-1.6-3.5-1.8-5.5 0-4 .6-5.8 1.6-3.4 2.9-4.8 2.9-2.5 4.7-3.3 3.8-1.3 6-1.5l1.5-.1c1.6 0 3.2.2 4.7.6 1.9.5 3.7 1.4 5.2 2.6s2.7 2.6 3.6 4.3 1.4 3.6 1.5 5.6-.2 3.9-.9 5.7c-.7 1.7-1.7 3.3-3 4.6s-2.8 2.4-4.6 3.2c-1.7.8-3.7 1.2-5.7 1.4l-1.5.1h0zm.2-16.3c-.3 0-.6.1-.8.2s-.4.2-.5.4l-.3.6c-.1.3-.1.7-.1 1.1s.1.8.3 1.1c.1.3.3.5.4.6.2.1.4.3.6.3.2.1.4.1.6.1h.2c.3 0 .5-.1.8-.2.2-.1.4-.2.5-.4s.2-.4.3-.7.1-.7.1-1.2-.1-.8-.2-1.1c-.1-.2-.2-.4-.4-.6s-.4-.3-.6-.3c-.2-.1-.4-.1-.6-.1l-.3.2h0z"/><path id="BE" d="M154.1 60.3h-1.3c-2.1-.1-4-.6-5.7-1.3-1.8-.8-3.3-1.8-4.6-3.1s-2.3-2.9-3-4.6c-.7-1.8-1-3.7-.9-5.7.1-2.1.5-4 1.4-5.7s2.1-3.2 3.6-4.4 3.2-2.1 5.2-2.6c1.5-.4 3.1-.6 4.8-.6h1.4c2.6.2 5 .8 7 1.8 2.1 1 3.8 2.5 5.1 4.3.5.7.6 1.5.5 2.3s-.6 1.5-1.2 2l-1.6 1.1c.4.2.7.4 1 .8.5.6.8 1.4.7 2.2l-.8 8.9c-.1 1-.7 1.9-1.6 2.4-1.6.9-3.5 1.5-5.5 1.9-1.7.2-3.1.3-4.5.3h0 0zm0-16.2c-.3 0-.6 0-.9.1l-.6.3c-.2.2-.3.3-.4.6s-.2.7-.2 1.1 0 .8.1 1.1.2.5.4.7.4.3.6.4.4.2.7.2l.2-2.8c.1-.6.3-1.2.6-1.7h-.1-.4 0z"/><path id="BF" d="M215 68.6c-.2 0-.4 0-.6-.1l-6.4-1.4c-1.4-.3-2.4-1.6-2.4-3-.4.2-.8.3-1.3.3h-.6l-3.1-.6c-.6-.1-1.2-.4-1.6-.8-.2.6-.6 1-1.1 1.4s-1.1.6-1.7.5h-.5l-6.4-1.1c-1.6-.2-2.8-1.8-2.5-3.4l3.2-20.8c.2-1.5 1.5-2.5 3-2.5h.5l6.2 1c1 .2 1.8.8 2.2 1.8l3.4 8 5.9-6.2c.6-.6 1.4-.9 2.2-.9.2 0 .4 0 .6.1l6.1 1.3a3.13 3.13 0 0 1 2.3 3.6l-4.5 20.6c-.2.8-.6 1.5-1.3 1.9-.5.2-1 .3-1.6.3h0z"/><path id="BG" d="M48.7 66.1c-.9 0-1.7-.1-2.5-.2-1.9-.3-3.7-.9-5.3-1.9s-3-2.2-4.1-3.7-1.9-3.3-2.3-5.3-.4-4 0-5.8 1.2-3.6 2.4-5.1c1.1-1.5 2.6-2.8 4.4-3.8 1.7-1 3.7-1.7 5.8-2.1a20.68 20.68 0 0 1 3.5-.3c.9 0 1.8.1 2.7.2 2 .3 3.8 1 5.4 2s3 2.3 4 3.9c1.1 1.6 1.8 3.4 2.1 5.4s.2 3.9-.3 5.7-1.3 3.5-2.5 4.9a14.6 14.6 0 0 1-4.2 3.6c-1.6 1-3.5 1.6-5.5 2-1.3.3-2.5.4-3.6.5h0zm.9-16.4h-.5l-.8.3c-.2.1-.4.3-.5.5s-.2.4-.2.7c-.1.3 0 .7 0 1.1s.2.8.4 1.1c.2.2.3.4.5.5l.6.3h.4.4c.3 0 .5-.1.7-.3.2-.1.4-.3.5-.5s.2-.4.3-.7.1-.7 0-1.2c-.1-.4-.2-.8-.4-1.1-.1-.2-.3-.4-.5-.5l-.6-.3c0 .1-.2.1-.3.1h0z"/><path id="BH" d="M188.6 63.2h-.5l-7.3-1c-1.2-.2-2.2-1.1-2.5-2.3l-.4-1.8-4-.5-.9 1.7c-.5 1-1.6 1.6-2.7 1.6h-.3l-7.2-.7c-1-.1-1.9-.7-2.4-1.6a2.99 2.99 0 0 1 0-2.9c4.5-8.2 6.8-12.1 11.7-20.1.5-.9 1.5-1.4 2.6-1.4h.3l7.4.9c1.2.1 2.1 1 2.5 2.1l6.6 22.3c.3 1 0 2-.7 2.8-.5.6-1.3.9-2.2.9h0z"/><path id="BI" d="M48.7 65.6c-.9 0-1.7-.1-2.5-.2-1.9-.3-3.7-.9-5.3-1.9s-3-2.2-4.1-3.7-1.9-3.3-2.3-5.3-.4-4 0-5.8 1.2-3.6 2.4-5.1c1.1-1.5 2.6-2.8 4.4-3.8 1.7-1 3.7-1.7 5.8-2.1a20.68 20.68 0 0 1 3.5-.3c.9 0 1.8.1 2.7.2 2 .3 3.8 1 5.4 2s3 2.3 4 3.9c1.1 1.6 1.8 3.4 2.1 5.4s.2 3.9-.3 5.7-1.3 3.5-2.5 4.9a14.6 14.6 0 0 1-4.2 3.6c-1.6 1-3.5 1.6-5.5 2-1.3.4-2.5.5-3.6.5h0zm.9-16.4h-.5l-.8.3c-.2.1-.4.3-.5.5s-.2.4-.2.7c-.1.3 0 .7 0 1.1s.2.8.4 1.1c.2.2.3.4.5.5l.6.3h.4.4c.3 0 .5-.1.7-.3.2-.1.4-.3.5-.5s.2-.4.3-.7.1-.7 0-1.2c-.1-.4-.2-.8-.4-1.1-.1-.2-.3-.4-.5-.5l-.6-.3c0 .1-.2.1-.3.1h0z"/><path id="BJ" d="M154.1 59.4h-1.3c-2.1-.1-4-.6-5.7-1.3-1.8-.8-3.3-1.8-4.6-3.1s-2.3-2.9-3-4.6c-.7-1.8-1-3.7-.9-5.7.1-2.1.5-4 1.4-5.7s2.1-3.2 3.6-4.4 3.2-2.1 5.2-2.6c1.5-.4 3.1-.6 4.8-.6h1.4c2.6.2 5 .8 7 1.8 2.1 1 3.8 2.5 5.1 4.3.5.7.6 1.5.5 2.3s-.6 1.5-1.2 2l-1.6 1.1c.4.2.7.4 1 .8.5.6.8 1.4.7 2.2l-.8 8.9c-.1 1-.7 1.9-1.6 2.4-1.6.9-3.5 1.5-5.5 1.9l-4.5.3h0 0zm0-16.3c-.3 0-.6 0-.9.1l-.6.3c-.2.2-.3.3-.4.6s-.2.7-.2 1.1 0 .8.1 1.1.2.5.4.7.4.3.6.4.4.2.7.2l.2-2.8c.1-.6.3-1.2.6-1.7h-.1-.4 0z"/><path id="BK" d="M215 67.7c-.2 0-.4 0-.6-.1l-6.4-1.4c-1.4-.3-2.4-1.6-2.4-3-.4.2-.8.3-1.3.3h-.6l-3.1-.6c-.6-.1-1.2-.4-1.6-.8-.2.6-.6 1-1.1 1.4s-1.1.6-1.7.5h-.5l-6.4-1.1c-1.6-.2-2.8-1.8-2.5-3.4l3.2-20.8c.2-1.5 1.5-2.5 3-2.5h.5l6.2 1c1 .2 1.8.8 2.2 1.8l3.4 8 5.9-6.2c.6-.6 1.4-.9 2.2-.9.2 0 .4 0 .6.1l6.1 1.3a3.13 3.13 0 0 1 2.3 3.6l-4.5 20.6c-.2.8-.6 1.5-1.3 1.9-.5.1-1 .3-1.6.3h0z"/><path id="BL" d="M48.7 64.1c-.9 0-1.7-.1-2.5-.2-1.9-.3-3.7-.9-5.3-1.9s-3-2.2-4.1-3.7-1.9-3.3-2.3-5.3-.4-4 0-5.8 1.2-3.6 2.4-5.1c1.1-1.5 2.6-2.8 4.4-3.8 1.7-1 3.7-1.7 5.8-2.1a20.68 20.68 0 0 1 3.5-.3c.9 0 1.8.1 2.7.2 2 .3 3.8 1 5.4 2s3 2.3 4 3.9c1.1 1.6 1.8 3.4 2.1 5.4s.2 3.9-.3 5.7-1.3 3.5-2.5 4.9a14.6 14.6 0 0 1-4.2 3.6c-1.6 1-3.5 1.6-5.5 2-1.3.4-2.5.5-3.6.5h0zm.9-16.3h-.5l-.8.3c-.2.1-.4.3-.5.5s-.2.4-.2.7c-.1.3 0 .7 0 1.1s.2.8.4 1.1c.2.2.3.4.5.5l.6.3h.4.4c.3 0 .5-.1.7-.3.2-.1.4-.3.5-.5s.2-.4.3-.7.1-.7 0-1.2c-.1-.4-.2-.8-.4-1.1-.1-.2-.3-.4-.5-.5l-.6-.3c0 .1-.2.1-.3.1h0z"/><path id="BM" d="M241.1 72c-.3 0-.6 0-.8-.1-8.8-2.6-13.1-3.7-22.1-5.8-.8-.2-1.4-.7-1.9-1.3-.4-.7-.6-1.5-.4-2.3l6.1-26.4c.3-1.4 1.5-2.3 2.9-2.3.2 0 .5 0 .7.1 9.3 2.2 14.1 3.4 23.4 6.1.8.2 1.4.7 1.8 1.4s.5 1.5.2 2.3l-1.9 6.6c-.3 1.2-1.3 2-2.4 2.1 0 .2-.1.3-.1.4l-1.8 6.3c-.1.2-.1.4-.2.6 1.2.7 1.8 2.1 1.4 3.4l-1.9 6.6c-.4 1.4-1.6 2.2-3 2.3h0z"/><path id="BN" d="M110.1 55.4c-1.6 0-2.9-1.3-3-2.9l-.8-21.1c0-.8.2-1.6.8-2.1s1.3-.9 2.1-1l10.9-.3h.3c2.4 0 4.5.4 6.3 1.1 2.1.9 3.7 2.2 4.8 3.8 1.2 1.7 1.7 3.7 1.7 6 0 2.2-.6 4.2-1.8 5.9l-1.2 1.4 2.8 4.1a3.12 3.12 0 0 1 .2 3.1c-.5 1-1.5 1.6-2.6 1.6h0-4.1-3.5 0c-1 0-1.9-.5-2.5-1.3l-.3-.5c-.5 1.1-1.5 1.8-2.7 1.8l-7.1.2-.3.2h0z"/><path id="BO" d="M188.6 58h-.5l-7.3-1c-1.2-.2-2.2-1.1-2.5-2.3l-.4-1.8-4-.5-.9 1.6c-.5 1-1.6 1.6-2.7 1.6h-.3l-7.2-.7c-1-.1-1.9-.7-2.4-1.6a2.99 2.99 0 0 1 0-2.9c4.5-8.2 6.8-12.1 11.7-20.1.5-.9 1.5-1.4 2.6-1.4h.3l7.4.9c1.2.1 2.1 1 2.5 2.1l6.6 22.3c.3 1 0 2-.7 2.8-.5.6-1.3 1-2.2 1h0z"/><path id="BP" d="M241.1 69.1c-.3 0-.6 0-.8-.1-8.8-2.6-13.1-3.7-22.1-5.7-.8-.2-1.4-.7-1.9-1.3-.4-.7-.6-1.5-.4-2.3l6.1-26.4c.3-1.4 1.5-2.3 2.9-2.3.2 0 .5 0 .7.1 9.3 2.2 14.1 3.4 23.4 6.1.8.2 1.4.7 1.8 1.4s.5 1.5.2 2.3l-1.9 6.6c-.3 1.2-1.3 2-2.4 2.1 0 .2-.1.3-.1.4l-1.8 6.3c-.1.2-.1.4-.2.6 1.2.7 1.8 2.1 1.4 3.4l-1.9 6.6a3.12 3.12 0 0 1-3 2.2h0z"/><path id="BQ" d="M86.3 21.1c-.5 0-.9-.2-1.3-.5a1.75 1.75 0 0 1-.7-1.4l-1-10.6c-.1-1.1.7-2.1 1.8-2.2l2.5-.2h.2c.5 0 .9.2 1.3.5s.7.8.7 1.3l1 10.6c.1 1.1-.7 2.1-1.8 2.2l-2.5.2-.2.1h0z"/><path id="BR" d="M103.4 19.8c-.5 0-1-.2-1.3-.5-.4-.4-.6-.9-.7-1.4l-.6-10.7a1.95 1.95 0 0 1 1.9-2.1l2.7-.1c.5 0 1 .2 1.3.5.4.4.6.9.7 1.4l.6 10.7c0 .5-.2 1-.5 1.4-.4.4-.8.6-1.4.7l-2.5.1h-.2 0z"/><path id="BS" d="M109.2 19.5c-.5 0-1-.2-1.3-.5-.4-.4-.6-.9-.7-1.4l-.5-10.7c0-.5.2-1 .5-1.4.4-.4.9-.6 1.4-.7l8.3-.3h.1c1.1 0 2 .9 2 2l.1 2c0 .6-.3 1.2-.8 1.6.1.2.1.5.2.7l.1 1.9c0 .3 0 .5-.1.7a1.38 1.38 0 0 1 .4.3c.4.4.6.9.6 1.4l.1 2c0 .5-.2 1-.6 1.4s-.9.6-1.4.6l-8.4.4h0 0z"/><path id="BT" d="M135 19.2c-.9 0-1.7-.7-1.9-1.6-.3.3-.8.4-1.2.4h-1.1c-.4 0-.9-.1-1.2-.4-.2.9-1 1.5-1.9 1.5h-2.3c-1.1 0-2-.9-2-2l-.1-10.7c0-.5.2-1 .6-1.4s.9-.6 1.4-.6h2.1c.7 0 1.3.4 1.7.9l2.4 3.9 2.4-3.8c.4-.6 1-.9 1.7-.9h2.1c1.1 0 2 .9 2 2l-.2 10.7c0 .5-.2 1-.6 1.4s-.9.6-1.4.6H135h0z"/><path id="BU" d="M151.2 19.7l-2.6-.1c-.8 0-1.5-.6-1.8-1.3l-.4-1.1-2.3-.1-.5 1c-.3.7-1 1.2-1.8 1.2 0 0-1.8 0-2.6-.1a1.78 1.78 0 0 1-1.6-1c-.4-.6-.4-1.3-.1-1.9l5.2-10.6c.3-.7 1-1.1 1.8-1.1l2.6.1c.8 0 1.5.5 1.8 1.2l4.3 10.9c.2.6.1 1.3-.2 1.9-.4.5-1 .8-1.6.8l-.2.2h0z"/><path id="BV" d="M158.7 20.4h-.7c-1-.1-2-.3-3-.7-.9-.4-1.7-1-2.4-1.7s-1.2-1.6-1.5-2.5c-.4-.9-.5-2-.4-3 .1-1.1.3-2.1.8-3s1.1-1.7 1.9-2.3 1.7-1.1 2.7-1.4c.8-.2 1.6-.3 2.4-.3h.7c1.2.1 2.4.4 3.3.9 1 .5 1.9 1.2 2.6 2.1s.5 2.1-.4 2.8l-.4.3c.5.4.8 1 .7 1.7l-.4 4.3c-.1.6-.4 1.2-.9 1.5-.8.5-1.7.9-2.7 1.1l-2.3.2h0zm-.1-8.9c-.2 0-.4 0-.5.1-.2 0-.3.1-.5.2-.1.1-.2.2-.3.4s-.1.4-.1.6 0 .4.1.6.1.3.2.4a1.38 1.38 0 0 0 .4.3c.2.1.4.1.6.2l.1-1.6c0-.5.2-.9.5-1.2l-.3-.1c.1.1-.2.1-.2.1z"/><path id="BW" d="M177.3 22.1c-.4 0-.7 0-1.1-.1-1.1-.1-2-.4-2.9-.9s-1.7-1.1-2.3-1.8c-.6-.8-1.1-1.6-1.4-2.6s-.4-2-.3-3.1.4-2.1.9-2.9 1.2-1.6 2-2.2 1.7-1 2.7-1.3c.6-.2 1.3-.2 2-.2.4 0 .7 0 1.1.1 1.2.1 2.3.5 3.3 1 1 .6 1.8 1.3 2.4 2.3.6.9.4 2.1-.5 2.7l-1.8 1.2c-.3.2-.7.4-1.1.4h-.4c-.5-.1-1-.4-1.3-.8-.1-.2-.3-.4-.5-.5s-.4-.2-.6-.2h-.3c-.1 0-.3 0-.4.1-.2 0-.3.1-.4.2s-.2.2-.3.4-.1.4-.2.6v.6c.1.2.1.3.2.4a1.38 1.38 0 0 0 .4.3c.2.1.4.2.7.2h.2c.1 0 .3 0 .4-.1.2-.1.4-.2.6-.4.4-.3.9-.5 1.3-.5h.1c.5 0 1 .3 1.4.7l1.4 1.7c.7.8.6 2-.2 2.8s-1.8 1.3-2.9 1.6c-.7.2-1.4.3-2.2.3h0z"/><path id="BX" d="M90.9 20.4c-.7 0-1.3-.4-1.7-.9-.4-.6-.4-1.4 0-2.1l2.8-4.5-3.3-3.8c-.6-.6-.7-1.4-.4-2.1s.9-1.2 1.7-1.2l2.9-.2h.1c.6 0 1.1.3 1.5.7l1 1.2.8-1.3c.3-.6.9-.9 1.6-1l2.8-.2h.1c.7 0 1.4.4 1.7 1 .4.7.4 1.5-.1 2.1l-2.7 4.2 3.4 4.1a2.01 2.01 0 0 1 .3 2.1c-.3.7-1 1.1-1.7 1.2l-2.7.1h-.1c-.6 0-1.2-.3-1.6-.8l-1-1.3-.8 1.4a1.78 1.78 0 0 1-1.6 1l-2.9.4-.1-.1h0z"/><path id="BY" d="M135 18.9c-.9 0-1.7-.7-1.9-1.6-.3.3-.8.4-1.2.4h-1.1c-.4 0-.9-.1-1.2-.4-.2.9-1 1.5-1.9 1.5h-2.3c-1.1 0-2-.9-2-2l-.1-10.7c0-.5.2-1 .6-1.4s.9-.6 1.4-.6h2.1c.7 0 1.3.4 1.7.9l2.4 3.9 2.4-3.8c.4-.6 1-.9 1.7-.9h2.1c1.1 0 2 .9 2 2l-.3 10.8c0 .5-.2 1-.6 1.4s-.9.6-1.4.6c0-.1-1.6-.1-2.4-.1h0z"/><path id="BZ" d="M158.7 20.1h-.7c-1-.1-2-.3-3-.7-.9-.4-1.7-1-2.4-1.7s-1.2-1.6-1.5-2.5c-.4-.9-.5-2-.4-3 .1-1.1.3-2.1.8-3s1.1-1.7 1.9-2.3 1.7-1.1 2.7-1.4c.8-.2 1.6-.3 2.4-.3h.7c1.2.1 2.4.4 3.3.9 1 .5 1.9 1.2 2.6 2.1s.5 2.1-.4 2.8l-.4.3c.5.4.8 1 .7 1.7l-.4 4.3c-.1.6-.4 1.2-.9 1.5-.8.5-1.7.9-2.7 1.1-.8.2-1.6.3-2.3.2h0zm-.1-8.9c-.2 0-.4 0-.5.1-.2 0-.3.1-.5.2-.1.1-.2.2-.3.4s-.1.4-.1.6 0 .4.1.6.1.3.2.4a1.38 1.38 0 0 0 .4.3c.2.1.4.1.6.2l.1-1.6c0-.5.2-.9.5-1.2l-.3-.1c.1.1-.2.1-.2.1z"/><path id="Ba" d="M177.3 21.9c-.4 0-.7 0-1.1-.1-1.1-.1-2-.4-2.9-.9s-1.7-1.1-2.3-1.8c-.6-.8-1.1-1.6-1.4-2.6s-.4-2-.3-3.1.4-2.1.9-2.9 1.2-1.6 2-2.2 1.7-1 2.7-1.3c.6-.2 1.3-.2 2-.2.4 0 .7 0 1.1.1 1.2.1 2.3.5 3.3 1 1 .6 1.8 1.3 2.4 2.3.6.9.4 2.1-.5 2.7l-1.8 1.2c-.3.2-.7.4-1.1.4h-.4c-.5-.1-1-.4-1.3-.8-.1-.2-.3-.4-.5-.5s-.4-.2-.6-.2h-.3c-.1 0-.3 0-.4.1-.2 0-.3.1-.4.2s-.2.2-.3.4-.1.4-.2.6v.6c.1.2.1.3.2.4a1.38 1.38 0 0 0 .4.3c.2.1.4.2.7.2h.2c.1 0 .3 0 .4-.1.2-.1.4-.2.6-.4.4-.3.9-.5 1.3-.5h.1c.5 0 1 .3 1.4.7l1.4 1.7c.7.8.6 2-.2 2.8s-1.8 1.3-2.9 1.6c-.7.1-1.4.3-2.2.3h0z"/><path id="Bb" d="M86.3 20.6c-.5 0-.9-.2-1.3-.5a1.75 1.75 0 0 1-.7-1.4l-1-10.6c-.1-1 .7-2 1.8-2.1l2.5-.2h.2c.5 0 .9.2 1.3.5s.7.8.7 1.3l1 10.6c.1 1.1-.7 2.1-1.8 2.2l-2.5.2h-.2 0z"/><path id="Bc" d="M167.8 20.5l-2.5-.2c-.5 0-1-.3-1.4-.7s-.5-.9-.5-1.5l.9-10.6c.1-.5.3-1 .7-1.4.4-.3.8-.5 1.3-.5h.2l2.5.2c1.1.1 1.9 1.1 1.8 2.2l-1 10.6c-.1.5-.3 1-.7 1.4-.4.3-.8.5-1.3.5h0 0z"/><path id="Bd" d="M109.2 18.2c-.5 0-1-.2-1.3-.5-.4-.4-.6-.9-.7-1.4l-.5-10.7c0-.5.2-1 .5-1.4.4-.4.9-.6 1.4-.7l8.3-.3h.1c1.1 0 2 .9 2 2l.1 2c0 .7-.3 1.2-.8 1.6.1.2.1.5.2.7l.1 1.9c0 .3 0 .5-.1.7a1.38 1.38 0 0 1 .4.3c.4.4.6.9.6 1.4l.1 2c0 .5-.2 1-.6 1.4s-.9.6-1.4.6l-8.4.4h0 0z"/><path id="Be" d="M167.8 19.5l-2.5-.2c-.5 0-1-.3-1.4-.7-.3-.4-.5-.9-.5-1.5l.9-10.6c.1-.5.3-1 .7-1.4.4-.3.8-.5 1.3-.5h.2l2.5.2c1.1.1 1.9 1.1 1.8 2.2l-1 10.6c-.1.5-.3 1-.7 1.4-.4.3-.8.5-1.3.5h0 0z"/><path id="Bf" d="M177.3 20.6c-.4 0-.7 0-1.1-.1-1.1-.1-2-.4-2.9-.9s-1.7-1.1-2.3-1.8c-.6-.8-1.1-1.6-1.4-2.6s-.4-2-.3-3.1.4-2.1.9-2.9 1.2-1.6 2-2.2 1.7-1 2.7-1.3c.6-.2 1.3-.2 2-.2.4 0 .7 0 1.1.1 1.2.1 2.3.5 3.3 1 1 .6 1.8 1.3 2.4 2.3.6.9.4 2.1-.5 2.7l-1.8 1.2c-.3.2-.7.4-1.1.4h-.4c-.5-.1-1-.4-1.3-.8-.1-.2-.3-.4-.5-.5s-.4-.2-.6-.2h-.3c-.1 0-.3 0-.4.1-.2 0-.3.1-.4.2s-.2.2-.3.4-.1.4-.2.6v.6c.1.2.1.3.2.4a1.38 1.38 0 0 0 .4.3c.2.1.4.2.7.2h.2c.1 0 .3 0 .4-.1.2-.1.4-.2.6-.4.4-.3.9-.5 1.3-.5h.1c.5 0 1 .3 1.4.7l1.4 1.7c.7.8.6 2-.2 2.7-.8.8-1.8 1.3-2.9 1.6-.7.3-1.4.4-2.2.4h0z"/><path id="Bg" d="M177.3 20.4c-.4 0-.7 0-1.1-.1-1.1-.1-2-.4-2.9-.9s-1.7-1.1-2.3-1.8c-.6-.8-1.1-1.6-1.4-2.6s-.4-2-.3-3.1.4-2.1.9-2.9 1.2-1.6 2-2.2 1.7-1 2.7-1.3c.6-.2 1.3-.2 2-.2.4 0 .7 0 1.1.1 1.2.1 2.3.5 3.3 1 1 .6 1.8 1.3 2.4 2.3.6.9.4 2.1-.5 2.7l-1.8 1.2c-.3.2-.7.4-1.1.4h-.4c-.5-.1-1-.4-1.3-.8-.1-.2-.3-.4-.5-.5s-.4-.2-.6-.2h-.3c-.1 0-.3 0-.4.1-.2 0-.3.1-.4.2s-.2.2-.3.4-.1.4-.2.6v.6c.1.2.1.3.2.4a1.38 1.38 0 0 0 .4.3c.2.1.4.2.7.2h.2c.1 0 .3 0 .4-.1.2-.1.4-.2.6-.4.4-.3.9-.5 1.3-.5h.1c.5 0 1 .3 1.4.7l1.4 1.7c.7.8.6 2-.2 2.7-.8.8-1.8 1.3-2.9 1.6-.7.2-1.4.4-2.2.4h0z"/><path id="Bh" d="M151.2 17.5l-2.6-.1c-.8 0-1.5-.6-1.8-1.3l-.4-1.1-2.3-.1-.5 1c-.3.7-1 1.2-1.8 1.2l-2.6-.1a1.78 1.78 0 0 1-1.6-1c-.4-.6-.4-1.3-.1-1.9l5.2-10.6c.3-.7 1-1.1 1.8-1.1l2.6.1c.8 0 1.5.5 1.8 1.2l4.3 10.9c.2.6.1 1.3-.2 1.9-.4.5-1 .8-1.6.8l-.2.2h0z"/><path id="Bi" d="M86.3 18.6c-.5 0-.9-.2-1.3-.4a1.75 1.75 0 0 1-.7-1.4l-1-10.6c-.1-1.1.7-2.1 1.8-2.2l2.5-.2h.2c.5 0 .9.2 1.3.5s.7.8.7 1.3l1 10.6c.1 1.1-.7 2.1-1.8 2.2l-2.5.2h-.2 0z"/><path id="Bj" d="M158.7 17.9h-.7c-1-.1-2-.3-3-.7-.9-.4-1.7-1-2.4-1.7s-1.2-1.6-1.5-2.5c-.4-.9-.5-2-.4-3 .1-1.1.3-2.1.8-3s1.1-1.7 1.9-2.3 1.7-1.1 2.7-1.4c.8-.2 1.6-.3 2.4-.3h.7c1.2.1 2.4.4 3.3.9 1 .5 1.9 1.2 2.6 2.1s.5 2.1-.4 2.8l-.5.2c.5.4.8 1 .7 1.7l-.4 4.3c-.1.6-.4 1.2-.9 1.5-.8.5-1.7.9-2.7 1.1a8.33 8.33 0 0 1-2.2.3h0zm-.1-8.9c-.2 0-.4 0-.5.1-.2 0-.3.1-.5.2-.1.1-.2.2-.3.4s-.1.4-.1.6 0 .4.1.6.1.3.2.4a1.38 1.38 0 0 0 .4.3c.2.1.4.1.6.2l.1-1.6c0-.5.2-.9.5-1.2h-.2-.3z"/><path id="Bk" d="M167.8 18.5l-2.5-.2c-.5-.1-1-.3-1.4-.7s-.5-.9-.5-1.5l.9-10.6c.1-.5.3-1 .7-1.4.4-.3.8-.5 1.3-.5h.2l2.5.2c1.1.1 1.9 1.1 1.8 2.2l-1 10.6c-.1.5-.3 1-.7 1.4-.4.3-.8.5-1.3.5h0 0z"/><path id="Bl" d="M103.4 17c-.5 0-1-.2-1.3-.5-.4-.4-.6-.9-.7-1.4l-.6-10.7a1.95 1.95 0 0 1 1.9-2.1l2.7-.1c.5 0 1 .2 1.3.5.4.4.6.9.7 1.4l.6 10.7c0 .5-.2 1.1-.5 1.4-.4.4-.8.6-1.4.7l-2.5.1h-.2 0z"/><path id="Bm" d="M105.1 88.1c.9.2 1.7-.5 1.9-1.5.2-1.1-.3-1.9-1.3-2.1-.9-.2-1.7.5-1.9 1.5-.1 1.1.4 2 1.3 2.1z"/><path id="Bn" d="M155.1 117.9c-1.5 0-2.9-.7-3.8-2s-1.2-2.8-.8-4.3l1.3-5.2c.6-2.2 2.4-3.7 4.6-3.7h4c1.5 0 2.9.7 3.8 2s1.2 2.8.8 4.3l-.3 1.2c-.1.5-.3.9-.5 1.3 0 .5 0 1-.2 1.5l-.3 1.2c-.6 2.2-2.4 3.7-4.6 3.7h-4 0z"/><path id="Bo" d="M106.3 97.1c-.4 0-.8 0-1.1-.1-1.7-.3-3.1-1.3-4.1-2.7-1-1.5-1.4-3.3-1-5.2.6-3.3 3.2-5.7 6.3-5.7.4 0 .8 0 1.1.1 1.7.3 3.1 1.2 4.1 2.7s1.4 3.3 1 5.2c-.6 3.4-3.2 5.7-6.3 5.7z"/><path id="Bp" d="M155.7 115.9c-1.5 0-2.9-.7-3.9-2s-1.2-2.8-.8-4.3l1.4-5.2c.6-2.2 2.5-3.7 4.7-3.7h4.1c1.5 0 2.9.7 3.9 2s1.2 2.8.8 4.3l-.3 1.2c-.1.5-.3.9-.5 1.3 0 .5 0 1-.2 1.5l-.3 1.2c-.6 2.2-2.5 3.7-4.7 3.7h-4.2 0z"/><path id="Bq" d="M72.4 47.2l-2-15.4-7.5 1L66 53.7c5.6-.8 11.1-1.6 16.7-2.1l-.6-5.5-9.7 1.1h0z"/></defs></svg>